<svg width="36" height="36" viewBox="0 0 36 36" fill="none" xmlns="http://www.w3.org/2000/svg">
<g clip-path="url(#clip0_436_306)">
<path fill-rule="evenodd" clip-rule="evenodd" d="M0 18C0 32.5173 3.48272 36 18 36C32.5173 36 36 32.5173 36 18C36 3.48272 32.5173 0 18 0C3.48272 0 0 3.48272 0 18ZM7.2585 21.7392L12.9046 8.90831C13.8572 6.7455 15.6904 5.57241 18 5.57241C20.3096 5.57241 22.1425 6.74522 23.0957 8.90803L28.7415 21.7392C28.998 22.3625 29.2179 23.1691 29.2179 23.8655C29.2179 27.0548 26.9817 29.2911 23.7921 29.2911C22.7059 29.2911 21.843 29.014 20.9697 28.7333C20.0748 28.4459 19.1689 28.1548 18 28.1548C16.8446 28.1548 15.9165 28.4484 15.0038 28.7373C14.1213 29.0166 13.2531 29.2911 12.2079 29.2911C9.01856 29.2911 6.78206 27.0551 6.78206 23.8658C6.78206 23.1691 7.002 22.3625 7.2585 21.7392ZM18 11.1445L12.4276 23.7558C14.0774 22.9857 15.9837 22.6193 18 22.6193C19.9432 22.6193 21.9226 22.9857 23.499 23.7555L18 11.1445Z" fill="#5A45FF"/>
</g>
<defs>
<clipPath id="clip0_436_306">
<rect width="36" height="36" fill="white"/>
</clipPath>
</defs>
</svg>
