<svg width="36" height="36" viewBox="0 0 36 36" fill="none" xmlns="http://www.w3.org/2000/svg">
<path d="M17.9467 0.288513L1.28064 6.1537L3.91398 27.9891L17.9644 35.7114L32.0871 27.8848L34.7196 6.04992L17.9467 0.288513Z" fill="#B3B3B3"/>
<path d="M33.0571 7.31191L17.9078 2.14563V33.8664L30.6037 26.8399L33.0571 7.31191Z" fill="#A6120D"/>
<path d="M3.15033 7.40502L5.40764 26.9333L17.9075 33.8664V2.14508L3.15033 7.40502Z" fill="#DD1B16"/>
<path d="M22.0778 19.0322L17.9077 20.9824H13.5123L11.446 26.1501L7.60327 26.2216L17.9077 3.29742L22.0778 19.0322ZM21.6745 18.0504L17.9353 10.6476L14.868 17.923H17.9074L21.6745 18.0504Z" fill="#F2F2F2"/>
<path d="M17.9076 3.29742L17.9352 10.6476L21.4156 17.9286H17.9152L17.9076 20.9776L22.7476 20.9824L25.0094 26.2221L28.6865 26.2902L17.9076 3.29742Z" fill="#B3B3B3"/>
</svg>
