<svg width="36" height="36" viewBox="0 0 36 36" fill="none" xmlns="http://www.w3.org/2000/svg">
<path d="M24.4006 19.9378C22.9966 19.9378 21.7386 20.5588 20.8771 21.5353L18.669 19.9753C18.9119 19.316 19.0368 18.6191 19.038 17.9165C19.038 17.2047 18.9086 16.5243 18.6808 15.8907L20.885 14.3472C21.7461 15.3194 23.0008 15.9368 24.4006 15.9368C26.9901 15.9368 29.0983 13.833 29.0983 11.2478C29.0983 8.66169 26.9901 6.55878 24.4006 6.55878C21.81 6.55878 19.7017 8.66169 19.7017 11.2478C19.7017 11.7104 19.7721 12.1562 19.8983 12.5795L17.6933 14.123C16.7525 12.9581 15.4142 12.1822 13.9358 11.9444V9.29225C16.0641 8.84619 17.668 6.95985 17.668 4.7045C17.668 2.11785 15.5598 0.0155029 12.9703 0.0155029C10.38 0.0155029 8.27146 2.11813 8.27146 4.7045C8.27146 6.92919 9.8338 8.7936 11.919 9.27144V11.9565C9.07358 12.4552 6.90149 14.935 6.90149 17.9165C6.90149 20.9124 9.0944 23.4009 11.9617 23.8821V26.7188C9.85461 27.18 8.27174 29.0557 8.27174 31.2956C8.27174 33.8819 10.3797 35.9846 12.9703 35.9846C15.5598 35.9846 17.668 33.8819 17.668 31.2956C17.668 29.0557 16.0849 27.1803 13.9789 26.7188V23.8821C15.4291 23.6381 16.7416 22.8761 17.6725 21.7376L19.895 23.3086C19.7673 23.7365 19.7022 24.1806 19.7017 24.6271C19.7017 27.2132 21.81 29.3158 24.4006 29.3158C26.9901 29.3158 29.0983 27.2132 29.0983 24.6271C29.0983 22.0408 26.9901 19.9378 24.4006 19.9378ZM24.4006 8.9736C25.6564 8.9736 26.6779 9.99453 26.6779 11.2478C26.6779 12.5002 25.6564 13.5208 24.4006 13.5208C23.1437 13.5208 22.1219 12.5002 22.1219 11.2478C22.1219 9.99425 23.1437 8.9736 24.4006 8.9736ZM10.6919 4.70422C10.6919 3.45097 11.7134 2.43144 12.9703 2.43144C14.2261 2.43144 15.2479 3.45097 15.2479 4.7045C15.2479 5.95803 14.2261 6.97757 12.9703 6.97757C11.7134 6.97757 10.6919 5.95775 10.6919 4.70422ZM15.2479 31.2956C15.2479 32.5491 14.2261 33.5686 12.9703 33.5686C11.7134 33.5686 10.6919 32.5491 10.6919 31.2956C10.6919 30.042 11.7134 29.0225 12.9703 29.0225C14.2261 29.0225 15.2479 30.042 15.2479 31.2956ZM12.9692 21.0873C11.2181 21.0873 9.79302 19.6645 9.79302 17.9165C9.79302 16.1674 11.2181 14.7448 12.9692 14.7448C14.7214 14.7448 16.1465 16.1674 16.1465 17.9165C16.1465 19.6645 14.7216 21.0873 12.9692 21.0873ZM24.4006 26.9002C23.1437 26.9002 22.1219 25.8807 22.1219 24.6271C22.1219 23.3733 23.1437 22.3538 24.4006 22.3538C25.6564 22.3538 26.6779 23.3733 26.6779 24.6268C26.6779 25.8807 25.6564 26.9002 24.4006 26.9002Z" fill="#F0ECF8"/>
</svg>
