<svg width="24" height="24" viewBox="0 0 24 24" fill="none" xmlns="http://www.w3.org/2000/svg">
<g clip-path="url(#clip0_620_8892)">
<path d="M5.21649 0H18.6032C21.4842 0 23.8197 2.3355 23.8197 5.21649V18.6032C23.8197 21.4842 21.4842 23.8197 18.6032 23.8197H5.21649C2.3355 23.8197 0 21.4842 0 18.6032V5.21649C0 2.3355 2.3355 0 5.21649 0Z" fill="url(#paint0_linear_620_8892)"/>
<path d="M7.63355 17.2889L7.63579 17.2896L6.82139 18.7002C6.52413 19.2151 5.86569 19.3915 5.3508 19.0942C4.83593 18.797 4.65951 18.1385 4.95677 17.6236L5.55672 16.5845L5.61428 16.4848C5.71711 16.337 5.97086 16.0819 6.47842 16.1299C6.47842 16.1299 7.67282 16.2595 7.75924 16.8803C7.75926 16.8803 7.77105 17.0846 7.63355 17.2889ZM19.1845 13.6861H16.6449C16.472 13.6745 16.3964 13.6127 16.3668 13.5768L16.3649 13.5736L13.6464 8.86488L13.6428 8.86724L13.4798 8.63346C13.2126 8.22486 12.7883 9.26995 12.7883 9.26995C12.2817 10.4345 12.8602 11.7585 13.0619 12.1586L16.8378 18.6987C17.1351 19.2136 17.7935 19.39 18.3084 19.0927C18.8233 18.7955 18.9997 18.1371 18.7024 17.6222L17.7582 15.9868C17.7399 15.9472 17.7081 15.8396 17.9017 15.8391H19.1845C19.7791 15.8391 20.2611 15.3572 20.2611 14.7626C20.2611 14.1681 19.7791 13.6861 19.1845 13.6861ZM14.2518 15.1496C14.2518 15.1496 14.3874 15.8391 13.8629 15.8391H13.3383L4.47467 15.8391C3.88012 15.8391 3.39813 15.3572 3.39813 14.7626C3.39813 14.1681 3.88012 13.6861 4.47467 13.6861H6.88827C7.27794 13.6635 7.37032 13.4386 7.37032 13.4386L7.37245 13.4396L10.523 7.98269L10.5221 7.9825C10.5795 7.87708 10.5317 7.77748 10.5234 7.76171L9.48289 5.95958C9.18561 5.44469 9.36203 4.78628 9.87692 4.48902C10.3918 4.19173 11.0502 4.36816 11.3475 4.88305L11.83 5.71887L12.3117 4.88453C12.609 4.36964 13.2674 4.19322 13.7823 4.4905C14.2972 4.78779 14.4736 5.4462 14.1763 5.96107L9.79225 13.5545C9.77308 13.6007 9.76721 13.6733 9.90983 13.6861H12.5304L12.531 13.7116C12.531 13.7116 14.0456 13.7352 14.2518 15.1496Z" fill="white"/>
</g>
<defs>
<linearGradient id="paint0_linear_620_8892" x1="1190.98" y1="0" x2="1190.98" y2="2381.97" gradientUnits="userSpaceOnUse">
<stop stop-color="#17C9FB"/>
<stop offset="1" stop-color="#1A74E8"/>
</linearGradient>
<clipPath id="clip0_620_8892">
<rect width="23.8197" height="23.8197" fill="white"/>
</clipPath>
</defs>
</svg>
