<svg width="24" height="24" viewBox="0 0 24 24" fill="none" xmlns="http://www.w3.org/2000/svg">
<g clip-path="url(#clip0_620_8883)">
<path d="M20.8594 0.404907H3.14065C1.62981 0.404907 0.405029 1.62969 0.405029 3.14053V20.8574C0.405029 22.3682 1.62981 23.593 3.14065 23.593H20.8594C22.3702 23.593 23.595 22.3682 23.595 20.8574V3.14053C23.595 1.62969 22.3702 0.404907 20.8594 0.404907Z" fill="url(#paint0_linear_620_8883)"/>
<path d="M9.86813 11.3023C9.86813 11.3023 11.8369 11.1561 11.8369 8.84796C11.8369 6.53984 10.2263 5.41296 8.18625 5.41296H1.47375V18.313H8.18625C8.18625 18.313 12.2831 18.4423 12.2831 14.5048C12.2831 14.5048 12.4631 11.3023 9.86813 11.3023ZM4.43063 7.70609H8.18063C8.18063 7.70609 9.09375 7.70609 9.09375 9.04859C9.09375 10.3911 8.5575 10.5861 7.94813 10.5861H4.4325L4.43063 7.70609ZM8.01188 16.0198H4.4325V12.5736H8.1825C8.1825 12.5736 9.54188 12.5548 9.54188 14.3455C9.54563 15.8361 8.55188 16.0048 8.01375 16.0198H8.01188ZM17.7488 8.69609C12.7875 8.69609 12.7931 13.6517 12.7931 13.6517C12.7931 13.6517 12.4519 18.583 17.7488 18.583C17.7488 18.583 22.1625 18.8342 22.1625 15.1536H19.8938C19.8938 15.1536 19.9688 16.5411 17.8313 16.5411C17.8313 16.5411 15.5606 16.693 15.5606 14.2911H22.245C22.245 14.2911 22.9706 8.69609 17.7488 8.69609ZM19.7663 12.5736H15.5288C15.5288 12.5736 15.8063 10.5861 17.7994 10.5861C19.7925 10.5861 19.7663 12.5736 19.7663 12.5736ZM14.9738 6.17421H20.295V7.76234H14.9738V6.17421Z" fill="white"/>
</g>
<defs>
<linearGradient id="paint0_linear_620_8883" x1="12" y1="0.404907" x2="12" y2="23.5949" gradientUnits="userSpaceOnUse">
<stop stop-color="#005CFF"/>
<stop offset="1" stop-color="#0047AD"/>
</linearGradient>
<clipPath id="clip0_620_8883">
<rect width="24" height="24" fill="white"/>
</clipPath>
</defs>
</svg>
