<svg width="36" height="36" viewBox="0 0 36 36" fill="none" xmlns="http://www.w3.org/2000/svg">
<path d="M32.4563 8.6344L18.8719 0.815649C18.6469 0.675024 18.3375 0.618774 18 0.618774C17.6625 0.618774 17.3531 0.703149 17.1281 0.815649L3.62812 8.66252C3.15 8.94377 2.8125 9.6469 2.8125 10.1813V25.8469C2.8125 26.1563 2.86875 26.5219 3.09375 26.8313L33.1313 9.39377C32.9625 9.05627 32.7094 8.80315 32.4563 8.6344Z" fill="#9B4F96"/>
<path d="M3.0094 26.8031C3.15002 27.0281 3.3469 27.225 3.54377 27.3375L17.1 35.1844C17.325 35.325 17.6344 35.3812 17.9719 35.3812C18.3094 35.3812 18.6188 35.2969 18.8438 35.1844L32.3438 27.3375C32.8219 27.0562 33.1594 26.3531 33.1594 25.8187V10.1531C33.1594 9.89998 33.1313 9.61873 32.9906 9.3656L3.0094 26.8031Z" fill="#68217A"/>
<path d="M23.9906 21.4031C22.8094 23.4844 20.5594 24.8906 18 24.8906C14.2031 24.8906 11.1094 21.7969 11.1094 18C11.1094 14.2031 14.2031 11.1094 18 11.1094C20.5594 11.1094 22.8094 12.5156 23.9906 14.625L27.6469 12.5156C25.7344 9.16875 22.1344 6.89062 18 6.89062C11.8688 6.89062 6.89062 11.8688 6.89062 18C6.89062 24.1312 11.8688 29.1094 18 29.1094C22.1063 29.1094 25.7062 26.8594 27.6187 23.5406L23.9906 21.4031ZM27.2812 18.6187L27.5344 17.4094H26.3531V16.0875H27.7875L28.125 14.3438H29.5031L29.1656 16.0594H30.2344L30.5719 14.3438H31.9219L31.5844 16.0594H32.2594V17.3812H31.3313L31.0781 18.5906H32.2594V19.9125H30.825L30.4875 21.6H29.1094L29.4469 19.9125H28.3781L28.0406 21.6H26.6906L27.0281 19.9125H26.3531V18.5906H27.2812V18.6187ZM28.6313 18.6187H29.7L29.9531 17.4094H28.8844L28.6313 18.6187Z" fill="white"/>
</svg>
