<svg width="36" height="36" viewBox="0 0 36 36" fill="none" xmlns="http://www.w3.org/2000/svg">
<path d="M5.29155 32.0971L2.46387 0.380249H33.5364L30.7059 32.0923L17.9813 35.62L5.29155 32.0971Z" fill="#1572B6"/>
<path d="M18.0002 32.9237L28.2825 30.073L30.7015 2.97339H18.0002V32.9237Z" fill="#33A9DC"/>
<path d="M18.0002 14.4645H23.1477L23.5032 10.4812H18.0002V6.59119H27.7546L27.6612 7.63491L26.7049 18.3545H18.0002V14.4645Z" fill="white"/>
<path d="M18.0234 24.5669L18.0062 24.572L13.6741 23.4023L13.3971 20.2998H9.4928L10.0376 26.4077L18.0057 28.6192L18.0234 28.6141V24.5669Z" fill="#EBEBEB"/>
<path d="M22.8171 18.1898L22.3485 23.3991L18.0099 24.5703V28.6174L25.9845 26.4074L26.043 25.7501L26.7197 18.1898H22.8171Z" fill="white"/>
<path d="M18.0135 6.59119V10.4812H8.61754L8.53963 9.60703L8.36244 7.63491L8.26935 6.59119H18.0135ZM18.0003 14.4651V18.355H13.7228L13.6449 17.4809L13.4674 15.5088L13.3746 14.4651H18.0003Z" fill="#EBEBEB"/>
</svg>
