<svg width="36" height="36" viewBox="0 0 36 36" fill="none" xmlns="http://www.w3.org/2000/svg">
<g clip-path="url(#clip0_436_253)">
<path d="M12.6516 14.2923C14.1065 14.2923 15.2889 15.0691 15.895 16.4179L15.9405 16.5242L18.3807 15.6946L18.3315 15.5694C17.3879 13.2654 15.2093 11.8372 12.6516 11.8372C10.8516 11.8372 9.38911 12.4129 8.18058 13.599C6.97936 14.7774 6.37299 16.259 6.37299 18.0019C6.37299 19.7336 6.9833 21.2073 8.18058 22.3821C9.38911 23.5682 10.8519 24.1439 12.6516 24.1439C15.2093 24.1439 17.3842 22.7117 18.3315 20.4117L18.3807 20.2868L15.9366 19.4571L15.895 19.5668C15.3494 20.8968 14.1369 21.6886 12.6516 21.6886C11.64 21.6886 10.7835 21.3362 10.1091 20.6389C9.42314 19.9344 9.07833 19.044 9.07833 18.0019C9.07833 16.9523 9.41583 16.081 10.1091 15.3419C10.7872 14.6447 11.64 14.2923 12.6516 14.2923Z" fill="#D1C7EB"/>
<path d="M23.2458 35.1929L22.5185 32.7944C29.0812 30.8014 33.4915 24.8564 33.4915 18.002C33.4915 16.1112 33.1542 14.2623 32.4874 12.5115L34.8291 11.621C35.6063 13.6598 36.0031 15.8238 35.9999 18.0057C35.9963 25.9665 30.8733 32.874 23.2458 35.1929Z" fill="url(#paint0_linear_436_253)"/>
<path d="M32.8134 13.4701C30.8089 6.93024 24.8563 2.53852 17.998 2.53852C17.0681 2.53867 16.14 2.62111 15.2246 2.7849L14.7811 0.318334C15.8428 0.127373 16.9193 0.0309946 17.998 0.0303345C25.9627 0.0303345 32.8778 5.13418 35.208 12.7313L32.8134 13.4701Z" fill="#69D3A7"/>
<path d="M1.15194 24.3372C0.386377 22.3138 -6.10352e-05 20.1806 -6.10352e-05 18.002C-6.10352e-05 8.71879 6.96819 1.03053 16.2095 0.120972L16.4559 2.61425C8.50269 3.39894 2.50447 10.0145 2.50447 18.0017C2.50208 19.8641 2.83712 21.7114 3.49335 23.4543L1.15194 24.3372Z" fill="url(#paint1_linear_436_253)"/>
<path d="M18.0928 12.0645L23.0034 24.0834L19.4265 32.76L21.931 33.2603L30.6385 12.0642H27.9329L24.4586 20.8701L20.9573 12.0642L18.0928 12.0645Z" fill="#D1C7EB"/>
<path d="M19.8774 31.669L19.3509 32.9459C19.2296 33.2378 18.9529 33.4386 18.6421 33.4499C18.4264 33.4575 18.214 33.4651 17.9944 33.4651C11.1173 33.4651 4.99389 28.8613 3.10333 22.2685L0.693298 22.9578C2.89099 30.6157 10.0032 35.9656 17.9905 35.9696H17.9944C18.2444 35.9696 18.4945 35.9659 18.7445 35.9544C20.029 35.9015 21.1773 35.0943 21.6695 33.9007L22.3822 32.1693L19.8774 31.669Z" fill="url(#paint2_linear_436_253)"/>
</g>
<defs>
<linearGradient id="paint0_linear_436_253" x1="37.378" y1="18.1155" x2="21.308" y2="28.5201" gradientUnits="userSpaceOnUse">
<stop offset="0.081" stop-color="#69D3A7"/>
<stop offset="1" stop-color="#69D3A7" stop-opacity="0"/>
</linearGradient>
<linearGradient id="paint1_linear_436_253" x1="12.0066" y1="0.257656" x2="1.91087" y2="21.6696" gradientUnits="userSpaceOnUse">
<stop stop-color="#69D3A7"/>
<stop offset="0.823" stop-color="#2AB586"/>
<stop offset="1" stop-color="#1CAE7F"/>
</linearGradient>
<linearGradient id="paint2_linear_436_253" x1="-0.0255349" y1="26.2294" x2="26.4469" y2="34.5374" gradientUnits="userSpaceOnUse">
<stop offset="0.077" stop-color="#1CAE7F"/>
<stop offset="0.164" stop-color="#1CA379"/>
<stop offset="0.316" stop-color="#1C8568"/>
<stop offset="0.516" stop-color="#99F6E9"/>
<stop offset="0.719" stop-color="#D1C7EB"/>
</linearGradient>
<clipPath id="clip0_436_253">
<rect width="36" height="36" fill="white"/>
</clipPath>
</defs>
</svg>
