<svg width="36" height="36" viewBox="0 0 36 36" fill="none" xmlns="http://www.w3.org/2000/svg">
<path fill-rule="evenodd" clip-rule="evenodd" d="M20.7562 14.2875H23.9344V17.5219H25.5375C26.2687 17.5219 27.0281 17.3812 27.7312 17.1562C28.0687 17.0437 28.4625 16.875 28.8 16.6781C28.35 16.0875 28.125 15.3562 28.0687 14.625C27.9844 13.6406 28.1812 12.3469 28.8562 11.5875L29.1937 11.1937L29.5875 11.5031C30.6 12.3187 31.4156 13.4156 31.5844 14.7094C32.7937 14.3437 34.2 14.4281 35.2687 15.0469L35.6906 15.3L35.4656 15.75C34.5656 17.4937 32.6812 18.0562 30.8531 17.9437C28.0969 24.7781 22.1344 28.0125 14.8781 28.0125C11.1375 28.0125 7.70624 26.6062 5.73749 23.2875L5.70936 23.2312L5.42811 22.6406C4.75311 21.1781 4.55624 19.575 4.69686 17.9719L4.75311 17.4937H7.45311V14.2875H10.6312V11.1375H16.9594V7.95935H20.7562V14.2875Z" fill="#3A4D54"/>
<path d="M31.05 15.4969C31.275 13.8375 30.0375 12.5438 29.25 11.925C28.3781 12.9375 28.2375 15.6375 29.6156 16.7625C28.8281 17.4375 27.225 18.0844 25.5375 18.0844H5.23124C5.06249 19.8282 5.37187 21.4313 6.07499 22.8094L6.29999 23.2313C6.44061 23.4844 6.60937 23.7094 6.77812 23.9625C7.62187 24.0188 8.38124 24.0469 9.08436 24.0188C10.4625 23.9907 11.5875 23.8219 12.4594 23.5407C12.6 23.4844 12.7125 23.5688 12.7687 23.6813C12.825 23.8219 12.7406 23.9344 12.6281 23.9907C12.5156 24.0188 12.4031 24.075 12.2625 24.1032C11.5875 24.3 10.8562 24.4125 9.92812 24.4688H9.75937C9.39374 24.4969 8.99999 24.4969 8.57812 24.4969C8.12812 24.4969 7.70624 24.4969 7.19999 24.4688C8.88749 26.3813 11.5312 27.5063 14.85 27.5063C21.8812 27.5063 27.8437 24.3844 30.4594 17.4094C32.3437 17.6063 34.1437 17.1282 34.9594 15.525C33.6937 14.7657 32.0062 15.0188 31.05 15.4969Z" fill="#00AADA"/>
<path d="M31.05 15.4969C31.275 13.8375 30.0375 12.5438 29.25 11.925C28.3781 12.9375 28.2375 15.6375 29.6156 16.7625C28.8281 17.4375 27.225 18.0844 25.5375 18.0844H6.41248C6.32811 20.7563 7.31248 22.7813 9.08436 23.9907C10.4625 23.9625 11.5875 23.7938 12.4594 23.5125C12.6 23.4563 12.7125 23.5407 12.7687 23.6532C12.825 23.7938 12.7406 23.9063 12.6281 23.9625C12.5156 23.9907 12.4031 24.0469 12.2625 24.075C11.5875 24.2719 10.8 24.4125 9.87186 24.4688L9.84373 24.4407C12.2344 25.6782 15.6937 25.65 19.6875 24.1313C24.1312 22.4157 28.2937 19.1532 31.1906 15.4407C31.1344 15.4688 31.0781 15.4688 31.05 15.4969Z" fill="#28B8EB"/>
<path d="M5.25934 20.1937C5.37184 21.1219 5.65309 21.9937 6.07496 22.8093L6.29996 23.2312C6.44059 23.4843 6.60934 23.7093 6.77809 23.9625C7.62184 24.0187 8.38121 24.0469 9.08434 24.0187C10.4625 23.9906 11.5875 23.8218 12.4593 23.5406C12.6 23.4843 12.7125 23.5687 12.7687 23.6812C12.825 23.8218 12.7406 23.9344 12.6281 23.9906C12.5156 24.0187 12.4031 24.075 12.2625 24.1031C11.5875 24.3 10.8 24.4406 9.87184 24.4968H9.75934C9.39371 24.525 8.99996 24.525 8.60621 24.525C8.15621 24.525 7.70621 24.525 7.22809 24.4968C8.91559 26.4093 11.5875 27.5344 14.9062 27.5344C20.925 27.5344 26.1562 25.2562 29.1937 20.2219H5.25934V20.1937Z" fill="#028BB8"/>
<path d="M6.60938 20.1937C6.975 21.825 7.81875 23.1187 9.08438 23.9906C10.4625 23.9625 11.5875 23.7937 12.4594 23.5125C12.6 23.4562 12.7125 23.5406 12.7688 23.6531C12.825 23.7937 12.7406 23.9062 12.6281 23.9625C12.5156 23.9906 12.4031 24.0468 12.2625 24.075C11.5875 24.2718 10.8 24.4125 9.84375 24.4687C12.2344 25.7062 15.6938 25.6781 19.6594 24.1594C22.05 23.2312 24.3844 21.8531 26.4656 20.1937H6.60938Z" fill="#019BC6"/>
<path fill-rule="evenodd" clip-rule="evenodd" d="M7.98749 14.8219H10.7437V17.5781H7.98749V14.8219ZM8.21249 15.0469H8.43749V17.325H8.21249V15.0469ZM8.60624 15.0469H8.83124V17.325H8.60624V15.0469ZM9.02811 15.0469H9.25311V17.325H9.02811V15.0469ZM9.44999 15.0469H9.67499V17.325H9.44999V15.0469ZM9.87186 15.0469H10.0969V17.325H9.87186V15.0469ZM10.2937 15.0469H10.5187V17.325H10.2937V15.0469ZM11.1375 11.6719H13.8937V14.4281H11.1375V11.6719ZM11.3906 11.8969H11.6156V14.175H11.3906V11.8969ZM11.7844 11.8969H12.0094V14.175H11.7844V11.8969ZM12.2062 11.8969H12.4312V14.175H12.2062V11.8969ZM12.6281 11.8969H12.8531V14.175H12.6281V11.8969ZM13.0219 11.8969H13.2469V14.175H13.0219V11.8969ZM13.4437 11.8969H13.6687V14.175H13.4437V11.8969Z" fill="#00ACD3"/>
<path fill-rule="evenodd" clip-rule="evenodd" d="M11.1375 14.8219H13.8937V17.5781H11.1375V14.8219ZM11.3906 15.0469H11.6156V17.325H11.3906V15.0469ZM11.7843 15.0469H12.0093V17.325H11.7843V15.0469ZM12.2062 15.0469H12.4312V17.325H12.2062V15.0469ZM12.6281 15.0469H12.8531V17.325H12.6281V15.0469ZM13.0218 15.0469H13.2468V17.325H13.0218V15.0469ZM13.4437 15.0469H13.6687V17.325H13.4437V15.0469Z" fill="#23C2EE"/>
<path fill-rule="evenodd" clip-rule="evenodd" d="M14.3156 14.8219H17.0719V17.5781H14.3156V14.8219ZM14.5406 15.0469H14.7656V17.325H14.5406V15.0469ZM14.9625 15.0469H15.1875V17.325H14.9625V15.0469ZM15.3844 15.0469H15.6094V17.325H15.3844V15.0469ZM15.7781 15.0469H16.0031V17.325H15.7781V15.0469ZM16.2 15.0469H16.425V17.325H16.2V15.0469ZM16.6219 15.0469H16.8469V17.325H16.6219V15.0469Z" fill="#00ACD3"/>
<path fill-rule="evenodd" clip-rule="evenodd" d="M14.3156 11.6719H17.0719V14.4281H14.3156V11.6719ZM14.5406 11.8969H14.7656V14.175H14.5406V11.8969ZM14.9625 11.8969H15.1875V14.175H14.9625V11.8969ZM15.3844 11.8969H15.6094V14.175H15.3844V11.8969ZM15.7781 11.8969H16.0031V14.175H15.7781V11.8969ZM16.2 11.8969H16.425V14.175H16.2V11.8969ZM16.6219 11.8969H16.8469V14.175H16.6219V11.8969ZM17.4937 14.8219H20.25V17.5781H17.4937V14.8219ZM17.7187 15.0469H17.9437V17.325H17.7187V15.0469ZM18.1406 15.0469H18.3656V17.325H18.1406V15.0469ZM18.5344 15.0469H18.7594V17.325H18.5344V15.0469ZM18.9562 15.0469H19.1812V17.325H18.9562V15.0469ZM19.3781 15.0469H19.6031V17.325H19.3781V15.0469ZM19.8 15.0469H20.025V17.325H19.8V15.0469Z" fill="#23C2EE"/>
<path fill-rule="evenodd" clip-rule="evenodd" d="M17.4937 11.6719H20.25V14.4281H17.4937V11.6719ZM17.7187 11.8969H17.9437V14.175H17.7187V11.8969ZM18.1406 11.8969H18.3656V14.175H18.1406V11.8969ZM18.5343 11.8969H18.7593V14.175H18.5343V11.8969ZM18.9562 11.8969H19.1812V14.175H18.9562V11.8969ZM19.3781 11.8969H19.6031V14.175H19.3781V11.8969ZM19.8 11.8969H20.025V14.175H19.8V11.8969Z" fill="#00ACD3"/>
<path fill-rule="evenodd" clip-rule="evenodd" d="M17.4937 8.49377H20.25V11.25H17.4937V8.49377ZM17.7187 8.71877H17.9437V10.9969H17.7187V8.71877ZM18.1406 8.71877H18.3656V10.9969H18.1406V8.71877ZM18.5343 8.71877H18.7593V10.9969H18.5343V8.71877ZM18.9562 8.71877H19.1812V10.9969H18.9562V8.71877ZM19.3781 8.71877H19.6031V10.9969H19.3781V8.71877ZM19.8 8.71877H20.025V10.9969H19.8V8.71877Z" fill="#23C2EE"/>
<path fill-rule="evenodd" clip-rule="evenodd" d="M20.6719 14.8219H23.4281V17.5781H20.6719V14.8219ZM20.8969 15.0469H21.1219V17.325H20.8969V15.0469ZM21.2906 15.0469H21.5156V17.325H21.2906V15.0469ZM21.7125 15.0469H21.9375V17.325H21.7125V15.0469ZM22.1344 15.0469H22.3594V17.325H22.1344V15.0469ZM22.5562 15.0469H22.7812V17.325H22.5562V15.0469ZM22.9781 15.0469H23.2031V17.325H22.9781V15.0469Z" fill="#00ACD3"/>
<path fill-rule="evenodd" clip-rule="evenodd" d="M13.725 22.0219C14.1468 22.0219 14.4843 22.3593 14.4843 22.7812C14.4843 23.2031 14.1468 23.5406 13.725 23.5406C13.3031 23.5406 12.9656 23.2031 12.9656 22.7812C12.9656 22.3593 13.3031 22.0219 13.725 22.0219Z" fill="#D4EEF1"/>
<path fill-rule="evenodd" clip-rule="evenodd" d="M13.725 22.2468C13.7812 22.2468 13.8656 22.2468 13.9218 22.275C13.8656 22.3031 13.8093 22.3875 13.8093 22.4718C13.8093 22.5843 13.9218 22.6968 14.0343 22.6968C14.1187 22.6968 14.2031 22.6406 14.2312 22.5843C14.2593 22.6406 14.2593 22.725 14.2593 22.7812C14.2593 23.0906 14.0062 23.3156 13.725 23.3156C13.4156 23.3156 13.1906 23.0625 13.1906 22.7812C13.1906 22.5 13.4156 22.2468 13.725 22.2468ZM0.309326 20.475H35.5781C34.8187 20.2781 33.1593 20.025 33.4125 19.0125C32.0062 20.6156 28.6593 20.1375 27.7875 19.35C26.8312 20.7281 21.3187 20.1937 20.9531 19.125C19.7718 20.5312 16.0875 20.5312 14.9062 19.125C14.5125 20.1937 8.99995 20.7281 8.07183 19.35C7.22808 20.1375 3.85308 20.6156 2.44683 19.0125C2.7562 19.9968 1.0687 20.2781 0.309326 20.475Z" fill="#3A4D54"/>
<path d="M15.75 27.5062C13.8656 26.6062 12.8531 25.3968 12.2625 24.075C11.5594 24.2718 10.7156 24.4125 9.75936 24.4687C9.39374 24.4968 8.99999 24.4968 8.60624 24.4968C8.12811 24.4968 7.64999 24.4968 7.14374 24.4687C8.83124 26.1562 10.9687 27.4781 14.8781 27.5062H15.75Z" fill="#BFDBE0"/>
<path d="M12.9656 25.2843C12.7125 24.9187 12.4593 24.4968 12.2625 24.075C11.5593 24.2718 10.7156 24.4125 9.75934 24.4687C10.4062 24.8062 11.3625 25.1437 12.9656 25.2843Z" fill="#D4EEF1"/>
</svg>
