<svg width="36" height="36" viewBox="0 0 36 36" fill="none" xmlns="http://www.w3.org/2000/svg">
<g clip-path="url(#clip0_436_249)">
<path d="M17.2111 0H18.6041C22.2373 0.150469 25.8289 1.37531 28.7412 3.56512C31.5 5.61516 33.6555 8.46928 34.8519 11.6949C35.5385 13.4913 35.8824 15.4018 36 17.3177V18.502C35.8836 21.6782 34.9695 24.8358 33.2634 27.5251C31.3507 30.5893 28.5041 33.0742 25.184 34.508C23.0104 35.4505 20.673 35.9574 18.3043 36H17.7013C14.4008 35.9463 11.1173 34.9706 8.33653 33.1898C5.18766 31.1892 2.67947 28.1877 1.29741 24.7193C0.531844 22.8347 0.124031 20.8181 0 18.7909V17.3967C0.14175 13.3495 1.67428 9.35044 4.33406 6.28847C6.516 3.74344 9.42188 1.8225 12.6245 0.826031C14.1109 0.357187 15.6589 0.115312 17.2111 0ZM7.08497 10.5533C7.07653 13.9714 7.08188 17.3891 7.08188 20.806C7.48406 20.8091 7.88625 20.8091 8.28928 20.8091C8.26819 17.8748 8.31769 14.9414 8.25947 12.008C8.39447 12.2631 8.51766 12.5255 8.6715 12.7693C10.4161 15.4434 12.1233 18.1406 13.8682 20.8125C14.357 20.806 14.8458 20.806 15.3346 20.8136C15.3337 17.3936 15.3326 13.9736 15.3357 10.5536C14.9373 10.5498 14.5388 10.5486 14.1404 10.5503C14.1615 13.4528 14.1022 16.3552 14.1756 19.2547C12.3455 16.3432 10.4909 13.4482 8.63634 10.5514C8.11922 10.5482 7.60208 10.5488 7.08497 10.5533ZM18.0098 10.5503C17.9736 13.9703 18.0087 17.3902 17.9966 20.8091C19.816 20.8049 21.6354 20.8159 23.4557 20.8035C23.4492 20.433 23.4514 20.0624 23.4624 19.692C22.0528 19.6875 20.6423 19.694 19.2316 19.6864C19.2108 18.5023 19.2305 17.3166 19.2203 16.1322C20.4564 16.1103 21.6925 16.1356 22.9272 16.119C22.9241 15.7598 22.9241 15.4007 22.9219 15.0412C21.688 15.0809 20.4545 15.0261 19.2195 15.0446C19.2229 13.9132 19.2251 12.7806 19.2251 11.6477C20.5467 11.6477 21.8683 11.6421 23.1888 11.6511C23.1865 11.2852 23.1888 10.9181 23.1933 10.5525C21.465 10.548 19.7367 10.5503 18.0098 10.5503ZM24.3667 10.5654C24.3678 10.9215 24.3678 11.2764 24.3689 11.6314C25.3499 11.6201 26.3298 11.662 27.3108 11.6412C27.3043 14.6964 27.3119 17.7494 27.3077 20.8027C27.7183 20.8147 28.1318 20.8125 28.5424 20.7773C28.5086 19.0921 28.5756 17.4057 28.4985 15.7213C28.5173 14.9622 28.4788 14.2042 28.5314 13.446C28.5612 12.8441 28.4535 12.2431 28.5216 11.6412C29.5104 11.6544 30.5002 11.6454 31.4887 11.6454C31.4843 11.2861 31.4913 10.9266 31.5098 10.5677C29.1279 10.5382 26.7463 10.5413 24.3667 10.5654ZM3.81094 19.4327C3.25491 19.6886 3.21863 20.5642 3.76903 20.8465C4.25278 21.1784 4.97981 20.7422 4.95788 20.1687C4.99528 19.6051 4.31381 19.1315 3.81094 19.4327ZM12.0319 23.7327C10.829 24.7084 10.8433 26.8813 12.1725 27.7405C12.9229 28.2173 13.8887 28.1185 14.6818 27.801C14.6852 27.6263 14.6894 27.4525 14.6959 27.2779C13.9447 27.6702 12.8931 27.7504 12.256 27.1063C11.4221 26.1959 11.61 24.4994 12.7097 23.8787C13.3315 23.5513 14.0898 23.6469 14.7026 23.9459C14.7007 23.7603 14.7015 23.5747 14.7026 23.389C13.8316 23.0799 12.7558 23.0965 12.0319 23.7327ZM16.8713 24.4949C16.3398 24.5568 15.8144 24.838 15.5683 25.3291C15.2159 26.0311 15.2564 26.9792 15.8113 27.5678C16.3837 28.2139 17.4833 28.2203 18.1119 27.6514C18.794 27.0023 18.871 25.8323 18.3248 25.074C18.002 24.6158 17.4043 24.4598 16.8713 24.4949ZM21.9021 25.2608C21.4352 26.0716 21.5274 27.2998 22.3515 27.8513C22.9655 28.1945 23.7389 28.0853 24.3411 27.7647C24.3399 27.5912 24.3422 27.4174 24.3498 27.245C23.8753 27.5459 23.2425 27.767 22.7152 27.4635C22.347 27.2604 22.2359 26.8287 22.1768 26.444C22.9854 26.433 23.7929 26.4209 24.6026 26.4232C24.5815 25.909 24.5694 25.328 24.1948 24.9303C23.5763 24.2468 22.3262 24.4643 21.9021 25.2608ZM19.5356 24.6038V27.981C19.719 27.981 19.9046 27.981 20.0905 27.9821C20.097 27.3648 20.0793 26.7463 20.097 26.1276C20.1015 25.7704 20.2452 25.4081 20.5144 25.1674C20.7397 24.9972 21.044 25.0914 21.3022 25.0982C21.2988 24.9193 21.2965 24.741 21.2957 24.5632C20.7914 24.4513 20.3574 24.7466 20.1026 25.1587C20.097 24.9806 20.0914 24.8026 20.0883 24.626C19.9038 24.6192 19.719 24.6116 19.5356 24.6038Z" fill="#623697"/>
<path d="M16.5257 25.094C16.9903 24.8676 17.6571 24.9787 17.9165 25.4596C18.2118 25.9903 18.2053 26.6923 17.8779 27.2064C17.4504 27.8494 16.3235 27.7088 16.0433 26.9978C15.7598 26.3627 15.8698 25.4557 16.5257 25.094ZM22.23 25.9914C22.2429 25.5488 22.5517 25.1092 22.9967 25.0127C23.2712 24.9666 23.5865 25.0147 23.7766 25.2357C23.9656 25.4365 24.0052 25.7178 24.0522 25.9782C23.4447 25.9816 22.8375 25.9695 22.23 25.9914Z" fill="#623697"/>
</g>
<defs>
<clipPath id="clip0_436_249">
<rect width="36" height="36" fill="white"/>
</clipPath>
</defs>
</svg>
