<svg width="36" height="36" viewBox="0 0 36 36" fill="none" xmlns="http://www.w3.org/2000/svg">
<path d="M35.626 27.6862C34.3435 28.0124 33.5503 27.7003 32.8388 26.6315C31.2413 24.2381 29.4778 21.9543 27.7763 19.6284C27.5569 19.3274 27.3291 19.0321 27.045 18.6581C25.0313 21.3749 23.0203 23.9624 21.1332 26.654C20.4582 27.6159 19.7494 28.0349 18.4894 27.6946L26.0607 17.5331L19.0125 8.35588C20.2247 8.11963 21.0628 8.24056 21.8053 9.32619C23.445 11.7224 25.2535 14.0034 27.0563 16.4165C28.8703 14.0118 30.6563 11.7281 32.3438 9.35431C33.0216 8.39244 33.75 8.02681 34.9678 8.38119C34.0453 9.60463 33.1425 10.8084 32.2341 12.0037C31.0078 13.6153 29.8041 15.2465 28.5328 16.8243C28.08 17.3868 28.1532 17.7524 28.5582 18.284C30.9094 21.3749 33.2325 24.4968 35.626 27.6862ZM0.374099 17.3643C0.576599 16.349 0.711599 15.314 0.992849 14.3184C2.68035 8.29119 9.5991 5.78525 14.3522 9.52025C17.1366 11.7112 17.8285 14.7993 17.6907 18.2812H1.99691C1.76066 24.5278 6.25785 28.2993 11.9897 26.3756C14.0007 25.7006 15.1847 24.1256 15.7782 22.1568C16.0791 21.1696 16.5769 21.0149 17.505 21.2962C17.0297 23.7599 15.9525 25.8187 13.7025 27.1068C10.3275 29.0362 5.50972 28.4118 2.97566 25.7315C1.47941 24.1565 0.843787 22.1962 0.562537 20.0784C0.520349 19.7409 0.433162 19.409 0.365662 19.0743C0.371287 18.5043 0.374099 17.9343 0.374099 17.3643ZM2.02504 16.9453H16.2085C16.1157 12.4284 13.3032 9.21931 9.45847 9.19119C5.23972 9.15744 2.20785 12.2906 2.02504 16.9453Z" fill="#F0ECF8"/>
</svg>
