<svg width="36" height="36" viewBox="0 0 36 36" fill="none" xmlns="http://www.w3.org/2000/svg">
<g clip-path="url(#clip0_436_298)">
<path d="M15.9787 35.8835C15.4434 35.8197 14.8821 35.7373 14.7316 35.7001C14.5102 35.6476 14.2874 35.6007 14.0636 35.5595C13.808 35.5099 13.5544 35.4506 13.3034 35.3815C12.1376 35.0473 12.0541 35.0201 11.1752 34.6606C10.3666 34.331 8.87681 33.5609 8.36719 33.2105C8.22769 33.1138 8.09719 33.0358 8.07722 33.0358C8.05753 33.0358 7.73128 32.8063 7.35216 32.5259C4.94184 30.742 3.13228 28.5763 1.82475 25.909C1.59975 25.4508 1.41609 25.0444 1.41609 25.0062C1.41609 24.9685 1.37559 24.8641 1.32609 24.7764C1.224 24.5938 1.07859 24.2007 0.961313 23.7943C0.910887 23.6216 0.852226 23.4514 0.785531 23.2843C0.730688 23.155 0.686531 22.9975 0.686531 22.9339C0.686531 22.8701 0.631688 22.6625 0.56475 22.4713C0.497813 22.2814 0.443813 22.0573 0.443813 21.9734C0.443813 21.8902 0.391219 21.6022 0.32625 21.3333C0.168188 20.6696 0 18.9503 0 17.9867C0 17.0243 0.168188 15.305 0.32625 14.6415C0.390938 14.3724 0.443813 14.079 0.443813 13.989C0.443813 13.8987 0.484594 13.7218 0.533813 13.5953C0.584438 13.4693 0.649125 13.2429 0.678938 13.0924C0.709875 12.9419 0.780188 12.6826 0.837281 12.5144L1.00322 12.029C1.125 11.6653 1.23806 11.3577 1.29206 11.2378C1.323 11.1709 1.44366 10.8975 1.56122 10.6303C1.75134 10.1986 2.15888 9.38441 2.39709 8.95831C2.484 8.80222 2.51691 8.75047 2.98716 8.01556C3.73219 6.84894 5.00541 5.39741 6.19059 4.36269C6.60825 3.99791 8.00353 2.93872 8.06625 2.93872C8.08369 2.93872 8.21531 2.85969 8.35959 2.76294C8.73844 2.50925 9.10997 2.29381 9.59428 2.05109C9.76813 1.96511 9.94029 1.87575 10.1107 1.78306C10.1908 1.73694 10.3413 1.66775 11.1139 1.32181C11.284 1.24587 11.4674 1.17669 11.9959 0.991905C12.1123 0.951405 12.3463 0.865624 12.5134 0.802905C12.6816 0.740467 12.8793 0.688717 12.953 0.688717C13.0255 0.688717 13.2165 0.638092 13.3771 0.575655C13.5374 0.512936 13.8285 0.441499 14.0251 0.417311C14.2208 0.394249 14.481 0.339405 14.6031 0.296374C14.724 0.254749 15.0559 0.200749 15.3402 0.176842C15.7108 0.14336 16.0804 0.0997501 16.4486 0.046061C17.2046 -0.0647515 18.8483 -0.0647515 19.5964 0.046061C19.9497 0.0967688 20.3043 0.138501 20.6598 0.171217C20.9278 0.193436 21.2695 0.249405 21.42 0.29553C21.5705 0.34053 21.8309 0.39678 21.998 0.417311C22.165 0.43953 22.4463 0.508717 22.6229 0.57228C22.8001 0.636967 23.0009 0.688717 23.0701 0.688717C23.1393 0.688717 23.2822 0.727249 23.3865 0.775624C23.492 0.822874 23.715 0.901905 23.8832 0.951405C24.0503 1.00203 24.3368 1.10187 24.5216 1.17556C24.705 1.24897 24.9511 1.34572 25.0687 1.38959C25.2852 1.47115 26.8855 2.27187 27.1032 2.40828C28.8698 3.50994 29.7785 4.22966 31.0002 5.49191C32.4734 7.01459 33.4513 8.46472 34.4467 10.5994C34.517 10.7502 34.6244 10.9732 34.686 11.0938C34.7465 11.2159 34.7971 11.3588 34.7971 11.4117C34.7971 11.4651 34.8477 11.6254 34.9102 11.7686C35.0795 12.1575 35.2243 12.6002 35.2927 12.9386C35.3264 13.1045 35.3891 13.3098 35.4319 13.3945C35.4749 13.4788 35.5253 13.6934 35.5452 13.8692C35.5649 14.0447 35.6231 14.3327 35.6726 14.5074C35.9595 15.5005 36.1021 18.4263 35.9286 19.7203C35.8771 20.1048 35.8189 20.5697 35.7992 20.7531C35.766 21.0673 35.6001 21.8792 35.4583 22.4251L35.3121 23.0031C35.0364 24.116 34.3553 25.7014 33.5236 27.1681C33.194 27.7503 32.0889 29.3248 31.8803 29.5093C31.8614 29.5256 31.768 29.6358 31.6735 29.752C31.579 29.8695 31.2758 30.198 31.0013 30.4815C29.7917 31.7306 28.816 32.5029 27.1032 33.5666C26.9002 33.6928 25.1775 34.5343 24.8555 34.6651C24.6884 34.7321 24.4094 34.8451 24.2359 34.9154C24.0635 34.9849 23.8711 35.0431 23.8106 35.0443C23.7502 35.0451 23.591 35.0991 23.4568 35.1638C23.3229 35.2285 23.1525 35.2825 23.0768 35.2836C23.002 35.2847 22.7835 35.3376 22.5911 35.4012C22.399 35.4658 22.1318 35.5353 21.9977 35.5558C21.8638 35.5769 21.5772 35.634 21.3595 35.6824C21.1421 35.7308 20.4848 35.8253 19.9007 35.8922C18.5976 36.0442 17.2811 36.0413 15.9787 35.8835ZM17.3014 32.3679C17.3858 32.3021 17.4727 32.171 17.4957 32.079C17.5463 31.8757 25.7178 15.4937 25.8716 15.2884C26.0013 15.1149 26.0134 14.837 25.8947 14.7391C25.8323 14.6865 25.0498 14.6699 22.9613 14.6733C21.3947 14.6767 20.0776 14.6778 20.0346 14.6767C19.971 14.6744 19.9578 13.6276 19.9643 9.14394C19.9688 6.10166 19.9544 3.58475 19.9325 3.54987C19.9105 3.51444 19.8248 3.48603 19.7412 3.48603C19.6237 3.48603 19.5688 3.53666 19.4965 3.71328C19.3601 4.04178 18.9833 4.78766 17.1487 8.34969C16.7676 9.0889 16.3874 9.82859 16.0082 10.5687C15.6831 11.2049 15.1701 12.2037 14.87 12.7878C14.0622 14.3581 13.2562 15.9293 12.4518 17.5013C11.0644 20.2114 10.8965 20.5346 10.8368 20.606C10.7215 20.7455 10.6588 21.0673 10.7238 21.1882C10.7828 21.299 10.9007 21.3035 13.8296 21.299C15.5039 21.297 16.8848 21.3058 16.8992 21.3187C16.9377 21.3583 16.9234 31.8121 16.8837 32.0613C16.8576 32.225 16.875 32.3116 16.9498 32.3864C17.0792 32.5161 17.1146 32.515 17.3014 32.3679Z" fill="#049688"/>
</g>
<defs>
<clipPath id="clip0_436_298">
<rect width="36" height="36" fill="white"/>
</clipPath>
</defs>
</svg>
