<svg width="36" height="36" viewBox="0 0 36 36" fill="none" xmlns="http://www.w3.org/2000/svg">
<g clip-path="url(#clip0_436_237)">
<path d="M12.7968 36.2812C16.1437 36.2812 18.8437 33.5812 18.8437 30.2344V24.1875H12.7968C9.44994 24.1875 6.74994 26.8875 6.74994 30.2344C6.74994 33.5812 9.44994 36.2812 12.7968 36.2812Z" fill="#0ACF83"/>
<path d="M6.74994 18.1406C6.74994 14.7938 9.44994 12.0938 12.7968 12.0938H18.8437V24.1875H12.7968C9.44994 24.1875 6.74994 21.4875 6.74994 18.1406Z" fill="#A259FF"/>
<path d="M6.74994 6.04688C6.74994 2.7 9.44994 0 12.7968 0H18.8437V12.0938H12.7968C9.44994 12.0938 6.74994 9.39375 6.74994 6.04688Z" fill="#F24E1E"/>
<path d="M18.8437 0H24.8906C28.2374 0 30.9374 2.7 30.9374 6.04688C30.9374 9.39375 28.2374 12.0938 24.8906 12.0938H18.8437V0Z" fill="#FF7262"/>
<path d="M30.9374 18.1406C30.9374 21.4875 28.2374 24.1875 24.8906 24.1875C21.5437 24.1875 18.8437 21.4875 18.8437 18.1406C18.8437 14.7938 21.5437 12.0938 24.8906 12.0938C28.2374 12.0938 30.9374 14.7938 30.9374 18.1406Z" fill="#1ABCFE"/>
</g>
<defs>
<clipPath id="clip0_436_237">
<rect width="36" height="36" fill="white"/>
</clipPath>
</defs>
</svg>
