<svg width="36" height="36" viewBox="0 0 36 36" fill="none" xmlns="http://www.w3.org/2000/svg">
<g clip-path="url(#clip0_436_316)">
<path d="M4.91455 29.0464L9.34564 0.69247C9.37218 0.523019 9.45129 0.366188 9.57178 0.244129C9.69228 0.122069 9.84808 0.0409499 10.0172 0.0122287C10.1863 -0.0164925 10.3601 0.0086358 10.5142 0.0840645C10.6682 0.159493 10.7946 0.28141 10.8756 0.432595L15.4583 8.97978L17.2848 5.50185C17.3542 5.36992 17.4584 5.25947 17.586 5.18242C17.7136 5.10537 17.8599 5.06465 18.009 5.06465C18.1581 5.06465 18.3043 5.10537 18.432 5.18242C18.5596 5.25947 18.6638 5.36992 18.7332 5.50185L31.0998 29.0464H4.91455Z" fill="#FFA000"/>
<path d="M20.2227 18.0015L15.4561 8.97562L4.91455 29.0465L20.2227 18.0015Z" fill="#F57C00"/>
<path d="M31.0998 29.0464L27.7059 8.04487C27.6808 7.89686 27.6154 7.75862 27.517 7.64523C27.4186 7.53185 27.2909 7.44769 27.1479 7.40193C27.0049 7.35625 26.8522 7.35082 26.7063 7.38625C26.5604 7.42167 26.4271 7.49657 26.3211 7.60274L4.91455 29.0461L16.7594 35.6886C17.1252 35.8929 17.5372 36.0001 17.9561 36.0001C18.3751 36.0001 18.787 35.8929 19.1528 35.6886L31.0998 29.0464Z" fill="#FFCA28"/>
<path d="M27.706 8.04495C27.6808 7.89694 27.6155 7.7587 27.517 7.64531C27.4186 7.53193 27.291 7.44777 27.148 7.40201C27.005 7.35629 26.8523 7.35082 26.7064 7.38619C26.5605 7.42157 26.4272 7.49642 26.3211 7.60254L22.0723 11.8626L18.7313 5.50189C18.6619 5.36996 18.5577 5.25951 18.4301 5.18246C18.3024 5.10542 18.1562 5.06469 18.0071 5.06469C17.858 5.06469 17.7117 5.10542 17.5841 5.18246C17.4565 5.25951 17.3523 5.36996 17.2829 5.50189L15.4564 8.97954L10.8737 0.432636C10.7926 0.281243 10.666 0.159199 10.5117 0.0837876C10.3574 0.00837599 10.1832 -0.0165817 10.014 0.0124486C9.84474 0.0413503 9.68892 0.12278 9.56858 0.245195C9.44823 0.36761 9.36947 0.524799 9.34346 0.69448L4.91461 29.0464H4.90027L4.91433 29.0628L5.03105 29.1201L26.3149 7.81151C26.4211 7.7049 26.5545 7.62961 26.7007 7.5939C26.8468 7.5582 27 7.56346 27.1433 7.60912C27.2867 7.65478 27.4147 7.73907 27.5132 7.85272C27.6118 7.96637 27.6771 8.10499 27.702 8.25335L31.0672 29.0667L31.0998 29.0462L27.706 8.04495ZM4.95342 29.0076L9.34542 0.895011C9.37152 0.725289 9.45034 0.568075 9.57072 0.445622C9.6911 0.32317 9.84695 0.241684 10.0162 0.212699C10.1855 0.183736 10.3596 0.208756 10.5139 0.284215C10.6682 0.359674 10.7949 0.481751 10.876 0.633167L15.4581 9.18035L17.2848 5.70242C17.3543 5.57049 17.4584 5.46005 17.5861 5.383C17.7137 5.30595 17.86 5.26522 18.009 5.26522C18.1581 5.26522 18.3044 5.30595 18.432 5.383C18.5597 5.46005 18.6638 5.57049 18.7333 5.70242L22.0065 11.9279L4.95286 29.0076H4.95342Z" fill="white" fill-opacity="0.2"/>
<path opacity="0.2" d="M19.1528 35.4881C18.787 35.6924 18.375 35.7996 17.9561 35.7996C17.5371 35.7996 17.1251 35.6924 16.7593 35.4881L4.94263 28.8647L4.91394 29.0467L16.7588 35.687C17.1246 35.8912 17.5366 35.9984 17.9555 35.9984C18.3745 35.9984 18.7864 35.8912 19.1522 35.687L31.0997 29.0467L31.0688 28.8582L19.1522 35.4887L19.1528 35.4881Z" fill="#A52714"/>
</g>
<defs>
<clipPath id="clip0_436_316">
<rect width="36" height="36" fill="white"/>
</clipPath>
</defs>
</svg>
