<svg width="36" height="36" viewBox="0 0 36 36" fill="none" xmlns="http://www.w3.org/2000/svg">
<g clip-path="url(#clip0_436_322)">
<path d="M35.0823 16.4188L19.5809 0.91802C18.6888 0.0253328 17.2409 0.0253328 16.3474 0.91802L13.1288 4.13721L17.2119 8.2204C18.1612 7.90005 19.249 8.11493 20.0053 8.87121C20.7655 9.63227 20.9787 10.7294 20.6505 11.6817L24.5858 15.6173C25.5378 15.2891 26.6366 15.5011 27.3966 16.2627C28.4597 17.325 28.4597 19.0471 27.3966 20.11C27.1439 20.3627 26.844 20.5632 26.5138 20.7C26.1836 20.8368 25.8298 20.9072 25.4724 20.9072C25.115 20.9072 24.7611 20.8368 24.431 20.7C24.1008 20.5632 23.8009 20.3627 23.5482 20.11C23.1686 19.7301 22.9099 19.2465 22.8046 18.72C22.6992 18.1935 22.752 17.6475 22.9562 17.1509L19.2864 13.4812L19.2859 23.1396C19.5521 23.2707 19.7952 23.4444 20.0056 23.6537C21.0682 24.716 21.0682 26.4375 20.0056 27.5021C18.9428 28.5643 17.2201 28.5643 16.1584 27.5021C15.0958 26.4378 15.0958 24.7163 16.1584 23.6537C16.413 23.3987 16.7157 23.197 17.0491 23.0603V13.3124C16.7155 13.1761 16.4126 12.9742 16.1584 12.7187C15.3534 11.9143 15.1597 10.7331 15.5725 9.74421L11.547 5.71868L0.918004 16.3471C0.489187 16.7761 0.248291 17.3578 0.248291 17.9643C0.248291 18.5708 0.489187 19.1525 0.918004 19.5815L16.4197 35.0823C17.3123 35.975 18.7597 35.975 19.6538 35.0823L35.0826 19.6535C35.5113 19.2244 35.7521 18.6427 35.752 18.0361C35.752 17.4295 35.5111 16.8478 35.0823 16.4188Z" fill="#F34F29"/>
</g>
<defs>
<clipPath id="clip0_436_322">
<rect width="36" height="36" fill="white"/>
</clipPath>
</defs>
</svg>
