<svg width="24" height="24" viewBox="0 0 24 24" fill="none" xmlns="http://www.w3.org/2000/svg">
<g clip-path="url(#clip0_620_8896)">
<path d="M17.1965 15.5503C20.0183 14.0009 22.1575 12.8202 22.3419 12.7285C22.9318 12.4148 23.5409 11.5846 22.3419 10.9397C21.9548 10.7369 19.8706 9.59302 17.1965 8.11792L13.4895 11.8616L17.1965 15.5503Z" fill="#FFD900"/>
<path d="M13.4895 11.8617L1.68597 23.7579C1.96301 23.7946 2.27583 23.7212 2.6446 23.5184C3.41885 23.0946 11.6264 18.6125 17.1965 15.5513L13.4895 11.8617Z" fill="#F43249"/>
<path d="M13.4895 11.8617L17.1965 8.13636C17.1965 8.13636 3.47478 0.648046 2.64458 0.205884C2.33176 0.0205795 1.98134 -0.0344614 1.6676 0.0205795L13.4895 11.8617Z" fill="#00EE76"/>
<path d="M13.4895 11.8614L1.66759 0.0202637C1.18782 0.131263 0.782349 0.555078 0.782349 1.42197C0.782349 2.80533 0.782349 21.2119 0.782349 22.3559C0.782349 23.1494 1.09608 23.7209 1.68594 23.7759L13.4895 11.8614Z" fill="#00D3FF"/>
</g>
<defs>
<clipPath id="clip0_620_8896">
<rect width="23.8197" height="23.8197" fill="white"/>
</clipPath>
</defs>
</svg>
