<svg width="36" height="36" viewBox="0 0 36 36" fill="none" xmlns="http://www.w3.org/2000/svg">
<path d="M22.6688 11.3344H22.7813L22.725 11.2781L26.6625 7.34061V7.25623C23.3438 4.33123 18.7594 3.31873 14.5125 4.58436C10.2656 5.84998 7.00315 9.22498 5.8219 13.5C5.87815 13.4719 5.96252 13.4437 6.0469 13.4437C7.5094 12.4875 9.25315 11.925 11.0813 11.925C11.7 11.925 12.2906 11.9812 12.8813 12.0937C12.9094 12.0656 12.9375 12.0656 12.9656 12.0656C15.4969 9.28123 19.7719 8.94373 22.6969 11.3344H22.6688Z" fill="#EA4535"/>
<path d="M30.4032 13.4437C29.7563 11.0531 28.4063 8.88749 26.5219 7.22812L22.5 11.2219C24.1875 12.6 25.1719 14.6812 25.1157 16.8469V17.55C29.8688 17.55 29.8688 24.6375 25.1157 24.6375H17.9719V30.2625H17.9438L17.9719 30.3187H25.1157C29.2219 30.3469 32.85 27.7031 34.0594 23.8219C35.2688 19.9406 33.7782 15.7219 30.4032 13.4437Z" fill="#557EBF"/>
<path d="M10.9688 30.3469H18.3657V24.6656H10.9688C10.4344 24.6656 9.92817 24.5531 9.45005 24.3562L5.17505 28.4625V28.5187C6.86255 29.7281 8.88755 30.375 10.9969 30.375L10.9688 30.3469Z" fill="#36A852"/>
<path d="M11.3063 11.7844C7.11565 11.8125 3.40315 14.4 2.05315 18.1969C0.70315 22.0219 2.05315 26.2125 5.3719 28.6875L9.7594 24.4969C7.34065 23.4563 6.77815 20.4188 8.6344 18.6469C10.4906 16.8469 13.6406 17.4094 14.7375 19.7156L19.125 15.525C17.2688 13.1906 14.3719 11.8125 11.3063 11.8406V11.7844Z" fill="#F9BC15"/>
</svg>
