<svg width="36" height="36" viewBox="0 0 36 36" fill="none" xmlns="http://www.w3.org/2000/svg">
<path d="M5.35425 32.0276L2.54034 0.467133H33.4598L30.6428 32.0228L17.9813 35.5328L5.35425 32.0276Z" fill="#E44D26"/>
<path d="M18.0001 32.85L28.2314 30.0133L30.6387 3.04761H18.0001V32.85Z" fill="#F16529"/>
<path d="M18.0001 14.753H12.878L12.5242 10.7891H18.0001V6.91853H8.29388L8.3867 7.95691L9.33788 18.6239H18.0001V14.753ZM18.0001 24.8058L17.9829 24.8105L13.6722 23.6462L13.3969 20.5594H9.51085L10.0531 26.637L17.9824 28.838L18.0001 28.8333V24.8058Z" fill="#EBEBEB"/>
<path d="M17.9867 14.753V18.6239H22.753L22.3039 23.6439L17.9867 24.8091V28.8363L25.9222 26.637L25.9804 25.9831L26.8899 15.7925L26.9842 14.753H25.9413H17.9867ZM17.9867 6.91853V10.7891H27.3366L27.4142 9.91947L27.5908 7.95691L27.6834 6.91853H17.9867Z" fill="white"/>
</svg>
