<svg width="36" height="36" viewBox="0 0 36 36" fill="none" xmlns="http://www.w3.org/2000/svg">
<g clip-path="url(#clip0_436_154)">
<path d="M0.395996 0.395996H35.604V35.6043H0.395996V0.395996Z" fill="#F0DB4F"/>
<path d="M32.7226 27.207C32.4647 25.6008 31.4173 24.2516 28.3148 22.9936C27.2371 22.4983 26.0356 22.1437 25.6775 21.3269C25.5504 20.8516 25.5335 20.5838 25.614 20.2961C25.8449 19.3624 26.9595 19.0713 27.8429 19.339C28.4118 19.5297 28.9504 19.9682 29.2753 20.6677C30.7946 19.6838 30.7915 19.6903 31.8524 19.0142C31.464 18.412 31.2567 18.1342 31.0024 17.8765C30.0887 16.8559 28.8436 16.3302 26.8523 16.3704L25.8151 16.5046C24.8211 16.7557 23.8739 17.2775 23.3184 17.9769C21.6517 19.8681 22.127 23.1778 24.1551 24.5399C26.1531 26.0395 29.0883 26.3807 29.4632 27.783C29.8279 29.4997 28.2015 30.0555 26.5848 29.8581C25.3935 29.6103 24.7308 29.0047 24.0145 27.9037C22.696 28.6667 22.696 28.6667 21.3404 29.4463C21.6618 30.1492 21.9996 30.4672 22.5385 31.0762C25.0889 33.6631 31.471 33.536 32.6157 29.6204C32.6621 29.486 32.9703 28.5893 32.7226 27.207ZM19.5362 16.5777H16.243L16.2295 25.0917C16.2295 26.9024 16.3232 28.5623 16.0287 29.0711C15.5469 30.0718 14.2984 29.9478 13.7295 29.7537C13.1504 29.4691 12.8559 29.0644 12.5148 28.4923C12.4211 28.3281 12.3508 28.2009 12.3272 28.1911L9.64966 29.8308C10.0949 30.7446 10.7508 31.5377 11.5908 32.0529C12.8458 32.8061 14.5324 33.037 16.2964 32.632C17.4445 32.2976 18.4351 31.6049 18.9537 30.5505C19.7035 29.1682 19.5426 27.495 19.5359 25.6444C19.5528 22.6252 19.5362 19.6065 19.5362 16.5777Z" fill="#323330"/>
</g>
<defs>
<clipPath id="clip0_436_154">
<rect width="36" height="36" fill="white"/>
</clipPath>
</defs>
</svg>
