<svg width="36" height="36" viewBox="0 0 36 36" fill="none" xmlns="http://www.w3.org/2000/svg">
<path d="M13.3923 27.5962C13.3923 27.5962 12.0516 28.3764 14.3477 28.6396C17.1298 28.9575 18.5516 28.9119 21.6166 28.3325C21.6166 28.3325 22.4241 28.8374 23.5496 29.275C16.6762 32.2197 7.99427 29.1043 13.3923 27.5962ZM12.5519 23.7529C12.5519 23.7529 11.0478 24.8664 13.3459 25.1043C16.3179 25.4112 18.6643 25.4362 22.7267 24.6543C22.7267 24.6543 23.2872 25.2239 24.1701 25.5349C15.8614 27.9649 6.60715 25.7262 12.5519 23.7529Z" fill="#0074BD"/>
<path d="M19.6318 17.2325C21.3264 19.183 19.1875 20.9366 19.1875 20.9366C19.1875 20.9366 23.4875 18.7172 21.5131 15.9368C19.6684 13.3451 18.2543 12.0578 25.9105 7.61743C25.9105 7.61771 13.8924 10.6184 19.6318 17.2325Z" fill="#EA2D2E"/>
<path d="M28.7221 30.4395C28.7221 30.4395 29.7146 31.2579 27.6286 31.8904C23.6624 33.0919 11.1176 33.4542 7.63343 31.9385C6.38159 31.3935 8.73002 30.6377 9.46887 30.4783C10.2392 30.3115 10.6791 30.3419 10.6791 30.3419C9.28605 29.3612 1.67543 32.2684 6.81387 33.1023C20.826 35.3737 32.3561 32.0794 28.7221 30.4395ZM14.0378 19.7702C14.0378 19.7702 7.65734 21.2859 11.7785 21.8369C13.5189 22.0697 16.9867 22.0163 20.2191 21.7452C22.86 21.5233 25.5102 21.0494 25.5102 21.0494C25.5102 21.0494 24.5799 21.4485 23.906 21.908C17.4254 23.6127 4.90924 22.8187 8.5129 21.0761C11.5594 19.6026 14.0378 19.7702 14.0378 19.7702ZM25.4838 26.1678C32.071 22.7459 29.025 19.4572 26.8991 19.9002C26.3793 20.0085 26.1461 20.1027 26.1461 20.1027C26.1461 20.1027 26.3396 19.7992 26.7086 19.6687C30.9142 18.1907 34.148 24.0289 25.3522 26.3414C25.3522 26.3408 25.4531 26.2494 25.4838 26.1678Z" fill="#0074BD"/>
<path d="M21.5131 0.446411C21.5131 0.446411 25.1604 4.09591 18.0529 9.706C12.3531 14.2077 16.7532 16.7738 18.0509 19.707C14.7235 16.7052 12.2828 14.0623 13.9199 11.6028C16.324 7.99319 22.9843 6.24241 21.5131 0.446411Z" fill="#EA2D2E"/>
<path d="M14.6852 35.4434C21.0066 35.8476 30.7165 35.2184 30.9462 32.2271C30.9462 32.2271 30.5044 33.3611 25.7215 34.2608C20.3254 35.2766 13.6688 35.1582 9.72198 34.5066C9.72198 34.5069 10.5306 35.1762 14.6852 35.4434Z" fill="#0074BD"/>
</svg>
