<svg width="36" height="36" viewBox="0 0 36 36" fill="none" xmlns="http://www.w3.org/2000/svg">
<g clip-path="url(#clip0_436_304)">
<path d="M34.9114 17.7243C34.9114 15.561 33.2722 13.7404 31.0717 13.221L36.0001 0.0317383H11.5763L16.5159 13.2626C14.3846 13.824 12.8135 15.6127 12.8135 17.7353C12.8135 19.2951 13.6736 20.6783 14.98 21.5311C14.4648 22.1968 13.8682 22.8107 13.1924 23.3929C11.9203 24.4752 10.5095 25.3068 8.98572 25.8584C7.61041 25.0157 7.01472 23.5282 7.55304 22.1965C9.65032 21.6143 11.1755 19.8357 11.1755 17.7451C11.1755 15.1765 8.87154 13.0955 6.05116 13.0955C3.2201 13.0955 0.917504 15.1863 0.917504 17.7558C0.917504 19.0251 1.48985 20.1895 2.40729 21.0211C2.32685 21.1674 2.24697 21.3122 2.16654 21.4683C1.39872 22.9044 0.52741 24.5269 0.19441 26.3475C-0.470184 29.9871 0.618535 32.9107 3.24316 34.5642C4.72197 35.4903 6.35013 35.9583 8.10372 35.9583C11.117 35.9583 14.1779 34.585 17.1344 33.2533C19.2438 32.3074 21.4212 31.3186 23.5646 30.8407C24.3558 30.6638 25.1807 30.5595 26.052 30.4453C27.8163 30.2166 29.639 29.9773 31.2782 29.1138C33.1921 28.1053 34.4985 26.4197 34.8773 24.4853C35.1628 22.9975 34.8773 21.5001 34.1433 20.1895C34.6447 19.4653 34.9129 18.6051 34.9114 17.7243ZM32.6768 17.7243C32.6768 19.17 31.3814 20.3456 29.7884 20.3456C28.1954 20.3456 26.8999 19.17 26.8999 17.7243C26.8999 17.2561 27.0375 16.8091 27.2779 16.4244C27.3694 16.2781 27.4847 16.1333 27.5986 16.0081C27.7193 15.8794 27.8539 15.7644 27.9999 15.6653L28.012 15.6543C28.1031 15.5919 28.2064 15.5292 28.3096 15.4676C28.3096 15.4676 28.3208 15.4676 28.3208 15.4566C28.3667 15.4358 28.4128 15.4049 28.4592 15.3841C28.4702 15.3841 28.4811 15.3731 28.4929 15.3731C28.5394 15.3534 28.5964 15.3326 28.6533 15.3115C28.7075 15.2926 28.7611 15.2717 28.8138 15.2491C28.8251 15.2491 28.8369 15.2378 28.8479 15.2378C28.894 15.2282 28.9401 15.2071 28.9854 15.1973C28.9975 15.1973 29.0206 15.1863 29.0315 15.1863C29.0886 15.1765 29.1348 15.1655 29.1919 15.1554H29.2039L29.3755 15.1236C29.3873 15.1236 29.4093 15.1236 29.4214 15.1138C29.4675 15.1138 29.5128 15.1028 29.5589 15.1028H29.616C29.6731 15.1028 29.7313 15.093 29.7994 15.093H29.9487C29.9937 15.093 30.0291 15.093 30.0741 15.1028H30.0972C30.1894 15.1141 30.2806 15.1236 30.3728 15.1447C31.6792 15.3939 32.6768 16.4553 32.6768 17.7243ZM14.7733 2.11158H32.802L28.6645 13.1892C28.4929 13.221 28.3205 13.2724 28.1493 13.3242L23.7944 5.26355L19.4271 13.2721C19.2547 13.2207 19.0714 13.1889 18.8888 13.158L14.7733 2.11158ZM22.9681 16.8187C22.7507 15.8408 22.2003 14.9675 21.4212 14.3226L23.7944 9.97533L26.1892 14.416C25.4785 15.0609 24.963 15.8827 24.7565 16.8187H22.9681ZM17.2266 15.1762C17.2837 15.165 17.3298 15.1554 17.3869 15.1444H17.421C17.4671 15.1346 17.5135 15.1346 17.5585 15.1233H17.6046C17.6508 15.1233 17.6848 15.1135 17.7309 15.1135H18.1781C18.2231 15.1135 18.2583 15.1233 18.2923 15.1233C18.3153 15.1233 18.3263 15.1233 18.3494 15.1346C18.3955 15.1444 18.4295 15.1444 18.4759 15.1554C18.4866 15.1554 18.4987 15.1554 18.5218 15.1652C18.5792 15.1762 18.6363 15.1861 18.6821 15.197H18.6933C18.7395 15.2069 18.7856 15.2167 18.8306 15.2378C18.8427 15.2378 18.8537 15.2488 18.8767 15.2488C18.9108 15.2586 18.9569 15.2696 18.9909 15.2904C19.003 15.2904 19.014 15.3002 19.0261 15.3002C19.0711 15.3213 19.1175 15.3323 19.1636 15.3531H19.1746C19.2317 15.3728 19.2778 15.3936 19.3239 15.4257H19.3352C19.381 15.4465 19.4271 15.4771 19.4733 15.498C19.4845 15.498 19.4845 15.5092 19.4952 15.5092C19.5413 15.5289 19.5756 15.5607 19.6218 15.5815L19.6338 15.5913C19.7711 15.685 19.8974 15.7893 20.0225 15.8937L20.0346 15.9035C20.1491 16.0177 20.2633 16.1429 20.3555 16.2781C20.6534 16.6944 20.8258 17.1835 20.8258 17.7139C20.8258 19.1598 19.5303 20.3343 17.9373 20.3343C16.3443 20.3343 15.0489 19.1598 15.0489 17.7139C15.0371 16.4967 15.9655 15.4673 17.2266 15.1762ZM5.94794 15.1025C7.54122 15.1025 8.83638 16.2781 8.83638 17.7238C8.83638 19.1697 7.54122 20.345 5.94794 20.345C4.35494 20.345 3.0595 19.1697 3.0595 17.7238C3.0595 16.2781 4.35494 15.1025 5.94794 15.1025ZM32.6076 24.1214C32.3559 25.4517 31.4494 26.6175 30.1203 27.3138C28.8709 27.9697 27.335 28.1773 25.719 28.3851C24.837 28.4993 23.9086 28.6245 23.0142 28.8222C20.6303 29.3529 18.3384 30.3932 16.1148 31.3908C13.2725 32.6708 10.5897 33.8771 8.10372 33.8771C6.80829 33.8771 5.65038 33.5444 4.55069 32.8477C2.02929 31.2668 2.15444 28.3027 2.45341 26.6799C2.72791 25.1606 3.496 23.7358 4.22979 22.3734C4.27479 22.2899 4.30994 22.2173 4.35494 22.1338C4.60779 22.2173 4.87132 22.28 5.1461 22.3216C4.711 24.5266 5.94794 26.8042 8.35516 27.9281L8.7911 28.1356L9.2605 27.9796C11.2667 27.3346 13.1232 26.2845 14.7623 24.8802C15.6907 24.0893 16.4819 23.2368 17.1465 22.3107C17.41 22.3526 17.6738 22.3636 17.9373 22.3636C20.3215 22.3636 22.3265 20.8757 22.9 18.8786H24.8249C25.3983 20.8859 27.4042 22.3633 29.7884 22.3633C30.7399 22.3633 31.6221 22.1242 32.3779 21.7186C32.6768 22.4986 32.7679 23.3094 32.6076 24.1214Z" fill="#99425B"/>
</g>
<defs>
<clipPath id="clip0_436_304">
<rect width="36" height="36" fill="white"/>
</clipPath>
</defs>
</svg>
