<svg width="36" height="36" viewBox="0 0 36 36" fill="none" xmlns="http://www.w3.org/2000/svg">
<g clip-path="url(#clip0_436_334)">
<path d="M18.0823 0.120896C13.6554 0.0365206 9.4322 1.20511 5.81898 4.5458C-1.74243 11.5394 -1.96771 23.5133 5.33579 30.7651C6.65035 32.0703 8.21495 33.278 9.93282 34.0135C10.3814 32.5046 10.2942 30.6832 10.1522 28.8928C10.1179 28.8573 10.0827 28.8225 10.0566 28.7831C9.57676 28.0679 9.93282 26.2001 9.93282 25.3504C12.952 25.8856 15.411 27.5464 18.6431 26.5817C21.8061 25.6379 23.1243 21.0763 20.3357 18.9171C18.6519 17.6121 16.1535 17.7901 14.1673 18.0295C12.9748 18.1735 11.4853 18.6139 10.6618 17.3452C10.1758 16.5985 10.6776 14.7659 10.7591 13.921C10.7794 13.7081 10.8016 13.4912 10.8227 13.2775C11.0342 10.654 11.3852 8.00236 11.3852 5.37718H24.2082V0.926677C22.1495 0.456427 20.0947 0.160271 18.0823 0.120896Z" fill="#DC514A"/>
<path d="M24.1046 0.918525V8.75246H14.7741L14.2893 14.7777C16.3598 14.6154 18.2793 14.2501 20.3485 14.7363C21.7668 15.0705 23.0983 15.7404 24.0835 16.8271C26.8324 19.8568 26.2913 25.5436 23.1351 28.0988C22.2469 28.818 21.2322 29.2905 20.1606 29.5942C19.1712 29.9106 18.1773 30.0442 17.1797 30.0538C16.8224 30.0732 16.4647 30.0832 16.107 30.0839C14.5533 30.0839 12.9994 29.8819 11.5021 29.4629C11.1213 29.356 10.5323 29.2078 10.1622 28.9305C10.0834 28.9136 10.005 28.8956 9.9265 28.8784L9.80585 33.9404C19.4223 39.0394 31.673 33.5837 35.122 23.5763C38.038 15.1191 33.5223 3.13787 24.1049 0.918243L24.1046 0.918525Z" fill="#23A161"/>
</g>
<defs>
<clipPath id="clip0_436_334">
<rect width="36" height="36" fill="white"/>
</clipPath>
</defs>
</svg>
