<svg width="36" height="36" viewBox="0 0 36 36" fill="none" xmlns="http://www.w3.org/2000/svg">
<g clip-path="url(#clip0_436_337)">
<path d="M17.8752 0.53776C17.5571 0.553906 17.2453 0.632887 16.9584 0.770072L4.44245 6.75001C4.11854 6.90471 3.83393 7.1298 3.60976 7.40855C3.38559 7.68731 3.22762 8.01256 3.14757 8.36017L0.0602934 21.7927C-0.010984 22.1021 -0.0189605 22.4226 0.0368359 22.7351C0.0926323 23.0477 0.211068 23.346 0.385137 23.6124C0.427375 23.6775 0.472805 23.7406 0.521262 23.8014L9.18376 34.5721C9.40799 34.8508 9.69264 35.0758 10.0166 35.2305C10.3405 35.3851 10.6954 35.4654 11.0549 35.4654L24.947 35.462C25.3064 35.4622 25.6612 35.3822 25.9851 35.2279C26.309 35.0735 26.5937 34.8488 26.8181 34.5704L35.4775 23.7983C35.7019 23.5194 35.86 23.1941 35.9401 22.8463C36.0202 22.4985 36.0202 22.1373 35.9402 21.7896L32.8476 8.35707C32.7676 8.00942 32.6096 7.6841 32.3854 7.4053C32.1613 7.1265 31.8766 6.90137 31.5527 6.74664L19.0357 0.770072C18.6746 0.597484 18.2756 0.517603 17.8752 0.53776Z" fill="#326CE5"/>
<path d="M17.9929 5.10271V5.10552C17.5789 5.10946 17.2436 5.48127 17.2436 5.94139C17.2436 5.94927 17.2451 5.95602 17.2451 5.96221C17.2445 6.02464 17.2417 6.10002 17.2436 6.15458C17.2535 6.42064 17.3111 6.62371 17.3463 6.86755C17.3941 7.26693 17.4068 7.58389 17.4093 7.90452L17.4194 7.85839C17.4149 7.63368 17.4039 7.40915 17.3862 7.18508C17.4253 7.53046 17.4537 7.84996 17.4386 8.13908C17.4343 8.04768 17.4214 7.94868 17.42 7.86289L17.4099 7.90902C17.4107 8.00661 17.4369 8.13121 17.4293 8.22486C17.4121 8.30643 17.3474 8.36408 17.2979 8.43355L17.2909 8.46758C17.3396 8.40374 17.3905 8.34271 17.4203 8.27099C17.3826 8.38996 17.3021 8.49486 17.2214 8.57868C17.2439 8.5438 17.2625 8.50499 17.2889 8.47039L17.2962 8.43664C17.2555 8.49374 17.2324 8.56518 17.188 8.60821L17.1863 8.60989L17.1683 8.92489C16.7143 8.96232 16.2635 9.03149 15.8191 9.1319C13.9462 9.55523 12.2423 10.5282 10.9259 11.9261C10.8427 11.8693 10.7009 11.7686 10.6587 11.7371L10.6573 11.7357L10.6545 11.7363C10.5201 11.7543 10.3873 11.7945 10.213 11.6932C9.87912 11.4682 9.57424 11.1569 9.20496 10.782C9.03593 10.6028 8.91331 10.4316 8.71165 10.2586C8.66581 10.2189 8.59634 10.1658 8.54515 10.1256C8.39557 10.0049 8.21122 9.93538 8.01921 9.92727C7.78718 9.91939 7.56359 10.01 7.41734 10.1936C7.15718 10.5199 7.24071 11.0185 7.6024 11.3074L7.61365 11.3147C7.66259 11.3549 7.72334 11.4064 7.7689 11.4401C7.98321 11.5979 8.17868 11.6789 8.39046 11.8038C8.83877 12.0805 9.2089 12.3095 9.50309 12.5854C9.61615 12.7055 9.6364 12.9201 9.65215 13.0143V13.0165L9.89037 13.2286C8.60759 15.1619 8.01302 17.5486 8.36262 19.9803L8.0524 20.0714L8.05127 20.0731C7.96831 20.1802 7.85102 20.3465 7.73206 20.3957C7.34787 20.5166 6.91418 20.5611 6.39049 20.6159C6.14524 20.6364 5.93318 20.6246 5.67162 20.6741C5.61396 20.6854 5.5338 20.7056 5.47109 20.7202L5.46462 20.7219L5.45337 20.725C5.00899 20.8327 4.72212 21.2417 4.81493 21.6453C4.9069 22.0489 5.34171 22.2938 5.78918 22.1974L5.80015 22.1957H5.80071C5.80634 22.1943 5.8114 22.1915 5.81477 22.1906C5.87665 22.1771 5.95427 22.1622 6.00884 22.1473C6.26562 22.0784 6.45152 21.9777 6.68187 21.8897C7.17687 21.7119 7.58693 21.5634 7.98602 21.5058C8.14971 21.4928 8.32465 21.6076 8.41268 21.6568L8.41493 21.6579L8.73893 21.6025C9.49099 23.9296 11.0637 25.81 13.055 26.9918L12.92 27.3158L12.9208 27.3186C12.9698 27.4452 13.0232 27.6159 12.9875 27.7383C12.8424 28.114 12.5937 28.5114 12.3102 28.955C12.173 29.1597 12.0318 29.3192 11.9081 29.5543C11.878 29.6108 11.8406 29.6969 11.8119 29.756C11.6178 30.1708 11.7601 30.6495 12.1333 30.8292C12.5088 31.0101 12.9743 30.8191 13.1759 30.4037L13.1779 30.4014V30.3986C13.206 30.3404 13.246 30.2642 13.2704 30.2091C13.3767 29.9655 13.4125 29.7571 13.487 29.5225H13.4861C13.6847 29.0239 13.7938 28.5024 14.0652 28.1787C14.1384 28.0915 14.2587 28.0572 14.3847 28.0235L14.3876 28.0223L14.5563 27.7175C16.7781 28.5718 19.2366 28.578 21.4627 27.7349C21.5111 27.8201 21.5971 27.9782 21.621 28.019L21.6221 28.0206L21.6244 28.0218C21.7532 28.0637 21.891 28.0845 22.0041 28.2513C22.2071 28.5992 22.3466 29.0115 22.5165 29.5099C22.5911 29.7439 22.6282 29.9528 22.7345 30.1964C22.759 30.2526 22.7992 30.33 22.8273 30.3888C23.0284 30.8056 23.4953 30.9971 23.8716 30.8163C24.2445 30.6363 24.3868 30.1581 24.1931 29.7433C24.1644 29.6842 24.1247 29.5976 24.0952 29.5411C23.9711 29.306 23.83 29.1482 23.693 28.9434C23.4089 28.4999 23.1746 28.132 23.0292 27.756C22.9693 27.5633 23.0394 27.4455 23.0872 27.3186L23.0889 27.3147L23.0861 27.3119C23.0758 27.2972 23.0673 27.2813 23.0607 27.2646C23.0488 27.2377 23.0376 27.2105 23.027 27.1831C23.0045 27.124 22.982 27.0588 22.964 27.0155C25.0334 25.792 26.5601 23.8416 27.2784 21.5887C27.376 21.6039 27.5399 21.6323 27.5934 21.643L27.5962 21.6436L27.5987 21.6425C27.7118 21.5679 27.8125 21.472 28.0136 21.4881C28.4126 21.5457 28.8224 21.6945 29.318 21.8722C29.5478 21.96 29.734 22.0626 29.991 22.1313C30.0456 22.1459 30.1232 22.1597 30.1851 22.1732C30.1885 22.174 30.1932 22.1766 30.1991 22.178H30.1997L30.211 22.1791C30.6581 22.275 31.0932 22.0306 31.1852 21.627C31.2772 21.2234 30.9909 20.8147 30.5462 20.7076C30.4824 20.693 30.3912 20.6679 30.3282 20.6558C30.0667 20.6063 29.8549 20.6187 29.6091 20.5982C29.086 20.5433 28.6523 20.4989 28.2675 20.378C28.1137 20.3181 28.0026 20.1327 27.9475 20.0551L27.9458 20.0534L27.646 19.9662C27.8061 18.8015 27.7527 17.6173 27.4885 16.4717C27.2235 15.3146 26.7485 14.2159 26.087 13.2303C26.1652 13.1594 26.3078 13.0331 26.3491 12.9951L26.3511 12.9935V12.9906C26.3635 12.8556 26.3528 12.7178 26.4903 12.5705C26.7842 12.2948 27.1552 12.0651 27.6032 11.7889C27.8153 11.664 28.0121 11.5833 28.2259 11.4252C28.2748 11.3892 28.3406 11.333 28.3913 11.2922C28.753 11.0036 28.8368 10.5052 28.5763 10.1787C28.3162 9.85246 27.8119 9.82236 27.4505 10.1106C27.3993 10.1514 27.3296 10.204 27.2834 10.2437C27.0818 10.4175 26.9572 10.5885 26.7884 10.7676C26.4191 11.1431 26.114 11.4556 25.7799 11.6806C25.6373 11.7633 25.4261 11.7349 25.329 11.729H25.3268L25.0444 11.9312C23.4202 10.2302 21.211 9.1423 18.8316 8.92968C18.8246 8.81967 18.8186 8.7096 18.8136 8.59949V8.59724L18.8119 8.59555C18.7135 8.50189 18.5981 8.42399 18.5689 8.22486V8.2243C18.5366 7.82268 18.5906 7.38983 18.6533 6.86755C18.6884 6.62371 18.7466 6.42036 18.7562 6.15458C18.7587 6.09383 18.7548 6.00636 18.7548 5.94139C18.7548 5.47874 18.4165 5.10271 17.9988 5.10271H17.9929ZM8.09993 9.94977C8.13987 9.95539 8.17868 9.96327 8.21749 9.97396C8.17889 9.96326 8.13962 9.95518 8.09993 9.94977ZM17.0544 10.9271L16.833 14.8449L16.817 14.8531L16.8164 14.8567C16.8159 14.8708 16.8125 14.8835 16.8108 14.897C16.8019 14.9813 16.7767 15.0631 16.7368 15.138C16.7261 15.1577 16.7155 15.1776 16.7028 15.1962C16.6516 15.2709 16.5855 15.3343 16.5087 15.3824C16.4891 15.3951 16.4674 15.4049 16.4463 15.4156C16.3693 15.4524 16.286 15.474 16.2008 15.4791C16.1881 15.48 16.176 15.4831 16.1634 15.4831C16.1493 15.4831 16.1369 15.4769 16.1231 15.4758C16.0296 15.4666 15.9392 15.4374 15.8579 15.3903C15.8453 15.383 15.8315 15.3787 15.8194 15.3709L15.8177 15.3771L15.8188 15.3709C15.8065 15.3633 15.7901 15.3664 15.7783 15.3576L15.775 15.3548L15.7688 15.3588L12.5566 13.0815C12.5828 13.0559 12.6106 13.0326 12.6373 13.0072C12.9209 12.7375 13.2246 12.4898 13.5458 12.2661C13.6124 12.2197 13.6788 12.1728 13.7469 12.1283C14.0886 11.9055 14.4475 11.71 14.8201 11.5439C14.8876 11.5138 14.9571 11.4865 15.0254 11.4581C15.3944 11.3059 15.7747 11.1825 16.1628 11.0891C16.1966 11.0807 16.2297 11.0703 16.2641 11.0627C16.4261 11.0261 16.5909 11.0047 16.7548 10.9786L16.7565 10.9716C16.7569 10.9716 16.7573 10.9716 16.7576 10.9716L16.756 10.9786C16.8558 10.9628 16.9542 10.9392 17.0544 10.9271ZM18.9461 10.9277C19.0015 10.9344 19.0557 10.9468 19.1109 10.955C19.4105 10.9991 19.7072 11.0607 19.9996 11.1395C20.1155 11.1707 20.2302 11.2041 20.3441 11.2407C20.6347 11.3334 20.9195 11.4431 21.1972 11.5692C21.3026 11.617 21.4067 11.6671 21.5099 11.7197C21.7843 11.8596 22.05 12.0157 22.3059 12.1871C22.4026 12.2518 22.4971 12.3193 22.5913 12.3888C22.8365 12.5693 23.0709 12.7641 23.2933 12.9721C23.3338 13.0098 23.3769 13.0444 23.4165 13.0832L20.2255 15.3456L20.2142 15.3413L20.2114 15.3436C20.1987 15.3526 20.185 15.3562 20.172 15.3644C20.0965 15.4121 20.0121 15.4441 19.924 15.4583C19.9023 15.4617 19.8809 15.4668 19.8593 15.4676C19.764 15.4714 19.669 15.4545 19.5808 15.4181C19.5553 15.4078 19.5304 15.3959 19.5063 15.3824C19.4242 15.337 19.3527 15.2747 19.2965 15.1996C19.2824 15.1802 19.2717 15.1585 19.2599 15.1377C19.2165 15.0608 19.189 14.976 19.1789 14.8882C19.1772 14.8728 19.1716 14.8593 19.1705 14.8435V14.8404L19.1674 14.8387L18.9461 10.9277ZM11.3793 14.5597L14.3127 17.1832L14.3094 17.199L14.3122 17.2012C14.5766 17.431 14.6131 17.8284 14.3946 18.1021C14.3867 18.1119 14.3755 18.1181 14.367 18.1274C14.2917 18.211 14.1962 18.2739 14.0897 18.3102C14.0776 18.3144 14.0678 18.3223 14.0557 18.3257L14.0517 18.3262L14.0484 18.3395L10.2889 19.4251C10.2833 19.3731 10.2833 19.321 10.2785 19.269C10.2507 18.9563 10.2421 18.6422 10.2526 18.3285C10.2563 18.2196 10.2619 18.1111 10.2703 18.0028C10.2943 17.6904 10.3372 17.3798 10.3989 17.0727C10.4214 16.9582 10.4475 16.8443 10.4756 16.731C10.5505 16.4292 10.6434 16.1322 10.7541 15.8417C10.7935 15.7376 10.8356 15.6352 10.8801 15.5331C11.0044 15.2447 11.1462 14.9642 11.3048 14.6931C11.3301 14.6492 11.3526 14.6031 11.3793 14.5597ZM24.5986 14.5617C24.6259 14.6061 24.6481 14.6528 24.6746 14.6976C24.835 14.9707 24.9787 15.2535 25.1049 15.5441C25.1471 15.6414 25.1887 15.7393 25.2269 15.8383C25.3435 16.1402 25.4412 16.449 25.5194 16.7631C25.5321 16.8123 25.5487 16.8604 25.5599 16.9101C25.754 17.7545 25.8018 18.5974 25.7225 19.4121L21.9442 18.3237L21.9411 18.3077L21.9371 18.3066C21.9245 18.3032 21.9135 18.297 21.9014 18.2928C21.8197 18.265 21.7442 18.2216 21.6792 18.1648C21.6629 18.1502 21.6466 18.1358 21.6314 18.1198C21.57 18.0529 21.5229 17.974 21.4933 17.8881C21.4857 17.8661 21.481 17.8436 21.4756 17.8208C21.4568 17.7385 21.4539 17.6534 21.4672 17.57C21.4697 17.5562 21.47 17.543 21.4728 17.5292C21.4756 17.5165 21.4835 17.5056 21.4869 17.4929C21.5184 17.3868 21.5764 17.2904 21.6553 17.2128C21.6649 17.2035 21.6705 17.1914 21.6806 17.1827L21.6835 17.1799L21.6818 17.1714L24.5986 14.5617ZM27.194 15.4912C27.2874 15.7626 27.3681 16.0383 27.437 16.3176C27.3683 16.0387 27.2872 15.7629 27.194 15.4912ZM17.3997 17.3902H18.5984L19.3437 18.3223L19.0766 19.4847L17.9994 20.0022L16.9202 19.4825L16.6522 18.3203L17.3997 17.3902ZM21.2605 20.5951C21.3111 20.5923 21.3609 20.5973 21.4104 20.6063L21.4143 20.6072L21.4208 20.5987L25.3099 21.2563C25.2919 21.3069 25.2686 21.355 25.2494 21.4054C25.139 21.6951 25.0113 21.9779 24.8669 22.2522C24.8135 22.3543 24.7584 22.455 24.7001 22.5543C24.5423 22.8241 24.3683 23.0841 24.179 23.3328C24.1106 23.4228 24.0406 23.5108 23.9686 23.5974C23.768 23.8383 23.5529 24.0667 23.3246 24.2814C23.243 24.3585 23.1592 24.4333 23.0737 24.5064C22.8378 24.7098 22.5899 24.8988 22.3312 25.0723C22.2862 25.1024 22.244 25.1356 22.1987 25.1648L20.6898 21.5179L20.694 21.5117L20.6929 21.5086C20.6873 21.4959 20.6856 21.4827 20.6808 21.4701C20.6522 21.3899 20.6393 21.305 20.6428 21.22C20.644 21.1972 20.6445 21.1745 20.6479 21.152C20.6618 21.063 20.6938 20.9778 20.7418 20.9016C20.7545 20.8814 20.7694 20.8631 20.784 20.8443C20.8368 20.7784 20.9017 20.7232 20.9753 20.6817C20.9874 20.675 20.9975 20.6662 21.0099 20.6603C21.0911 20.6212 21.1761 20.599 21.2605 20.5951ZM14.7045 20.6108L14.7082 20.6114C14.7166 20.6114 14.7251 20.6136 14.7341 20.6142C14.8585 20.6225 14.978 20.6659 15.0789 20.7394C15.0986 20.7534 15.1163 20.7678 15.134 20.7838C15.2266 20.8671 15.2938 20.975 15.3278 21.0949C15.33 21.1033 15.334 21.1115 15.3362 21.1202C15.3671 21.2549 15.3545 21.3958 15.2996 21.5226L15.2982 21.526L15.3095 21.5401L13.8161 25.1505C13.7725 25.1224 13.7317 25.0909 13.6892 25.0619C13.4306 24.8884 13.1826 24.6996 12.9467 24.4963C12.8615 24.4229 12.778 24.3476 12.6961 24.2705C12.4697 24.0577 12.2564 23.8315 12.0571 23.5932C11.984 23.5055 11.9128 23.4163 11.8434 23.3257C11.6579 23.0826 11.487 22.8286 11.3315 22.5652C11.2702 22.4614 11.2114 22.356 11.1551 22.2494C11.0128 21.9808 10.8864 21.704 10.7766 21.4206C10.7569 21.3696 10.7333 21.3204 10.7147 21.269L14.5698 20.6148L14.5763 20.6232L14.5802 20.6218C14.6216 20.6142 14.6626 20.6106 14.7045 20.6108ZM15.3503 21.3694C15.3442 21.4076 15.3348 21.4453 15.3221 21.4819C15.3351 21.4453 15.3438 21.4076 15.3503 21.3694ZM17.9755 22.1974C17.9918 22.1968 18.0075 22.201 18.0238 22.2016C18.0963 22.2046 18.1678 22.2197 18.2353 22.2463C18.2505 22.2522 18.2668 22.2547 18.2815 22.2621V22.2626C18.4064 22.3219 18.5091 22.4194 18.5748 22.5411L18.5765 22.5444H18.5914L20.4918 25.9793C20.4142 26.0052 20.3351 26.028 20.2567 26.0513C20.1638 26.079 20.0704 26.105 19.9766 26.1292C19.897 26.1501 19.8179 26.1714 19.7375 26.1897C19.7026 26.1979 19.6672 26.2026 19.6317 26.21C19.2445 26.2925 18.8514 26.3453 18.4561 26.3677C18.3774 26.3722 18.2992 26.3776 18.2204 26.3798C17.8144 26.3908 17.4082 26.3698 17.0054 26.3171C16.9267 26.307 16.8479 26.2932 16.7697 26.2806C16.3832 26.2181 16.002 26.1264 15.6293 26.0063C15.5936 25.9948 15.557 25.9861 15.5213 25.974L17.4175 22.5461H17.4203L17.4222 22.5427C17.4296 22.5292 17.4405 22.5188 17.4487 22.5062C17.4934 22.4353 17.5513 22.3735 17.6191 22.3242C17.6425 22.3073 17.6664 22.2919 17.6922 22.2781C17.7665 22.2385 17.8477 22.2135 17.9313 22.2044C17.9465 22.203 17.9603 22.1979 17.9755 22.1974Z" fill="white"/>
</g>
<defs>
<clipPath id="clip0_436_337">
<rect width="36" height="36" fill="white"/>
</clipPath>
</defs>
</svg>
