<svg width="36" height="36" viewBox="0 0 36 36" fill="none" xmlns="http://www.w3.org/2000/svg">
<path fill-rule="evenodd" clip-rule="evenodd" d="M24.7607 12.0409C25.2121 13.3467 25.5372 14.6799 25.6441 16.0616C25.7769 17.7759 25.7161 19.478 25.3547 21.1641C25.3449 21.2105 25.3241 21.2541 25.3086 21.2991C25.1952 21.2994 25.0796 21.2853 24.9688 21.3025C24.0326 21.4495 23.0971 21.602 22.1617 21.7536C21.1947 21.9102 20.2264 22.0607 19.2611 22.2281C18.9191 22.2871 18.4959 22.2165 18.3578 22.6896C18.3538 22.7025 18.3145 22.7048 18.2917 22.7121L18.3384 19.8852L18.2908 13.0644L18.7414 12.987C19.4783 12.8664 20.2151 12.744 20.9526 12.6267C21.8326 12.487 22.7135 12.3511 23.5941 12.2147C23.9825 12.1542 24.3715 12.0988 24.7607 12.0409Z" fill="#439934"/>
<path fill-rule="evenodd" clip-rule="evenodd" d="M17.3613 30.9527C16.886 30.544 16.3941 30.1534 15.9384 29.7236C13.4868 27.4112 11.6935 24.6895 10.8104 21.4082C10.5671 20.5051 10.4048 19.5874 10.3528 18.6542C10.3162 18.0011 10.2634 17.3421 10.3095 16.6925C10.4324 14.9645 10.6822 13.2531 11.189 11.5886L11.2168 11.5498C11.266 11.6153 11.3369 11.6733 11.3619 11.7472C11.8567 13.2041 12.3477 14.6621 12.8362 16.121C14.3713 20.7053 15.9044 25.2908 17.442 29.8741C17.4721 29.9635 17.55 30.0369 17.606 30.1176L17.3613 30.9527Z" fill="#45A538"/>
<path fill-rule="evenodd" clip-rule="evenodd" d="M24.7607 12.0409C24.3714 12.0988 23.9822 12.1542 23.5938 12.2141C22.7132 12.3505 21.8323 12.4864 20.9523 12.6262C20.2148 12.7434 19.4779 12.8658 18.7411 12.9864L18.2905 13.0638L18.2871 12.7699C18.2722 12.5283 18.2466 12.287 18.2438 12.0454C18.2244 10.5047 18.2123 8.964 18.1932 7.42332C18.1814 6.45891 18.1637 5.49478 18.144 4.53066C18.1319 3.9316 18.1189 3.33225 18.0919 2.73403C18.0773 2.41257 18.0256 2.09278 18.0045 1.77132C17.9927 1.58653 18.009 1.40035 18.0126 1.21472C18.2424 1.65994 18.4671 2.10853 18.7034 2.55038C19.0766 3.249 19.6712 3.76369 20.2064 4.32535C22.3222 6.54497 23.8244 9.12572 24.7607 12.0409Z" fill="#46A037"/>
<path fill-rule="evenodd" clip-rule="evenodd" d="M18.2914 22.7117C18.3142 22.7044 18.3538 22.7022 18.3575 22.6892C18.4956 22.2162 18.9189 22.2868 19.2609 22.2277C20.2261 22.0606 21.1945 21.9099 22.1614 21.7532C23.0968 21.6016 24.0323 21.4492 24.9686 21.3021C25.0794 21.2847 25.195 21.299 25.3083 21.2987C25.1334 21.9231 24.9956 22.561 24.7737 23.1682C24.5217 23.857 24.2168 24.5292 23.8931 25.1881C23.4084 26.171 22.8086 27.0928 22.1063 27.934C21.5666 28.5831 20.965 29.183 20.362 29.7756C20.0287 30.1033 19.6358 30.3702 19.2702 30.6646L19.1754 30.6L18.8339 30.308L18.4807 29.5337C18.2394 28.6305 18.1078 27.7015 18.0886 26.7668L18.0951 26.609L18.1432 25.9267C18.1592 25.6938 18.1806 25.4612 18.1904 25.2278C18.2267 24.3891 18.2582 23.5504 18.2914 22.7117Z" fill="#409433"/>
<path fill-rule="evenodd" clip-rule="evenodd" d="M18.2913 22.7119C18.2581 23.5506 18.2266 24.3893 18.1909 25.2282C18.1811 25.4617 18.1597 25.6943 18.1437 25.9271L17.9285 26.0084C17.4507 24.6016 16.9726 23.2097 16.5048 21.8141C15.7314 19.5054 14.9672 17.1929 14.1949 14.8836C13.5711 13.0196 12.943 11.157 12.3106 9.29598C12.281 9.2088 12.1961 9.14074 12.137 9.06367L13.514 6.53186C13.5613 6.61399 13.6237 6.69077 13.6535 6.77908C14.2913 8.66405 14.9258 10.5501 15.557 12.4373C16.3771 14.8926 17.1922 17.3499 18.0118 19.8055C18.0444 19.9036 18.0984 19.9942 18.1499 20.1041L18.3383 19.8848L18.2913 22.7119Z" fill="#4FAA41"/>
<path fill-rule="evenodd" clip-rule="evenodd" d="M12.1374 9.06384C12.1964 9.14091 12.2811 9.20897 12.3109 9.29616C12.9433 11.1572 13.5715 13.0198 14.1953 14.8837C14.9676 17.1931 15.7317 19.5055 16.5052 21.8143C16.9726 23.2096 17.4507 24.6018 17.9289 26.0086L18.144 25.9273L18.0959 26.6096L18.0523 26.7668C17.9775 27.5138 17.9145 28.2625 17.8234 29.0078C17.7775 29.3813 17.6802 29.7481 17.6063 30.1179C17.5506 30.0372 17.4724 29.9638 17.4423 29.8744C15.9047 25.2908 14.3716 20.7056 12.8365 16.1212C12.3482 14.6623 11.8567 13.2044 11.3622 11.7475C11.3372 11.6736 11.2666 11.6156 11.2171 11.5501L12.1374 9.06384Z" fill="#4AA73C"/>
<path fill-rule="evenodd" clip-rule="evenodd" d="M18.3381 19.8849L18.1496 20.1043C18.0982 19.9943 18.0442 19.9035 18.0115 19.8056C17.1923 17.35 16.3769 14.8927 15.5568 12.4374C14.9255 10.5503 14.291 8.66421 13.6533 6.77925C13.6238 6.69093 13.5613 6.61387 13.5138 6.53203L15.2168 4.29187C15.2705 4.36359 15.347 4.42743 15.3748 4.50815C15.8476 5.89218 16.3162 7.2779 16.7819 8.66446C17.217 9.95934 17.6456 11.2562 18.0858 12.5494C18.1153 12.636 18.218 12.6973 18.2866 12.7704L18.29 13.0643C18.3063 15.3374 18.3223 17.6113 18.3381 19.8849Z" fill="#57AE47"/>
<path fill-rule="evenodd" clip-rule="evenodd" d="M18.2872 12.7699C18.2186 12.6968 18.1159 12.6355 18.0864 12.5489C17.6462 11.2557 17.2176 9.95882 16.7825 8.66395C16.3168 7.27739 15.8482 5.89195 15.3754 4.50764C15.3476 4.42692 15.2711 4.36307 15.2173 4.29136C15.7711 3.74911 16.3078 3.18745 16.8838 2.67023C17.3959 2.21067 17.8077 1.71792 17.8265 0.99173C17.8273 0.961637 17.8431 0.931543 17.8673 0.847168L18.0133 1.21448C18.0096 1.40039 17.993 1.58629 18.0051 1.77107C18.0262 2.09254 18.0779 2.41232 18.0926 2.73379C18.1196 3.33201 18.1325 3.93136 18.1446 4.53042C18.164 5.49454 18.1817 6.45867 18.1938 7.42307C18.2127 8.96376 18.225 10.5044 18.2444 12.0451C18.2467 12.2873 18.272 12.5283 18.2872 12.7699Z" fill="#60B24F"/>
<path fill-rule="evenodd" clip-rule="evenodd" d="M17.6056 30.1177C17.6796 29.7479 17.7769 29.3808 17.8228 29.0076C17.9142 28.2626 17.9769 27.5136 18.0517 26.7666L18.0703 26.7638L18.0888 26.7669C18.108 27.7016 18.2396 28.6306 18.4809 29.5338C18.4314 29.5991 18.3614 29.6573 18.3352 29.731C18.1307 30.3075 17.9381 30.8886 17.7325 31.4652C17.7044 31.5439 17.6262 31.6052 17.5711 31.6744L17.361 30.9527L17.6056 30.1177Z" fill="#A9AA88"/>
<path fill-rule="evenodd" clip-rule="evenodd" d="M17.5714 31.6747C17.6265 31.6055 17.7049 31.5442 17.7328 31.4654C17.9384 30.8888 18.1313 30.3081 18.3355 29.7312C18.3617 29.6575 18.4314 29.5993 18.4812 29.5341L18.8342 30.3086C18.7644 30.4076 18.6682 30.4968 18.6294 30.607L17.9533 32.5924C17.9254 32.672 17.8304 32.7282 17.7668 32.7954L17.5714 31.6747Z" fill="#B6B598"/>
<path fill-rule="evenodd" clip-rule="evenodd" d="M17.7668 32.7952C17.8307 32.7282 17.9255 32.6717 17.9533 32.5921L18.6294 30.6068C18.668 30.4968 18.7644 30.4073 18.8342 30.3083L19.1759 30.6C19.0108 30.7631 18.9191 30.9516 18.9743 31.1898L18.8705 31.5295C18.8232 31.5878 18.7549 31.6384 18.7315 31.705C18.4956 32.3809 18.2703 33.0604 18.0326 33.7362C18.0025 33.822 17.919 33.8892 17.8599 33.9646C17.8293 33.5745 17.7981 33.1853 17.7668 32.7952Z" fill="#C2C1A7"/>
<path fill-rule="evenodd" clip-rule="evenodd" d="M17.8602 33.9646C17.919 33.8889 18.0025 33.8217 18.0329 33.7362C18.2706 33.0607 18.4958 32.3812 18.7318 31.705C18.7552 31.6387 18.8232 31.5878 18.8707 31.5295L18.7276 33.0891C18.6893 33.1332 18.6339 33.1718 18.6157 33.2232C18.4539 33.6772 18.3015 34.1345 18.1392 34.5884C18.1057 34.6821 18.0416 34.7648 17.9916 34.8522C17.9471 34.794 17.8675 34.7378 17.8639 34.677C17.8495 34.4405 17.8594 34.2023 17.8602 33.9646Z" fill="#CECDB7"/>
<path fill-rule="evenodd" clip-rule="evenodd" d="M17.9913 34.8523C18.0413 34.7645 18.1055 34.6818 18.1389 34.5885C18.3015 34.1348 18.4536 33.6775 18.6154 33.2233C18.6336 33.1718 18.6893 33.1335 18.7273 33.0891L18.7307 34.1129L18.3881 34.9915L17.9913 34.8523Z" fill="#DBDAC7"/>
<path fill-rule="evenodd" clip-rule="evenodd" d="M18.3881 34.9917L18.7307 34.113L18.8013 35.1525L18.3881 34.9917Z" fill="#EBE9DC"/>
<path fill-rule="evenodd" clip-rule="evenodd" d="M18.9743 31.19C18.9191 30.9518 19.0105 30.7631 19.1759 30.6002L19.2707 30.6649L18.9743 31.19Z" fill="#CECDB7"/>
<path fill-rule="evenodd" clip-rule="evenodd" d="M18.0889 26.7671L18.0703 26.764L18.0518 26.7668L18.0954 26.6096L18.0889 26.7671Z" fill="#4FAA41"/>
</svg>
