<svg width="36" height="36" viewBox="0 0 36 36" fill="none" xmlns="http://www.w3.org/2000/svg">
<path d="M0 25.6818H1.19306V20.9717L3.03975 25.0773C3.25716 25.5752 3.555 25.7498 4.14056 25.7498C4.72613 25.7498 5.01188 25.5752 5.22928 25.0773L7.07597 20.9717V25.6815H8.26903V20.9795C8.26903 20.5203 8.08566 20.2983 7.70653 20.1842C6.80006 19.9018 6.19256 20.1456 5.91694 20.7576L4.10541 24.8104L2.35097 20.7576C2.08744 20.1456 1.46784 19.9018 0.5625 20.1842C0.183375 20.2983 0 20.5203 0 20.9795L0 25.6818ZM9.26156 21.8475H10.4535V24.4426C10.4425 24.5832 10.4985 24.9139 11.1521 24.9249H13.7461V21.8343H14.9414C14.947 21.8343 14.9392 26.0485 14.9392 26.0662C14.9456 27.1054 13.6505 27.3307 13.0528 27.3484H9.28688V26.5463L13.0596 26.5452C13.8274 26.465 13.7363 26.0825 13.7363 25.9551V25.6421H11.2016C10.0218 25.6311 9.27141 25.1159 9.26156 24.5236C9.26044 24.4698 9.28688 21.8739 9.26156 21.8475Z" fill="#00618A"/>
<path d="M15.8599 25.6817H19.2898C19.6908 25.6817 20.0809 25.5971 20.3906 25.4522C20.907 25.216 21.1584 24.8942 21.1584 24.4735V23.6022C21.1584 23.2582 20.8726 22.9365 20.3101 22.7233C20.0123 22.608 19.6444 22.5475 19.2895 22.5475H17.8436C17.3624 22.5475 17.1329 22.4024 17.0758 22.0817C17.0648 22.0432 17.0648 22.0126 17.0648 21.974V21.4312C17.0648 21.4006 17.0648 21.3696 17.0758 21.3314C17.1329 21.0875 17.2591 21.0183 17.6833 20.9798L17.7986 20.9722H21.2042V20.178H17.856C17.3747 20.178 17.1222 20.2086 16.8924 20.277C16.1817 20.4989 15.8717 20.8504 15.8717 21.4624V22.158C15.8717 22.6929 16.4792 23.1522 17.4999 23.2588L17.8439 23.2742H19.083C19.1292 23.2742 19.1742 23.2742 19.2093 23.2818C19.5873 23.3125 19.7476 23.3817 19.863 23.5192C19.9223 23.5741 19.9563 23.6522 19.9541 23.7324V24.4291C19.9541 24.5126 19.897 24.6203 19.7828 24.7114C19.6796 24.8037 19.5072 24.8641 19.2785 24.8796L19.1522 24.8872H15.8599V25.6817ZM28.5997 24.2974C28.5997 25.1159 29.2083 25.574 30.4343 25.6663L30.7794 25.6817H33.8875V24.8864H30.7563C30.0566 24.8864 29.7928 24.7106 29.7928 24.2898V20.1763H28.6008V24.2971L28.5997 24.2974ZM21.92 24.3391V21.5035C21.92 20.7838 22.4265 20.3467 23.4261 20.2092C23.5328 20.1938 23.6404 20.1861 23.7481 20.1861H26.0114C26.1267 20.1861 26.2299 20.1937 26.3455 20.2092C27.3453 20.3464 27.8507 20.7838 27.8507 21.5035V24.3391C27.8507 24.9235 27.6364 25.2357 27.1411 25.4399L28.3168 26.5002H26.9313L25.981 25.6421L25.0242 25.7026H23.7487C23.5117 25.7017 23.2758 25.6684 23.0478 25.6036C22.2887 25.3971 21.9206 24.9983 21.9206 24.3391H21.92ZM23.2076 24.2699C23.2076 24.3084 23.2185 24.3466 23.2306 24.3931C23.2998 24.7227 23.6098 24.9061 24.0809 24.9061H25.1642L24.1689 24.0075H25.5543L26.4223 24.7919C26.5826 24.7061 26.6869 24.5764 26.7243 24.4085C26.7353 24.37 26.7353 24.3317 26.7353 24.2932V21.5741C26.7353 21.5434 26.7353 21.5049 26.7243 21.4664C26.6551 21.1598 26.3452 20.984 25.8851 20.984H24.0811C23.5527 20.984 23.2079 21.2135 23.2079 21.5741L23.2076 24.2699Z" fill="#E48E00"/>
<path d="M34.9366 18.857C34.2039 18.8373 33.6434 18.9053 33.1644 19.1076C33.0283 19.1646 32.8106 19.1658 32.7887 19.3362C32.8635 19.4152 32.8756 19.5328 32.9349 19.6284C33.0491 19.8141 33.2426 20.0613 33.415 20.1909L33.9983 20.6083C34.3564 20.8268 34.7574 20.9523 35.1036 21.1708C35.307 21.3005 35.5089 21.463 35.7078 21.6093C35.8056 21.6807 35.8715 21.7938 36 21.8388V21.818C35.9331 21.7322 35.9153 21.6146 35.8537 21.5257L35.5823 21.2543C35.3177 20.9028 34.9813 20.594 34.6233 20.3369C34.3375 20.1324 33.7005 19.8557 33.5807 19.5238L33.5599 19.503C33.7621 19.4811 33.9995 19.4074 34.1851 19.3579C34.4992 19.2732 34.7794 19.2951 35.1025 19.2116L35.541 19.0853V19.0029C35.3773 18.8347 35.2609 18.6128 35.0817 18.4601C34.616 18.0636 34.1061 17.6659 33.581 17.334C33.2899 17.1506 32.9307 17.0319 32.6219 16.8758C32.5187 16.8232 32.3361 16.7968 32.267 16.7088C32.1055 16.5023 32.0175 16.2408 31.8923 16L31.142 14.4157C30.9839 14.0543 30.8804 13.6971 30.6827 13.3731C29.7368 11.8164 28.7173 10.8771 27.1384 9.95427C26.8034 9.75768 26.3978 9.68061 25.9717 9.57965L25.283 9.53802C25.1435 9.47868 24.9983 9.30739 24.8667 9.22499C24.3439 8.89424 23.0023 8.17593 22.6145 9.12065C22.3706 9.71718 22.9804 10.2994 23.1989 10.6017C23.3516 10.8138 23.5482 11.0511 23.6571 11.2894C23.7296 11.4455 23.7417 11.6024 23.8033 11.7683C23.9549 12.177 24.0868 12.6208 24.2834 12.9988C24.3824 13.1901 24.491 13.3911 24.6164 13.5613C24.6932 13.6656 24.8251 13.7129 24.8459 13.8743C24.7174 14.0546 24.7098 14.3336 24.6372 14.562C24.311 15.5891 24.4339 16.8657 24.9086 17.6271C25.0537 17.8599 25.3963 18.3608 25.8677 18.1687C26.2797 18.0006 26.1875 17.4811 26.305 17.0218C26.3326 16.9186 26.316 16.8415 26.3677 16.7723V16.7931L26.7435 17.5435C27.0214 17.9907 27.5136 18.4576 27.9312 18.7729C28.1486 18.9366 28.3191 19.2201 28.5992 19.3157V19.2937H28.5784C28.5235 19.2102 28.4389 19.175 28.3697 19.107C28.206 18.9467 28.0246 18.7478 27.8907 18.5642C27.5105 18.0489 27.1744 17.4842 26.8689 16.8964C26.7227 16.6162 26.5953 16.3063 26.4724 16.0208C26.4251 15.9109 26.4262 15.7441 26.3272 15.6878C26.1922 15.8965 25.9934 16.0658 25.8888 16.3131C25.7217 16.7074 25.7009 17.1897 25.6382 17.6886L25.5966 17.7095C25.3066 17.6391 25.2042 17.3405 25.0968 17.0842C24.8231 16.436 24.7728 15.3911 25.0132 14.6452C25.0748 14.452 25.3561 13.8431 25.2419 13.6654C25.1882 13.4873 25.009 13.3841 24.9089 13.248C24.778 13.0655 24.6661 12.87 24.5751 12.6647C24.352 12.1581 24.2477 11.5914 24.0126 11.0804C23.9006 10.8354 23.7105 10.5882 23.5544 10.3708C23.3809 10.1303 23.1874 9.95343 23.0535 9.66205C23.0062 9.55883 22.9416 9.3929 23.0119 9.2863C23.0338 9.21486 23.0667 9.18533 23.137 9.16227C23.258 9.06889 23.5952 9.19293 23.7203 9.24468C24.0553 9.38418 24.3346 9.51608 24.6178 9.70396C24.7528 9.79396 24.8903 9.96861 25.0551 10.017H25.243C25.5364 10.0839 25.8649 10.0367 26.1396 10.1202C26.6242 10.2673 27.0593 10.4971 27.4525 10.7466C28.6543 11.5045 29.6367 12.5845 30.3089 13.8732C30.4177 14.0808 30.4639 14.2785 30.5595 14.4984C30.7519 14.9422 30.9935 15.3993 31.1847 15.8332C31.376 16.2672 31.5616 16.7034 31.8307 17.0637C31.9725 17.2527 32.5206 17.3537 32.769 17.4591C32.9436 17.5328 33.2294 17.6096 33.3942 17.7097C33.7106 17.8999 34.0161 18.126 34.3128 18.335C34.4599 18.4404 34.9149 18.6691 34.938 18.8567L34.9366 18.857ZM25.6168 10.9139C25.4907 10.9117 25.3648 10.9257 25.2422 10.9555V10.9763H25.263C25.3356 11.1268 25.4641 11.2236 25.5541 11.3521L25.7628 11.7894L25.7836 11.7697C25.9132 11.6786 25.9715 11.5324 25.9715 11.3105C25.9189 11.2556 25.9121 11.1876 25.8671 11.1226C25.8078 11.0357 25.6927 10.9876 25.6168 10.9139Z" fill="#00618A"/>
</svg>
