<svg width="36" height="36" viewBox="0 0 36 36" fill="none" xmlns="http://www.w3.org/2000/svg">
<g clip-path="url(#clip0_436_245)">
<path d="M21.1847 0.112464C20.9321 0.112464 20.6795 0.168433 20.4551 0.252526C20.9321 0.561339 21.1847 0.982089 21.325 1.45909C21.325 1.51534 21.3531 1.57159 21.3531 1.62756C21.3531 1.68381 21.3812 1.73978 21.3812 1.79575C21.4094 2.60968 21.1565 2.7219 20.9883 3.1989C20.7077 3.81596 20.792 4.48956 21.1287 5.02253C21.1568 5.07878 21.1849 5.16315 21.2409 5.21912C20.8761 2.86225 22.8401 2.52531 23.2049 1.79575C23.233 1.15056 22.7 0.729808 22.279 0.420995C21.8582 0.168433 21.5213 0.112183 21.1849 0.112183L21.1847 0.112464ZM24.1313 0.617026C24.1032 0.841464 24.1313 0.785495 24.1032 0.897714C24.1032 0.981808 24.1032 1.0659 24.0751 1.15028C24.0469 1.23437 24.0469 1.29062 24.0188 1.37471C23.9907 1.45909 23.9628 1.51506 23.9347 1.59915C23.9066 1.6554 23.8785 1.71137 23.8503 1.79546C23.8225 1.82359 23.7944 1.87984 23.7665 1.90796C23.7384 1.93609 23.7384 1.96393 23.7103 1.99206C23.654 2.04831 23.6259 2.13212 23.5699 2.18837L23.4017 2.35684C23.3455 2.41309 23.2892 2.46906 23.2333 2.4969C23.037 2.63753 22.8125 2.74946 22.6159 2.88981C22.5597 2.94606 22.4756 2.97418 22.4196 3.03015C22.3634 3.0864 22.3071 3.11453 22.2512 3.1705L22.083 3.33868C22.0267 3.39493 21.9705 3.45118 21.9423 3.53528C21.8864 3.59153 21.8582 3.67562 21.8023 3.73159C21.7742 3.81596 21.746 3.87193 21.6901 3.95603C21.6619 4.0404 21.6338 4.09665 21.6057 4.18046C21.5776 4.26484 21.5497 4.34893 21.5497 4.4049C21.5497 4.43303 21.5497 4.48928 21.5216 4.5174C21.5216 4.54553 21.5216 4.6015 21.4935 4.62962V5.02225C21.4935 5.10662 21.4935 5.16287 21.5216 5.24668C21.5216 5.33106 21.5497 5.38731 21.5778 5.4714C21.606 5.5555 21.6341 5.61146 21.6622 5.69584C21.6901 5.75209 21.7182 5.77993 21.7182 5.83618L19.5855 5.02225C19.2337 4.91571 18.8782 4.82217 18.5195 4.74184C18.3229 4.68559 18.1266 4.65746 17.93 4.60121C17.3733 4.48973 16.8114 4.40553 16.2465 4.34893H16.1902C15.6291 4.29268 15.0962 4.26456 14.5351 4.26456C14.114 4.26456 13.7211 4.29268 13.3285 4.32081C12.7671 4.34893 12.2063 4.43331 11.6449 4.5174L11.2239 4.6015C10.9435 4.65775 10.6628 4.71371 10.3821 4.79781C10.2418 4.82593 10.1017 4.88218 9.96137 4.91031C9.82103 4.96628 9.68069 5.02225 9.56847 5.0785C9.45625 5.13475 9.37215 5.16287 9.25994 5.21884C9.23181 5.21884 9.23181 5.21884 9.20369 5.24696C9.11931 5.30293 9.0355 5.33106 8.95112 5.38703C8.923 5.38703 8.89487 5.41515 8.89487 5.41515C8.78294 5.4714 8.69856 5.52765 8.61447 5.5555C8.55822 5.58362 8.47412 5.61175 8.41815 5.63987C8.39003 5.66771 8.3619 5.66771 8.33378 5.69584C8.24969 5.75209 8.16559 5.77993 8.08122 5.8359C7.99712 5.89215 7.91303 5.92028 7.85678 5.97653C7.80053 6.0325 7.71644 6.06062 7.66047 6.11659C7.66047 6.11659 7.63234 6.11659 7.63234 6.14471C7.57609 6.17284 7.52012 6.22909 7.46415 6.28506L7.43603 6.31318C7.37978 6.34131 7.35165 6.39728 7.29569 6.4254C7.26756 6.4254 7.26756 6.45353 7.23944 6.45353C7.18347 6.48165 7.15534 6.53762 7.09937 6.56546C7.09937 6.59359 7.07125 6.59359 7.07125 6.59359L6.90278 6.76206L6.87466 6.79018L6.70647 6.95837C6.70647 6.95837 6.70647 6.9865 6.67834 6.9865L6.538 7.12684C6.50987 7.15496 6.48175 7.15496 6.48175 7.18309L6.31356 7.35128C6.31356 7.3794 6.28544 7.3794 6.28544 7.40753L6.061 7.63168L6.03287 7.65981C5.89281 7.82828 5.72434 7.96862 5.55615 8.10896C5.38769 8.24903 5.21922 8.38937 5.0229 8.52971C4.82659 8.67006 4.65812 8.78228 4.46181 8.8945C4.26522 9.00671 4.0689 9.09081 3.87259 9.17518C3.676 9.25928 3.47969 9.34337 3.28337 9.39962C2.89047 9.484 2.49756 9.65218 2.1609 9.68003C2.1609 9.53997 2.07653 9.56781 1.99244 9.56781C1.90834 9.59593 1.82425 9.59593 1.768 9.62406C1.68362 9.65218 1.62765 9.68031 1.54356 9.70843C1.46353 9.7342 1.38785 9.77194 1.31912 9.82037C1.26287 9.87662 1.17878 9.90475 1.12281 9.961C1.06656 10.017 0.982186 10.0729 0.926217 10.1292C0.869967 10.1854 0.785874 10.2414 0.729905 10.2974C0.673655 10.3536 0.617405 10.4099 0.561436 10.494C0.505186 10.5781 0.449217 10.634 0.421092 10.7184C0.365124 10.7747 0.336999 10.8587 0.28103 10.9428C0.252905 11.0272 0.196655 11.111 0.16853 11.1954L0.084436 11.448C0.056311 11.5321 0.056311 11.588 0.028186 11.6724V11.7005C6.10352e-05 11.7849 6.10352e-05 11.8968 6.10352e-05 11.9531C0.028186 11.925 0.028186 11.9812 0.028186 12.0372V12.1494C0.028186 12.2057 0.056311 12.2616 0.056311 12.3176C0.084436 12.3738 0.084436 12.4301 0.112561 12.4861C0.140405 12.5423 0.16853 12.5983 0.224499 12.6545C0.252624 12.7108 0.308874 12.7667 0.336999 12.8227C0.392967 12.879 0.448936 12.9352 0.505186 12.9631C0.561436 13.0193 0.617405 13.0756 0.673374 13.1034C0.897811 13.2997 0.954061 13.356 1.23475 13.5242C1.291 13.5523 1.31884 13.5804 1.37509 13.6085H1.40322V13.6648C1.40322 13.7486 1.43134 13.8048 1.45919 13.8889C1.48731 13.9733 1.51544 14.0574 1.54356 14.1134L1.62737 14.2818C1.62737 14.31 1.6555 14.31 1.6555 14.3381C1.68362 14.4222 1.73987 14.4782 1.768 14.5344C1.82397 14.5907 1.85209 14.6747 1.90806 14.7307L2.07653 14.8992L2.24472 15.0674H2.27284C2.32909 15.1236 2.38506 15.1517 2.44131 15.208C2.49756 15.2642 2.58165 15.2921 2.63762 15.3199C2.69387 15.3481 2.77797 15.4043 2.86206 15.4324C2.91831 15.4606 2.97456 15.4884 3.05837 15.4884C3.05837 15.4884 3.0865 15.4884 3.0865 15.5165C3.11462 15.5165 3.17087 15.5447 3.199 15.5447C3.17087 16.0495 3.17087 16.5265 3.22712 16.695C3.31094 16.8913 3.73197 16.3021 4.12487 15.6569C4.06862 16.3021 4.0405 17.0597 4.12487 17.2842C4.23709 17.5086 4.77006 16.7791 5.27519 15.9932C11.841 14.4782 17.8457 19.0237 18.4911 25.4494C18.3786 24.4392 17.1439 23.8781 16.555 24.0184C16.2743 24.6917 15.7973 25.5898 15.0399 26.1227C15.0959 25.5054 15.068 24.8881 14.9555 24.271C14.7592 25.1128 14.3663 25.9264 13.8052 26.5997C12.9353 26.656 12.0376 26.235 11.5884 25.5898C11.5603 25.5617 11.5322 25.5054 11.5043 25.4773C11.4762 25.4213 11.4481 25.3372 11.4199 25.281C11.3918 25.2247 11.364 25.1406 11.364 25.0847V24.748C11.364 24.6917 11.3921 24.6074 11.4202 24.5514C11.4483 24.4954 11.4483 24.4111 11.4765 24.3551C11.5043 24.2988 11.5324 24.2147 11.5884 24.1588C11.7569 23.7096 11.7569 23.3448 11.4481 23.1485L11.2799 23.0642C11.2517 23.0642 11.1955 23.0363 11.1674 23.0363C11.1392 23.0363 11.1114 23.0082 11.0833 23.0082C11.0273 22.9801 10.9432 22.9801 10.887 22.9519C10.8307 22.9238 10.7466 22.9238 10.6907 22.9238C10.6344 22.9238 10.55 22.896 10.4941 22.896H10.354C10.2696 22.896 10.2134 22.896 10.1574 22.9241C10.1012 22.9241 10.0171 22.9522 9.96109 22.9522C9.90484 22.9803 9.82075 22.9803 9.7645 23.0085C9.70853 23.0363 9.65228 23.0644 9.56819 23.0923L9.39972 23.1767C7.23916 24.5795 8.53009 27.8904 9.98922 28.8444C9.42784 28.9569 8.86675 29.0688 8.69828 29.1813L8.67015 29.2095C9.06306 29.4617 9.48409 29.6583 9.93297 29.8265C10.5222 30.0231 11.1677 30.1913 11.4481 30.2757C12.2057 30.4439 12.9916 30.5001 13.7771 30.4439C17.8738 30.1632 21.2409 27.0208 21.858 22.9241C21.8861 23.0085 21.8861 23.0923 21.9142 23.1767C21.9423 23.3448 21.9705 23.5133 21.9986 23.7096C22.0267 23.794 22.0267 23.8781 22.0267 23.9622V23.9903C22.0267 24.0747 22.0546 24.1588 22.0546 24.2429C22.0546 24.3551 22.0827 24.4392 22.0827 24.5514V25.7298C22.0827 25.8142 22.0546 25.8705 22.0546 25.9546V26.0387C22.0546 26.123 22.0264 26.2071 22.0264 26.3193C21.9983 26.4034 21.9983 26.4875 21.9702 26.5719V26.6C21.9421 26.6841 21.9421 26.7682 21.9142 26.8523V26.8804C21.8861 26.9648 21.8861 27.0489 21.858 27.133V27.1611L21.7739 27.4137V27.4418C21.7457 27.5259 21.7176 27.6381 21.6898 27.7222C21.6617 27.8066 21.6335 27.8907 21.5773 28.0029C21.5494 28.087 21.5213 28.1992 21.4653 28.2833C21.4372 28.3677 21.381 28.4518 21.3528 28.564C21.325 28.6484 21.2687 28.7325 21.2409 28.8166C21.2409 28.8447 21.2128 28.8728 21.2128 28.8728C21.2128 28.8728 21.2128 28.9009 21.1847 28.9009C20.5954 30.1072 19.6977 31.1734 18.5752 32.0152C18.4908 32.0715 18.4349 32.1277 18.3508 32.1837C18.3227 32.2118 18.2945 32.2118 18.2945 32.2399C18.2383 32.2959 18.1542 32.324 18.0982 32.38L18.1263 32.4362C18.2664 32.4081 18.3789 32.4081 18.519 32.38C18.7715 32.3519 18.996 32.2956 19.2485 32.2397C19.3048 32.2397 19.3892 32.2115 19.4451 32.1834C19.5014 32.1834 19.5292 32.1553 19.5852 32.1553C19.6412 32.1553 19.7258 32.1274 19.7818 32.1274C19.838 32.0993 19.894 32.0993 19.95 32.0712C20.8761 31.847 21.7739 31.5382 22.6438 31.1734C21.1565 33.1937 19.1926 34.8212 16.8917 35.8872C17.9579 35.8031 19.0241 35.6349 20.0622 35.3261C23.79 34.2315 26.9357 31.7109 28.8167 28.3114C28.424 30.4439 27.582 32.4922 26.3194 34.288C27.2175 33.6988 28.0311 32.9971 28.7888 32.2397C30.865 30.0791 32.2397 27.3012 32.6889 24.3551C32.9977 25.8142 33.1099 27.3293 32.9696 28.8166C39.6757 19.4729 33.5307 9.79253 30.9494 7.23906C30.9494 7.21093 30.9212 7.21093 30.9212 7.18281C30.9212 7.29531 30.9212 7.40725 30.8931 7.51975C30.865 7.74418 30.8369 7.9405 30.8087 8.13681C30.7528 8.3334 30.6968 8.55784 30.6406 8.75415C30.5843 8.95075 30.5002 9.14706 30.4161 9.34337C30.3317 9.53997 30.2477 9.73628 30.1354 9.90475C30.0232 10.0732 29.911 10.2695 29.7988 10.4377C29.6866 10.6062 29.5462 10.7744 29.4059 10.9428C29.2658 11.1113 29.1255 11.2514 28.957 11.4198C28.8726 11.5042 28.7888 11.5883 28.6766 11.6443C28.5922 11.7005 28.536 11.7568 28.4519 11.8406C28.2837 11.9812 28.1152 12.0932 27.9189 12.2054C27.7504 12.3179 27.5541 12.4301 27.3578 12.5142L26.7683 12.7667C26.572 12.8508 26.3757 12.9071 26.1791 12.9631C25.9828 13.0193 25.7583 13.0756 25.5617 13.1034C25.3373 13.1315 25.141 13.1597 24.9447 13.1878C24.8041 13.1878 24.6359 13.2156 24.4955 13.2156C24.2711 13.2156 24.0748 13.1875 23.8785 13.1875C23.6537 13.1594 23.4574 13.1312 23.2611 13.1031C23.0483 13.0772 22.8403 13.0206 22.6438 12.9349C22.8401 12.9068 23.0645 12.9068 23.2611 12.8508C23.4856 12.8227 23.6819 12.7665 23.8785 12.7105C24.0748 12.6542 24.2992 12.5983 24.4677 12.5142L25.0569 12.2616C25.2532 12.1772 25.4217 12.0653 25.618 11.9531C25.7865 11.8406 25.9828 11.7005 26.1512 11.5883C26.3194 11.4477 26.4879 11.3076 26.6282 11.1673C26.7964 11.0269 26.9368 10.8587 27.0771 10.7184C27.2175 10.5499 27.3578 10.3817 27.47 10.2133C27.4982 10.1852 27.4982 10.157 27.5263 10.1289C27.6101 9.98884 27.7223 9.82037 27.8067 9.68031C27.9113 9.49898 28.005 9.31151 28.0871 9.11893C28.1715 8.92262 28.2558 8.72603 28.3118 8.52971L28.48 7.9405C28.5081 7.71606 28.5644 7.51975 28.5644 7.32315C28.5925 7.09871 28.5925 6.9024 28.5925 6.70581C28.5925 6.56575 28.5925 6.39728 28.5644 6.25693C28.5362 6.0325 28.5081 5.83618 28.48 5.63959C28.4519 5.41515 28.3956 5.21884 28.3397 5.02225C28.2834 4.82593 28.1993 4.62962 28.1433 4.43303C28.059 4.23671 27.9749 4.0404 27.8908 3.87193C27.7786 3.67562 27.6945 3.50715 27.5822 3.31084C27.4697 3.14237 27.3297 2.9739 27.2175 2.80571C27.0771 2.63725 26.9368 2.4969 26.7964 2.32871C26.7123 2.24434 26.6282 2.16025 26.5439 2.10428C26.1231 1.76762 25.7021 1.48693 25.2532 1.20625C25.197 1.17812 25.141 1.15 25.0569 1.12187C24.6921 0.81362 24.4117 0.729245 24.1313 0.617026Z" fill="#DF234F"/>
</g>
<defs>
<clipPath id="clip0_436_245">
<rect width="36" height="36" fill="white"/>
</clipPath>
</defs>
</svg>
