<svg width="36" height="36" viewBox="0 0 36 36" fill="none" xmlns="http://www.w3.org/2000/svg">
<g clip-path="url(#clip0_436_163)">
<path d="M18 36C27.9411 36 36 27.9411 36 18C36 8.05887 27.9411 0 18 0C8.05887 0 0 8.05887 0 18C0 27.9411 8.05887 36 18 36Z" fill="black"/>
<path d="M29.9016 31.504L13.8282 10.8H10.8V25.1941H13.2227V13.8766L27.9996 32.969C28.6654 32.5234 29.3008 32.034 29.9016 31.504Z" fill="url(#paint0_linear_436_163)"/>
<path d="M23.0001 10.8H25.4V25.2H23.0001V10.8Z" fill="url(#paint1_linear_436_163)"/>
</g>
<defs>
<linearGradient id="paint0_linear_436_163" x1="21.8" y1="23.3" x2="28.8999" y2="32.1" gradientUnits="userSpaceOnUse">
<stop stop-color="white"/>
<stop offset="1" stop-color="white" stop-opacity="0"/>
</linearGradient>
<linearGradient id="paint1_linear_436_163" x1="24.2" y1="10.8" x2="24.1598" y2="21.375" gradientUnits="userSpaceOnUse">
<stop stop-color="white"/>
<stop offset="1" stop-color="white" stop-opacity="0"/>
</linearGradient>
<clipPath id="clip0_436_163">
<rect width="36" height="36" fill="white"/>
</clipPath>
</defs>
</svg>
