<svg width="36" height="36" viewBox="0 0 36 36" fill="none" xmlns="http://www.w3.org/2000/svg">
<g clip-path="url(#clip0_436_354)">
<path d="M18.8319 0.232023C18.5736 0.0840071 18.281 0.00613403 17.9833 0.00613403C17.6855 0.00613403 17.3929 0.0840071 17.1346 0.232023L3.12272 8.36999C2.58975 8.67149 2.29022 9.24046 2.29022 9.84374V26.1529C2.29022 26.7556 2.62294 27.3248 3.12216 27.6266L17.134 35.7643C17.3924 35.9124 17.685 35.9903 17.9828 35.9903C18.2807 35.9903 18.5733 35.9124 18.8317 35.7643L32.8435 27.6263C33.3762 27.3248 33.6755 26.7556 33.6755 26.1526V9.84374C33.6755 9.24074 33.3428 8.67177 32.8435 8.36999L18.8319 0.232023Z" fill="url(#paint0_linear_436_354)"/>
<path d="M32.8773 8.37001L18.7991 0.232041C18.6608 0.16178 18.5158 0.105712 18.3662 0.0646973L2.59033 27.2244C2.72081 27.3849 2.87858 27.521 3.05636 27.6266L17.1349 35.7643C17.5343 35.9986 18 36.0658 18.4329 35.9317L33.2435 8.67151C33.1462 8.54417 33.0209 8.441 32.8773 8.37001Z" fill="url(#paint1_linear_436_354)"/>
<path d="M32.8776 27.6258C33.2769 27.3915 33.5765 26.9896 33.7095 26.5542L18.2998 0.0303867C17.9004 -0.0365508 17.4676 -0.00308201 17.1017 0.23148L3.12299 8.33598L18.1997 35.9983C18.3994 35.9646 18.6328 35.8976 18.8325 35.7972L32.8776 27.6258Z" fill="url(#paint2_linear_436_354)"/>
</g>
<defs>
<linearGradient id="paint0_linear_436_354" x1="23.6894" y1="6.29227" x2="10.8929" y2="32.2349" gradientUnits="userSpaceOnUse">
<stop stop-color="#3F873F"/>
<stop offset="0.33" stop-color="#3F8B3D"/>
<stop offset="0.637" stop-color="#3E9638"/>
<stop offset="0.934" stop-color="#3DA92E"/>
<stop offset="1" stop-color="#3DAE2B"/>
</linearGradient>
<linearGradient id="paint1_linear_436_354" x1="15.8542" y1="19.9029" x2="51.5577" y2="-6.31456" gradientUnits="userSpaceOnUse">
<stop offset="0.138" stop-color="#3F873F"/>
<stop offset="0.402" stop-color="#52A044"/>
<stop offset="0.713" stop-color="#64B749"/>
<stop offset="0.908" stop-color="#6ABF4B"/>
</linearGradient>
<linearGradient id="paint2_linear_436_354" x1="1.7774" y1="17.9928" x2="34.2" y2="17.9928" gradientUnits="userSpaceOnUse">
<stop offset="0.092" stop-color="#6ABF4B"/>
<stop offset="0.287" stop-color="#64B749"/>
<stop offset="0.598" stop-color="#52A044"/>
<stop offset="0.862" stop-color="#3F873F"/>
</linearGradient>
<clipPath id="clip0_436_354">
<rect width="36" height="36" fill="white"/>
</clipPath>
</defs>
</svg>
