<svg width="36" height="36" viewBox="0 0 36 36" fill="none" xmlns="http://www.w3.org/2000/svg">
<path d="M26.3838 25.9064C26.6046 24.069 26.5385 23.7993 27.907 24.0971L28.2544 24.1275C29.3068 24.1753 30.6835 23.9582 31.4924 23.5824C33.2336 22.7744 34.2658 21.4258 32.5493 21.7799C28.6332 22.5879 28.3641 21.2619 28.3641 21.2619C32.4993 15.1264 34.2278 7.33773 32.7355 5.43114C28.6658 0.231104 21.6214 2.69007 21.5035 2.75364L21.4658 2.76067C20.6921 2.60007 19.8261 2.50417 18.8533 2.48842C17.0811 2.45917 15.7365 2.95304 14.7164 3.72648C14.7164 3.72648 2.1493 -1.45105 2.73402 10.2377C2.85834 12.7242 6.29802 29.0528 10.4009 24.1208C11.9005 22.3174 13.3495 20.7924 13.3495 20.7924C14.069 21.2703 14.9307 21.5144 15.8341 21.4267L15.9041 21.367C15.8822 21.5909 15.8917 21.81 15.932 22.0693C14.8753 23.2503 15.1858 23.4576 13.0728 23.8924C10.9347 24.3328 12.1908 25.1172 13.0106 25.3223C14.0048 25.5709 16.3046 25.923 17.8588 23.7478L17.7969 23.9959C18.2115 24.3278 18.1836 26.38 18.2421 27.8462C18.3009 29.3126 18.3991 30.6809 18.6981 31.4878C18.997 32.2944 19.3497 34.3723 22.1268 33.7772C24.4476 33.2811 26.2221 32.5653 26.3838 25.9064Z" fill="black"/>
<path d="M21.2225 35.2283C19.9943 35.2283 19.1944 34.7532 18.7087 34.2945C17.9755 33.6026 17.6846 32.7114 17.5108 32.1789L17.4357 31.9568C17.0859 31.0123 16.9672 29.6525 16.8969 27.9014C16.8862 27.6384 16.8789 27.3676 16.8707 27.0804C16.8648 26.8704 16.8575 26.6068 16.8468 26.3312C16.4043 26.5422 15.9346 26.6906 15.4512 26.7722C14.5853 26.9201 13.6543 26.8723 12.6837 26.6296C11.9989 26.4583 11.2873 26.1034 10.8818 25.5552C9.69968 26.5905 8.57215 26.4502 7.9579 26.2451C6.87424 25.8837 5.90449 24.8681 4.99296 23.141C4.34355 21.9105 3.71552 20.3074 3.12602 18.3758C2.09946 15.012 1.44724 11.4691 1.3893 10.3059C1.20705 6.66507 2.18721 4.06126 4.30193 2.56754C7.63783 0.211227 12.6922 1.59695 14.5349 2.2261C15.773 1.47995 17.2296 1.11685 18.8755 1.14301C19.7594 1.15735 20.6012 1.23498 21.3831 1.37448C22.1987 1.11798 23.8097 0.749821 25.6539 0.772884C29.0516 0.813383 31.8672 2.13751 33.7958 4.6021C35.1722 6.36048 34.4916 10.053 33.9637 12.0977C33.2206 14.9738 31.9187 18.0326 30.3195 20.6955C30.7538 20.6986 31.3829 20.6466 32.2773 20.4618C34.0419 20.0976 34.558 21.0437 34.698 21.4673C35.2591 23.1666 32.8201 24.4508 32.0593 24.804C31.0845 25.2565 29.4952 25.5322 28.1936 25.4725L28.1367 25.4689L27.7947 25.4388L27.761 25.724L27.7284 26.0027C27.6409 29.3774 27.1588 31.5146 26.1669 32.9268C25.1271 34.4073 23.682 34.8221 22.4091 35.0949C21.9748 35.1878 21.5802 35.2283 21.2225 35.2283ZM18.6378 22.9458C19.4306 23.5803 19.5001 24.7742 19.5623 27.0053C19.5701 27.2838 19.5775 27.5473 19.5873 27.7934C19.6171 28.5387 19.6871 30.2839 19.9605 31.0213C19.9991 31.1257 20.0336 31.2314 20.0702 31.3436C20.3748 32.2763 20.5275 32.744 21.8446 32.4624C22.9502 32.2253 23.5186 32.0127 23.9636 31.3793C24.6101 30.4585 24.9718 28.6062 25.0382 25.8739L26.3834 25.9065L25.0475 25.7462L25.0869 25.4126C25.2148 24.3129 25.3071 23.5187 26.042 22.9933C26.6318 22.572 27.3037 22.6128 27.8389 22.7093C27.2508 22.2649 27.0882 21.7437 27.0449 21.53L26.9327 20.9773L27.248 20.5096C29.064 17.8152 30.5614 14.5038 31.3568 11.4241C32.1741 8.25976 31.9249 6.57929 31.6757 6.26148C28.3769 2.04638 22.6566 3.78676 22.0592 3.9842L21.9582 4.03876L21.452 4.13298L21.1927 4.07926C20.4777 3.93076 19.6835 3.84863 18.8321 3.83485C17.4945 3.81235 16.4154 4.12848 15.5306 4.79982L14.9166 5.26529L14.2042 4.97195C12.6821 4.34954 8.2113 3.09826 5.85218 4.76916C4.54268 5.69673 3.94615 7.51416 4.0789 10.1711C4.12277 11.0484 4.71874 14.3691 5.70199 17.5897C7.06071 22.0404 8.2954 23.519 8.81093 23.6908C8.90093 23.7212 9.13437 23.5398 9.36668 23.2608C10.3353 22.0996 11.3383 20.9675 12.3744 19.8661L13.1534 19.0463L14.0953 19.672C14.475 19.9243 14.8938 20.0675 15.3238 20.0945L17.5702 18.1786L17.2448 21.4996C17.2375 21.5741 17.2338 21.6757 17.2631 21.8641L17.3609 22.4935L16.9362 22.9683L16.8873 23.0234L18.1214 23.5929L18.6378 22.9458Z" fill="black"/>
<path d="M32.5493 21.78C28.6329 22.588 28.3637 21.2619 28.3637 21.2619C32.499 15.1262 34.2275 7.33725 32.7358 5.43122C28.6661 0.231466 21.6211 2.69043 21.5035 2.75428L21.4655 2.76103C20.6918 2.60043 19.8258 2.50481 18.8524 2.48906C17.0803 2.46009 15.7362 2.95368 14.7161 3.72712C14.7161 3.72712 2.14871 -1.45013 2.73315 10.2383C2.85746 12.7252 6.29715 29.0537 10.4 24.1217C11.8996 22.3183 13.3484 20.7934 13.3484 20.7934C14.0681 21.2712 14.9296 21.5153 15.8327 21.4276L15.903 21.368C15.881 21.5918 15.8912 21.8109 15.9311 22.0702C14.8742 23.2512 15.1847 23.4585 13.0716 23.8933C10.9336 24.3337 12.1896 25.1182 13.0097 25.3232C14.0037 25.5718 16.3037 25.9239 17.8577 23.7487L17.7955 23.9968C18.2098 24.3287 18.5006 26.1546 18.4519 27.8097C18.403 29.4649 18.3704 30.6014 18.6969 31.489C19.0232 32.3767 19.3483 34.3735 22.1259 33.7784C24.4468 33.2812 25.6494 31.9922 25.817 29.8423C25.9357 28.3137 26.2043 28.5398 26.2215 27.1732L26.4372 26.5264C26.6858 24.4544 26.4766 23.7862 27.9067 24.0969L28.2541 24.1273C29.3065 24.1751 30.6838 23.958 31.4924 23.5822C33.2333 22.7748 34.2658 21.4259 32.5493 21.78Z" fill="#336791"/>
<path d="M21.3629 34.3989C19.0477 34.3989 18.3142 32.5655 18.0141 31.8157C17.5748 30.7168 17.48 26.4525 17.5779 22.9554C17.5793 22.8965 17.5924 22.8384 17.6164 22.7845C17.6404 22.7306 17.6749 22.682 17.7177 22.6415C17.7606 22.601 17.8111 22.5693 17.8662 22.5484C17.9214 22.5275 17.9802 22.5176 18.0391 22.5195C18.098 22.5211 18.156 22.5343 18.2098 22.5584C18.2636 22.5824 18.3122 22.6168 18.3526 22.6596C18.3931 22.7024 18.4248 22.7528 18.4458 22.8079C18.4668 22.8629 18.4767 22.9216 18.4751 22.9805C18.3623 27.0139 18.5223 30.669 18.8474 31.4824C19.3548 32.7505 20.1243 33.8598 22.2998 33.3938C24.365 32.9508 25.1384 32.1678 25.483 30.1706C25.7473 28.6381 26.2702 24.2782 26.3346 23.4178C26.3389 23.359 26.3548 23.3017 26.3813 23.249C26.4078 23.1964 26.4444 23.1495 26.4891 23.111C26.5338 23.0725 26.5856 23.0433 26.6416 23.0249C26.6976 23.0065 26.7567 22.9993 26.8155 23.0038C26.9342 23.0128 27.0444 23.0685 27.122 23.1587C27.1996 23.2488 27.2383 23.3661 27.2295 23.4848C27.1623 24.3805 26.642 28.732 26.3675 30.3234C25.9608 32.6822 24.9092 33.7521 22.4879 34.2713C22.0765 34.3593 21.7027 34.3987 21.3629 34.3989ZM8.80905 25.4437C8.60668 25.443 8.40574 25.4097 8.21393 25.3452C6.71008 24.8435 5.27768 22.3944 3.95636 18.0651C2.95061 14.7697 2.3133 11.33 2.25733 10.212C2.09168 6.89776 2.94499 4.55298 4.79421 3.2432C8.45243 0.651197 14.6065 3.11945 14.8666 3.22576C14.9768 3.27078 15.0646 3.35773 15.1107 3.46749C15.1568 3.57725 15.1574 3.70083 15.1124 3.81104C15.0674 3.92125 14.9805 4.00906 14.8707 4.05516C14.7609 4.10126 14.6374 4.10187 14.5271 4.05685C14.4678 4.03267 8.56661 1.66848 5.31115 3.9767C3.72996 5.09776 3.00405 7.1807 3.15339 10.1673C3.20036 11.1092 3.79577 14.4662 4.81446 17.8029C5.99402 21.6679 7.33643 24.1066 8.49771 24.4939C8.67996 24.5546 9.23458 24.7394 10.0274 23.786C10.952 22.6756 11.9113 21.5945 12.9038 20.5443C12.9868 20.4615 13.099 20.4144 13.2163 20.4132C13.3336 20.4121 13.4467 20.4569 13.5313 20.538C13.616 20.6192 13.6656 20.7303 13.6694 20.8475C13.6732 20.9647 13.631 21.0788 13.5518 21.1653C13.5383 21.1794 12.1886 22.5904 10.7176 24.36C10.021 25.1979 9.35327 25.4437 8.80905 25.4437ZM28.336 21.6623C28.2546 21.6622 28.1748 21.6399 28.1051 21.598C28.0354 21.556 27.9784 21.4959 27.9402 21.4241C27.902 21.3522 27.8841 21.2714 27.8883 21.1901C27.8925 21.1089 27.9187 21.0303 27.9641 20.9628C32.1444 14.7598 33.6116 7.26479 32.355 5.65885C30.7733 3.63779 28.5399 2.58226 25.7164 2.52123C23.6259 2.47623 21.9642 3.01004 21.6926 3.10313L21.6242 3.13098C21.3511 3.21676 21.1416 3.06713 21.0626 2.8922C21.0175 2.79197 21.0107 2.67872 21.0434 2.5738C21.076 2.46888 21.146 2.37956 21.24 2.32267C21.253 2.31507 21.294 2.29763 21.3607 2.27317C21.8222 2.10413 23.5091 1.59788 25.5986 1.62179C28.7227 1.65498 31.3034 2.85957 33.0612 5.10592C33.8929 6.16876 33.8949 8.61732 33.0666 11.8241C32.2223 15.0937 30.6335 18.6073 28.7081 21.4645C28.622 21.5931 28.4802 21.6623 28.336 21.6623ZM28.5497 24.5338C27.8359 24.5338 27.1961 24.4331 26.813 24.2036C26.4192 23.9677 26.3441 23.647 26.3343 23.4769C26.2269 21.5897 27.2681 21.2612 27.7991 21.1113C27.7251 20.9994 27.6199 20.8677 27.5111 20.7319C27.2014 20.3449 26.7773 19.815 26.4505 19.0224C26.3993 18.8987 26.239 18.611 26.0533 18.2777C25.0467 16.4726 22.9523 12.7165 24.2978 10.7931C24.9205 9.90292 26.1605 9.55248 27.9875 9.74795C27.45 8.11051 24.8906 2.98838 18.8176 2.88882C16.9912 2.85845 15.4932 3.4201 14.3677 4.55663C11.8477 7.10167 11.9388 11.7066 11.9402 11.7527C11.9418 11.8116 11.9317 11.8702 11.9106 11.9253C11.8895 11.9803 11.8577 12.0306 11.8172 12.0734C11.7766 12.1161 11.728 12.1505 11.6742 12.1744C11.6204 12.1984 11.5623 12.2116 11.5034 12.2131C11.4445 12.2147 11.3859 12.2046 11.3309 12.1835C11.2758 12.1624 11.2255 12.1306 11.1828 12.0901C11.14 12.0495 11.1057 12.0009 11.0817 11.9471C11.0577 11.8933 11.0446 11.8352 11.043 11.7763C11.0374 11.5719 10.9435 6.73942 13.7301 3.92495C15.0342 2.60785 16.751 1.9576 18.8325 1.99163C22.7177 2.05548 25.2186 4.0307 26.6321 5.67629C28.1731 7.46982 28.9286 9.44814 28.9907 10.1085C29.0371 10.5996 28.6847 10.6977 28.6136 10.7124L28.4516 10.716C26.6586 10.4289 25.5083 10.6283 25.0327 11.3078C24.0092 12.7705 25.9906 16.3236 26.8366 17.8409C27.0526 18.2279 27.2084 18.5078 27.2799 18.6804C27.5577 19.3543 27.9203 19.8071 28.2114 20.1711C28.4676 20.4911 28.6895 20.7687 28.7688 21.0944C28.8056 21.1591 29.3285 21.9325 32.431 21.2921C33.2086 21.1318 33.6749 21.2688 33.8175 21.6999C34.0979 22.5479 32.5246 23.5371 31.6536 23.9415C30.8731 24.3043 29.6275 24.5338 28.5497 24.5338ZM27.229 23.4029C27.3274 23.5022 27.8199 23.6735 28.8397 23.6296C29.7464 23.5908 30.7027 23.3936 31.2764 23.1273C32.0102 22.7864 32.5001 22.4053 32.7538 22.1452L32.6132 22.171C30.6296 22.5805 29.2264 22.526 28.4428 22.0088C28.3902 21.974 28.3395 21.9363 28.291 21.896C28.206 21.9294 28.1276 21.9514 28.0716 21.9671C27.6272 22.0917 27.1676 22.2208 27.229 23.4029ZM14.4146 25.9103C13.9219 25.9103 13.4033 25.843 12.8737 25.7106C12.325 25.5733 11.3999 25.1602 11.414 24.4815C11.43 23.7202 12.5373 23.4918 12.9541 23.406C14.4599 23.0958 14.5581 22.9715 15.0286 22.3738C15.1659 22.1997 15.3366 21.9829 15.5695 21.723C15.9151 21.336 16.2928 21.14 16.6922 21.14C16.9704 21.14 17.1985 21.2342 17.3492 21.2969C17.8296 21.496 18.2304 21.9775 18.3952 22.5533C18.544 23.0727 18.4728 23.5728 18.1955 23.9612C17.2851 25.2361 15.9776 25.9103 14.4146 25.9103ZM12.3835 24.52C12.5187 24.6247 12.7899 24.7644 13.0916 24.8398C13.5504 24.9546 13.9953 25.0128 14.4149 25.0128C15.6935 25.0128 16.7201 24.4835 17.4656 23.4395C17.6212 23.2218 17.5745 22.9453 17.5329 22.7999C17.4457 22.4953 17.2291 22.2183 17.0061 22.1258C16.8851 22.0757 16.7847 22.0374 16.6925 22.0374C16.643 22.0374 16.4922 22.0374 16.2386 22.3212C16.0635 22.5181 15.8952 22.7209 15.734 22.9293C15.1479 23.6735 14.8793 23.926 13.1355 24.2852C12.71 24.3724 12.4917 24.4613 12.3835 24.52ZM15.8341 22.45C15.727 22.4499 15.6234 22.4114 15.5422 22.3416C15.461 22.2717 15.4074 22.1751 15.3911 22.0692C15.38 21.9947 15.3725 21.9197 15.3686 21.8445C14.2256 21.8231 13.1229 21.3326 12.2856 20.4591C11.227 19.3546 10.7452 17.8243 10.964 16.2609C11.2016 14.5629 11.1128 13.0642 11.065 12.2589C11.0517 12.0351 11.0422 11.8734 11.0427 11.7614C11.0436 11.6194 11.0464 11.2428 12.3053 10.6046C12.753 10.3777 13.6508 9.98167 14.6315 9.88014C16.2563 9.71223 17.3273 10.4359 17.6479 11.9181C18.5133 15.9197 17.7165 17.6896 17.1346 18.9822C17.0263 19.223 16.924 19.4502 16.8421 19.6704L16.7698 19.8645C16.4624 20.6889 16.1966 21.401 16.2782 21.9328C16.2872 21.9911 16.2846 22.0505 16.2705 22.1078C16.2565 22.165 16.2313 22.2189 16.1965 22.2664C16.1616 22.3139 16.1177 22.3541 16.0673 22.3846C16.0169 22.4152 15.961 22.4355 15.9027 22.4444L15.8341 22.45ZM11.943 11.8857L11.9605 12.2061C12.01 13.0425 12.1022 14.5989 11.8525 16.3854C11.6722 17.675 12.0659 18.9336 12.9333 19.8381C13.6187 20.553 14.5207 20.9476 15.4477 20.9476H15.4668C15.5706 20.5103 15.743 20.0484 15.9286 19.5509L16.0003 19.358C16.0929 19.1094 16.2011 18.8686 16.3159 18.6138C16.8759 17.3695 17.5731 15.8207 16.7701 12.1079C16.6112 11.3724 16.2256 10.9469 15.592 10.8066C14.2903 10.5191 12.3506 11.4982 11.943 11.8857ZM14.6515 11.6953C14.629 11.8539 14.942 12.2775 15.3504 12.334C15.7579 12.3911 16.1066 12.0598 16.1289 11.9012C16.1511 11.7426 15.8383 11.5676 15.43 11.5108C15.0219 11.454 14.6731 11.5367 14.6515 11.6953ZM15.444 12.4901L15.3296 12.4823C15.0764 12.4471 14.8205 12.2876 14.6453 12.0553C14.5837 11.9738 14.4833 11.8157 14.5032 11.6745C14.5316 11.4675 14.7842 11.3435 15.1782 11.3435C15.2663 11.3435 15.358 11.3499 15.4502 11.3629C15.6656 11.3927 15.8656 11.4549 16.0133 11.5373C16.2692 11.6801 16.2881 11.8396 16.2765 11.922C16.245 12.1507 15.8814 12.4901 15.444 12.4901ZM14.8002 11.7218C14.8129 11.8196 15.0553 12.1425 15.3709 12.1861L15.4443 12.1912C15.7357 12.1912 15.9534 11.9619 15.979 11.8869C15.952 11.8357 15.7646 11.7085 15.4094 11.659C15.3329 11.6481 15.2558 11.6425 15.1785 11.6424C14.9501 11.6424 14.8289 11.6939 14.8002 11.7218ZM27.0641 11.3716C27.0864 11.5302 26.7736 11.9538 26.3655 12.0106C25.9577 12.0674 25.6087 11.7364 25.5862 11.5778C25.5648 11.4191 25.8776 11.2439 26.2854 11.1874C26.6932 11.1303 27.0416 11.2133 27.0641 11.3716ZM26.2713 12.0916C25.8787 12.0916 25.5398 11.7862 25.5119 11.5879C25.4796 11.3499 25.8714 11.1691 26.2747 11.1131C26.3636 11.1008 26.4516 11.0946 26.5362 11.0946C26.8844 11.0946 27.1151 11.1967 27.1381 11.3615C27.153 11.4681 27.0712 11.6326 26.9303 11.7811C26.8372 11.8787 26.6417 12.0477 26.3754 12.0846L26.2713 12.0916ZM26.5365 11.2442C26.4589 11.2442 26.3779 11.2501 26.2958 11.2614C25.8905 11.3179 25.6486 11.4804 25.6604 11.5676C25.6739 11.6635 25.9327 11.9423 26.2716 11.9423L26.3551 11.9364C26.5765 11.9057 26.7427 11.7611 26.822 11.6779C26.9466 11.5471 26.9961 11.4239 26.9902 11.382C26.9823 11.3263 26.8327 11.2442 26.5365 11.2442ZM27.6517 20.4813C27.5704 20.4813 27.4906 20.4593 27.4209 20.4175C27.3511 20.3756 27.2941 20.3157 27.2558 20.2439C27.2176 20.1722 27.1995 20.0914 27.2037 20.0102C27.2078 19.929 27.234 19.8504 27.2793 19.7829C28.235 18.3556 28.0601 16.9001 27.891 15.4925C27.8187 14.8929 27.7445 14.2727 27.7636 13.6776C27.7833 13.0653 27.8612 12.5602 27.9363 12.0716C28.0255 11.4928 28.1098 10.9461 28.075 10.2969C28.0718 10.2381 28.0802 10.1792 28.0998 10.1237C28.1194 10.0681 28.1497 10.0169 28.1891 9.97306C28.2284 9.92921 28.276 9.89354 28.3292 9.86809C28.3823 9.84264 28.44 9.8279 28.4988 9.82473C28.5576 9.82155 28.6165 9.83 28.6721 9.84958C28.7277 9.86916 28.7788 9.89949 28.8227 9.93885C28.8665 9.97821 28.9022 10.0258 28.9277 10.079C28.9531 10.1321 28.9678 10.1897 28.971 10.2486C29.011 10.9905 28.9156 11.6093 28.8234 12.208C28.7522 12.6701 28.6785 13.148 28.6608 13.7063C28.6436 14.2333 28.7109 14.793 28.782 15.3853C28.962 16.8821 29.1659 18.5786 28.0252 20.2822C27.9841 20.3435 27.9285 20.3938 27.8634 20.4285C27.7982 20.4632 27.7255 20.4814 27.6517 20.4813Z" fill="white"/>
</svg>
