<svg width="36" height="36" viewBox="0 0 36 36" fill="none" xmlns="http://www.w3.org/2000/svg">
<g clip-path="url(#clip0_436_340)">
<path d="M18.6911 0.00396421C18.3667 -0.0174462 18.0427 0.0506577 17.7545 0.200841C17.4662 0.351025 17.2247 0.577516 17.0564 0.855589L3.59299 22.8133C3.41757 23.0993 3.32585 23.4287 3.32823 23.7642C3.33062 24.0997 3.42702 24.4278 3.60649 24.7112L10.235 35.1698C10.4452 35.4994 10.7573 35.7514 11.1238 35.8876C11.4902 36.0238 11.8911 36.0367 12.2656 35.9244L31.394 30.1849C31.6397 30.1114 31.8667 29.9859 32.0597 29.8171C32.2527 29.6482 32.4073 29.4399 32.5129 29.2062C32.6184 28.9725 32.6726 28.7189 32.6717 28.4624C32.6709 28.206 32.6149 27.9527 32.5077 27.7197L20.2115 1.04318C20.0778 0.747333 19.8653 0.493927 19.5973 0.310652C19.3293 0.127377 19.0161 0.0212839 18.6919 0.00396421H18.6911ZM19.1959 6.7399C19.3389 6.72281 19.4836 6.75294 19.6079 6.8257C19.7322 6.89846 19.8293 7.00986 19.8844 7.14293L28.3669 26.7697C28.4047 26.8569 28.4235 26.9512 28.4222 27.0462C28.4209 27.1412 28.3995 27.2349 28.3593 27.3211C28.3191 27.4072 28.2611 27.4839 28.1891 27.5459C28.1171 27.608 28.0328 27.6541 27.9416 27.6812L14.724 31.6255C14.613 31.6585 14.4952 31.6622 14.3823 31.6363C14.2694 31.6103 14.1651 31.5557 14.0795 31.4776C13.9939 31.3995 13.93 31.3006 13.8939 31.1905C13.8578 31.0804 13.8508 30.9628 13.8735 30.8492L18.607 7.27709C18.6335 7.1355 18.7055 7.00643 18.812 6.90948C18.9186 6.81253 19.0538 6.75299 19.1973 6.7399H19.1959Z" fill="#B3A2DD"/>
</g>
<defs>
<clipPath id="clip0_436_340">
<rect width="36" height="36" fill="white"/>
</clipPath>
</defs>
</svg>
