<svg width="36" height="36" viewBox="0 0 36 36" fill="none" xmlns="http://www.w3.org/2000/svg">
<path d="M17.8286 3.44474C16.6412 3.45037 15.5077 3.55134 14.5098 3.72796C11.5708 4.24715 11.0375 5.3339 11.0375 7.33837V9.98521H17.9824V10.8675H8.4309C6.41265 10.8675 4.64528 12.0805 4.09234 14.389C3.45447 17.0342 3.42634 18.6851 4.09234 21.4473C4.58594 23.5035 5.76494 24.9682 7.78347 24.9682H10.1716V21.7952C10.1716 19.5027 12.1547 17.4808 14.5101 17.4808H21.4472C23.3782 17.4808 24.9195 15.8906 24.9195 13.9517V7.33865C24.9195 5.45624 23.3315 4.0424 21.4472 3.72824C20.2535 3.52968 19.0157 3.4394 17.8286 3.44474ZM14.0728 5.57352C14.79 5.57352 15.3761 6.16893 15.3761 6.90131C15.3761 7.63059 14.7902 8.22037 14.0728 8.22037C13.3528 8.22037 12.7697 7.63059 12.7697 6.90131C12.7695 6.16893 13.3528 5.57352 14.0728 5.57352Z" fill="url(#paint0_linear_436_300)"/>
<path d="M25.7856 10.8675V13.9517C25.7856 16.3423 23.7584 18.3547 21.4471 18.3547H14.51C12.6099 18.3547 11.0377 19.9812 11.0377 21.8841V28.4977C11.0377 30.3795 12.674 31.4868 14.51 32.0265C16.7083 32.6726 18.8165 32.7896 21.4471 32.0265C23.1953 31.52 24.9194 30.5013 24.9194 28.4977V25.8506H17.9826V24.968H28.3923C30.4105 24.968 31.1631 23.5603 31.8651 21.447C32.5902 19.2716 32.559 17.1793 31.8651 14.3888C31.3662 12.3792 30.4136 10.8672 28.3923 10.8672L25.7856 10.8675ZM21.8838 27.6151C22.6041 27.6151 23.1872 28.2049 23.1872 28.9348C23.1872 29.6666 22.6038 30.262 21.8838 30.262C21.1667 30.262 20.5808 29.6666 20.5808 28.9348C20.5808 28.2049 21.1667 27.6151 21.8838 27.6151Z" fill="url(#paint1_linear_436_300)"/>
<path opacity="0.444" d="M27.3681 33.6366C27.3681 34.6331 23.2011 35.4411 18.0612 35.4411C12.9211 35.4411 8.75409 34.6331 8.75409 33.6366C8.75409 32.6399 12.9208 31.8318 18.0612 31.8318C23.2011 31.8318 27.3681 32.6396 27.3681 33.6366Z" fill="url(#paint2_radial_436_300)"/>
<defs>
<linearGradient id="paint0_linear_436_300" x1="2.90712" y1="4.27236" x2="18.9254" y2="17.9326" gradientUnits="userSpaceOnUse">
<stop stop-color="#5A9FD4"/>
<stop offset="1" stop-color="#306998"/>
</linearGradient>
<linearGradient id="paint1_linear_436_300" x1="24.9522" y1="26.4241" x2="19.2078" y2="18.3685" gradientUnits="userSpaceOnUse">
<stop stop-color="#FFD43B"/>
<stop offset="1" stop-color="#FFE873"/>
</linearGradient>
<radialGradient id="paint2_radial_436_300" cx="0" cy="0" r="1" gradientUnits="userSpaceOnUse" gradientTransform="translate(18.0236 33.585) rotate(-90) scale(1.80515 7.93515)">
<stop stop-color="#B8B8B8" stop-opacity="0.498"/>
<stop offset="1" stop-color="#7F7F7F" stop-opacity="0"/>
</radialGradient>
</defs>
</svg>
