<svg width="36" height="36" viewBox="0 0 36 36" fill="none" xmlns="http://www.w3.org/2000/svg">
<g clip-path="url(#clip0_436_342)">
<path d="M33.6143 14.3966H22.3007C22.1662 14.3966 22.0331 14.3701 21.9089 14.3186C21.7846 14.2671 21.6718 14.1916 21.5767 14.0965C21.4816 14.0014 21.4062 13.8885 21.3548 13.7642C21.3034 13.64 21.2769 13.5068 21.277 13.3723V1.58064C21.2775 1.37284 21.237 1.16698 21.1577 0.974903C21.0784 0.782827 20.9619 0.608321 20.8149 0.461424C20.668 0.314528 20.4934 0.198139 20.3013 0.118952C20.1092 0.0397649 19.9033 -0.000656994 19.6955 1.10819e-05H15.6545C15.4466 -0.000768298 15.2406 0.0395694 15.0484 0.118703C14.8562 0.197836 14.6815 0.314203 14.5344 0.461107C14.3873 0.608012 14.2707 0.782553 14.1913 0.974686C14.112 1.16682 14.0714 1.37275 14.0719 1.58064V13.2936C14.0723 13.4385 14.0441 13.5822 13.9889 13.7162C13.9337 13.8503 13.8525 13.9721 13.7501 14.0746C13.6476 14.1772 13.5259 14.2586 13.3919 14.314C13.258 14.3694 13.1144 14.3977 12.9694 14.3975L9.26027 14.4107C8.64827 14.4107 8.14315 13.9185 8.15608 13.3065L8.18252 1.58204C8.18323 1.37407 8.14278 1.168 8.06351 0.975726C7.98424 0.783448 7.86771 0.608753 7.72063 0.461703C7.57356 0.314653 7.39884 0.198155 7.20655 0.118917C7.01426 0.039679 6.80819 -0.000732101 6.60021 1.10819e-05H2.55949C2.35156 -0.000582707 2.14555 0.0399304 1.95333 0.119221C1.7611 0.198512 1.58645 0.315016 1.4394 0.462036C1.29236 0.609056 1.17582 0.783691 1.0965 0.975902C1.01717 1.16811 0.976622 1.37411 0.977179 1.58204V34.591C0.977179 35.3607 1.60155 36 2.38624 36H33.6143C33.9878 35.9996 34.346 35.8509 34.61 35.5867C34.8741 35.3225 35.0226 34.9642 35.0228 34.5907V15.8049C35.024 15.6196 34.9884 15.4359 34.918 15.2645C34.8476 15.0931 34.7439 14.9373 34.6129 14.8063C34.4818 14.6753 34.3261 14.5716 34.1547 14.5013C33.9832 14.431 33.7996 14.3954 33.6143 14.3966ZM28.3107 26.7868C28.3092 27.273 28.1153 27.7389 27.7715 28.0827C27.4277 28.4264 26.9618 28.6202 26.4756 28.6217H23.2851C22.799 28.6201 22.3332 28.4262 21.9895 28.0825C21.6458 27.7387 21.452 27.2729 21.4505 26.7868V23.5969C21.452 23.1108 21.6458 22.645 21.9895 22.3013C22.3332 21.9575 22.799 21.7636 23.2851 21.762H26.4753C26.9615 21.7635 27.4273 21.9572 27.7711 22.301C28.1149 22.6447 28.3088 23.1104 28.3105 23.5966L28.3107 26.7868Z" fill="#FF6600"/>
</g>
<defs>
<clipPath id="clip0_436_342">
<rect width="36" height="36" fill="white"/>
</clipPath>
</defs>
</svg>
