<svg width="36" height="36" viewBox="0 0 36 36" fill="none" xmlns="http://www.w3.org/2000/svg">
<path d="M4.9061 35.1715C4.9061 35.1715 4.95898 26.8639 4.95898 18.4191C4.95898 2.06188 3.58057 0.843506 10.9198 0.843506H31.3484V24.4373C31.3484 32.204 32.8002 35.2466 24.638 35.2466C16.4759 35.2468 4.9061 35.1715 4.9061 35.1715Z" fill="#A62C39"/>
<path d="M21.7491 3.92934C21.7491 3.92934 23.0584 4.19147 24.1926 6.111C25.3272 8.03082 31.3488 22.9539 31.3488 22.9539V10.8233L25.7637 1.74741L27.3345 3.6675L30.3017 1.22372L26.4618 0.962158L21.7491 3.92934Z" fill="url(#paint0_linear_436_264)"/>
<path opacity="0.668" d="M10.1425 1.04935C10.1425 1.04935 18.7822 6.80906 22.9711 7.94363C25.8247 8.7187 28.6755 9.50414 31.5234 10.2999L21.5747 34.7349L25.8508 34.9096L31.4365 21.121L31.2615 0.962158L10.1425 1.04935Z" fill="url(#paint1_radial_436_264)"/>
<path d="M18.171 26.7935L27.1586 35.4372L10.4043 35.0839C10.4043 35.0839 9.88085 29.7607 10.0552 26.9682L11.1023 24.1757L18.171 26.7935Z" fill="white" fill-opacity="0.44"/>
<path d="M26.4615 35.2589L18.3458 26.881L10.9278 24.0885L5.16807 11.2601L11.2771 1.0496L7.17535 0.874939L5.5171 2.446L4.90623 3.66775L4.46973 35.4335L26.4615 35.2589Z" fill="black" fill-opacity="0.362"/>
<path opacity="0.5" d="M31.4362 21.9065C31.4362 21.9065 23.233 24.5247 18.346 26.9682C13.459 29.4117 10.8408 35.3457 10.8408 35.3457C10.8408 35.3457 21.3129 34.8223 25.24 34.9967C29.1671 35.1714 30.9997 35.1714 31.3487 29.6735C31.6978 24.1756 31.4362 21.9065 31.4362 21.9065Z" fill="#83222D"/>
<path d="M7.43494 27.1187V32.2728H8.7495V30.9304L9.94594 32.1269H11.9631L10.3633 30.5271C10.3633 30.5271 11.5145 30.5083 11.6014 28.8441C11.6014 27.3169 10.4491 27.1189 9.11794 27.1189L7.43494 27.1187ZM8.81222 28.5167H9.94594V29.435H8.81222V28.5167ZM14.5019 27.1395C13.7822 27.1352 12.784 27.2022 12.784 28.5584V32.1407H14.1332V31.2643H15.441V32.1198H16.7972V28.364C16.7972 27.1859 15.4882 27.1397 14.7871 27.1397L14.5019 27.1395ZM14.154 28.4332H15.4199V29.8454H14.154V28.4332ZM18.1494 27.1426H19.5456V32.0732H18.1494V27.1426ZM21.0072 27.2084V32.139H24.3673V30.83H22.382V27.1864L21.0072 27.2084ZM28.8178 27.1645V28.4954H26.5706V28.9755H27.5305C28.0326 28.9755 29.0797 28.9538 29.0797 30.5246C29.0797 32.0954 28.3594 32.1828 26.8977 32.1828H25.1306V30.9827H27.1596C27.7704 30.9827 27.8042 30.7836 27.8042 30.6104C27.8042 30.4374 27.492 30.3567 26.8567 30.3567C26.2213 30.3567 25.0434 30.0445 25.0434 28.8227C25.0434 27.601 25.6543 27.1428 26.8761 27.1428C28.0981 27.1426 28.8178 27.1645 28.8178 27.1645Z" fill="white"/>
<path d="M8.65897 25.6593H20.2659C20.2659 25.6593 17.6913 19.8123 18.3461 14.445C19.0003 9.07816 23.2331 6.63438 25.633 6.37254C28.0329 6.11069 29.3418 7.59429 29.3418 7.59429L29.8652 6.80903C29.8652 6.80903 26.4182 3.31816 22.0546 3.71107C17.6913 4.10341 14.6805 6.98341 12.8043 10.474C10.9281 13.9649 9.83713 16.4087 9.09519 20.0736C8.35354 23.7392 8.65897 25.6593 8.65897 25.6593ZM6.34654 19.8123L8.6151 19.9867L8.22247 22.2558L6.08441 21.994L6.34654 19.8123ZM9.92432 15.0123L10.5352 13.3107L8.52791 12.5252L7.87344 14.3578L9.92432 15.0123ZM12.7604 9.16535L13.9386 7.76894L12.4114 6.76544L11.1899 8.11825L12.7604 9.16535ZM15.8584 3.75494L16.9058 5.02029L18.3458 4.19144L17.2984 3.01329L15.8584 3.75494ZM20.9639 2.31494L21.2255 3.58029L23.0145 3.53669L22.8402 2.40213L20.9639 2.31494Z" fill="white"/>
<path d="M27.0289 3.66748L26.9853 4.45273L28.2068 5.10748L28.4686 4.71486L27.0289 3.66748ZM26.7674 7.02729V7.68176L27.9455 7.81254V7.28914L26.7674 7.02729ZM23.0146 7.59429L23.5819 8.64167L24.411 7.9872L24.2364 7.28914L23.0146 7.59429ZM21.2256 8.94711L22.0983 10.2563L21.5746 11.1724L20.3093 9.77595L21.2256 8.94711ZM19.4802 12.569L18.9129 13.7033L20.3965 14.9689L20.7455 13.5287L19.4802 12.569ZM18.8693 16.5394L18.7821 18.0666L20.6147 18.8519L20.5273 17.4122L18.8693 16.5394ZM19.393 21.9501L19.8295 23.5212L22.1422 23.652L21.3128 21.9501H19.393Z" fill="white"/>
<path d="M4.9061 35.1715C4.9061 35.1715 4.95898 26.8639 4.95898 18.4191C4.95898 2.06188 3.58057 0.843506 10.9198 0.843506H31.3484V24.4373C31.3484 32.204 32.4512 35.2466 24.638 35.2466C16.8249 35.2468 4.9061 35.1715 4.9061 35.1715Z" stroke="#5E000E" stroke-width="0.84375"/>
<defs>
<linearGradient id="paint0_linear_436_264" x1="24.5788" y1="14.2242" x2="30.9103" y2="10.9077" gradientUnits="userSpaceOnUse">
<stop stop-color="white"/>
<stop offset="1" stop-color="#C0815E"/>
</linearGradient>
<radialGradient id="paint1_radial_436_264" cx="0" cy="0" r="1" gradientUnits="userSpaceOnUse" gradientTransform="translate(20.8328 17.7945) scale(10.8017 17.0883)">
<stop stop-color="white"/>
<stop offset="1" stop-color="#A94436"/>
</radialGradient>
</defs>
</svg>
