<svg width="36" height="36" viewBox="0 0 36 36" fill="none" xmlns="http://www.w3.org/2000/svg">
<path d="M24.4808 0C22.6555 0 20.2663 1.30106 17.8506 3.55753C15.4347 1.31428 13.0457 0.0264375 11.2207 0.0264375V0.0329062C10.6633 0.0329062 10.1587 0.152719 9.72052 0.405C7.85583 1.47994 7.43789 4.83159 8.40005 9.03909C4.27214 10.3132 1.58423 12.3508 1.58423 14.501C1.58423 16.6582 4.28536 18.7017 8.42648 19.969C7.4708 24.19 7.89577 27.5479 9.76748 28.6231C10.1986 28.8751 10.7029 28.9949 11.2604 28.9949C13.0857 28.9949 15.4749 27.6938 17.8905 25.4377C20.3065 27.6806 22.6954 28.9688 24.5205 28.9688C25.0773 28.9688 25.5819 28.8492 26.0201 28.5969C27.8848 27.5217 28.303 24.1701 27.3405 19.9626C31.4552 18.6952 34.1431 16.6514 34.1431 14.5007C34.1431 12.3443 31.4423 10.3002 27.3009 9.03263C28.2566 4.81191 27.8316 1.45406 25.9602 0.378844C25.5307 0.127406 25.0284 0.00815625 24.4808 0.0073125V0ZM24.4738 1.4805V1.48641C24.7789 1.48641 25.025 1.54631 25.2303 1.65909C26.1331 2.17659 26.5246 4.14816 26.2195 6.68306C26.1464 7.30687 26.0271 7.96387 25.8809 8.63409C24.5801 8.31572 23.1598 8.07019 21.6666 7.91072C20.7708 6.68306 19.8413 5.56791 18.9059 4.59197C21.0659 2.58525 23.0934 1.48444 24.4738 1.4805ZM11.2207 1.50637C12.5946 1.50637 14.6317 2.60128 16.7951 4.599C15.8068 5.63889 14.891 6.7454 14.0543 7.91072C12.5544 8.07019 11.1349 8.31572 9.83386 8.64084C9.68736 8.00523 9.57201 7.36284 9.4882 6.71597C9.17658 4.18078 9.56133 2.21034 10.4574 1.68581C10.6562 1.56656 10.9158 1.51341 11.2207 1.51341V1.50637ZM17.8441 5.64075C18.4952 6.31663 19.111 7.02557 19.6891 7.76475C19.0811 7.73586 18.4725 7.72048 17.8638 7.71863C17.2397 7.71863 16.623 7.73156 16.0191 7.76475C16.5886 7.02448 17.1978 6.31554 17.8439 5.64103L17.8441 5.64075ZM17.8638 9.20503C18.8659 9.20503 19.8683 9.25172 20.8504 9.33131C21.4199 10.1497 21.9557 10.9911 22.4564 11.8533C22.9543 12.7133 23.415 13.5945 23.837 14.4942C23.4147 15.3948 22.9564 16.2781 22.4631 17.1419C21.9456 18.0377 21.414 18.8876 20.8636 19.6774C19.8745 19.7637 18.8724 19.8096 17.8638 19.8096C16.8615 19.8096 15.8596 19.7637 14.8775 19.6841C14.308 18.8658 13.7723 18.0245 13.2716 17.1624C12.7736 16.3021 12.313 15.4207 11.8909 14.5207C12.3106 13.6187 12.769 12.7353 13.2648 11.873C13.7823 10.9772 14.313 10.1275 14.864 9.33778C15.8616 9.25006 16.8624 9.20576 17.8638 9.20503ZM12.9324 9.54984C12.6073 10.0609 12.2827 10.5848 11.9773 11.1226C11.6769 11.6466 11.3892 12.1778 11.1144 12.7156C10.766 11.8508 10.4604 10.9695 10.1986 10.0747C11.0677 9.86878 11.9835 9.68934 12.9324 9.54984ZM22.7818 9.54984C23.724 9.68934 24.633 9.86203 25.5026 10.0747C25.2568 10.9308 24.9513 11.8128 24.6065 12.6959C24.332 12.1566 24.0421 11.6254 23.7369 11.1029C23.4317 10.5719 23.1069 10.0544 22.7818 9.54984ZM26.9358 10.4662C27.5679 10.6623 28.1903 10.8881 28.8011 11.1428C31.1504 12.1449 32.67 13.4589 32.67 14.501C32.6632 15.543 31.1433 16.8635 28.794 17.8591C28.2231 18.1043 27.5999 18.3237 26.9561 18.5293C26.5778 17.2288 26.0797 15.8743 25.4626 14.4878C26.073 13.1074 26.564 11.7605 26.9356 10.4659L26.9358 10.4662ZM8.76483 10.4729C9.14311 11.7734 9.6412 13.1271 10.2583 14.5142C9.64795 15.8946 9.15661 17.242 8.78508 18.5361C8.15498 18.3408 7.53483 18.1148 6.92686 17.8588C4.57758 16.8567 3.05742 15.543 3.05742 14.5007C3.05742 13.4589 4.57758 12.1382 6.92686 11.1426C7.4978 10.8973 8.12105 10.6785 8.76483 10.4729ZM17.8571 11.4683C16.1822 11.4683 14.8244 12.8258 14.8244 14.501C14.8244 16.1761 16.1822 17.5337 17.8571 17.5337C19.5322 17.5337 20.8898 16.1761 20.8898 14.501C20.8898 12.8258 19.5322 11.4683 17.8571 11.4683ZM24.6065 16.2796C24.9548 17.1444 25.2605 18.0258 25.5223 18.9205C24.6198 19.1403 23.7076 19.3176 22.7885 19.4521C23.12 18.9357 23.4385 18.4111 23.7436 17.8788C24.0441 17.3527 24.3318 16.8195 24.6065 16.2796ZM11.1144 16.306C11.3888 16.8453 11.6787 17.3765 11.9837 17.899C12.2917 18.4231 12.6106 18.9407 12.94 19.4515C11.9978 19.3123 11.0877 19.1393 10.2183 18.927C10.4639 18.0709 10.7696 17.1889 11.1144 16.306ZM25.8941 20.3541C26.0468 21.0246 26.166 21.6683 26.2392 22.2857C26.5508 24.8206 26.166 26.7913 25.2703 27.3156C25.0711 27.4351 24.8127 27.4888 24.5072 27.4888C23.1333 27.4888 21.0957 26.3936 18.932 24.3959C19.9205 23.356 20.8365 22.2495 21.6734 21.0842C23.173 20.925 24.5936 20.6792 25.8941 20.3541ZM9.84708 20.3673C11.1479 20.6859 12.5676 20.9315 14.0608 21.0907C14.9565 22.3186 15.8861 23.4335 16.8218 24.4094C14.6581 26.4203 12.6275 27.5217 11.2474 27.5217C10.9487 27.515 10.6965 27.4553 10.4973 27.3426C9.5948 26.8251 9.20358 24.8538 9.50873 22.3186C9.58186 21.6948 9.70083 21.0378 9.84708 20.3673ZM16.0323 21.2369C16.6297 21.2633 17.24 21.283 17.8571 21.283C18.4809 21.283 19.0982 21.2701 19.7021 21.2369C19.1324 21.9771 18.523 22.6859 17.8768 23.3603C17.2597 22.7233 16.6429 22.0132 16.0323 21.2369ZM27.9545 31.6201C27.8493 31.6201 27.7689 31.651 27.7146 31.7112C27.662 31.7717 27.6356 31.8462 27.6356 31.9337C27.6356 32.0217 27.662 32.0943 27.7143 32.1531C27.7692 32.2113 27.8493 32.2408 27.9548 32.2408C28.0603 32.2408 28.1401 32.2113 28.1947 32.1531C28.2496 32.0934 28.2789 32.0147 28.2763 31.9337C28.2763 31.8459 28.2493 31.7717 28.1947 31.7115C28.1401 31.6507 28.0594 31.6201 27.9545 31.6201ZM1.49677 31.6792V35.9409H2.06152V34.2169H3.06277L3.98808 35.9409H4.59108V35.9058L3.58983 34.0971C3.84577 33.9995 4.04433 33.8518 4.18692 33.6547C4.3312 33.4578 4.40348 33.2266 4.40348 32.9611C4.40348 32.5434 4.27411 32.2253 4.01423 32.0068C3.75689 31.7883 3.38761 31.6789 2.90752 31.6789L1.49677 31.6792ZM18.2207 31.6792V35.9409H18.786V32.6568L20.9317 35.9409H21.497V31.6792H20.9373V34.9782L18.786 31.6792H18.2207ZM14.8809 32.0068V32.7738H14.3043V33.1923H14.8809V35.1565C14.8809 35.426 14.9422 35.6338 15.0648 35.7801C15.188 35.9263 15.3708 35.9997 15.6127 35.9997C15.7477 35.9997 15.8861 35.98 16.0284 35.9409V35.5022C15.9193 35.5255 15.8332 35.5373 15.7708 35.5373C15.6442 35.5373 15.5542 35.5058 15.5016 35.4434C15.449 35.3787 15.4229 35.2834 15.4229 35.1565V33.1923H16.0135V32.7738H15.4229V32.0068H14.8809ZM25.8645 32.0068V32.7738H25.2877V33.1923H25.8643V35.1565C25.8643 35.426 25.9261 35.6338 26.0488 35.7801C26.172 35.9263 26.3539 35.9997 26.5958 35.9997C26.7308 35.9997 26.8692 35.98 27.0118 35.9409V35.5022C26.9021 35.5255 26.8166 35.5373 26.7541 35.5373C26.6273 35.5373 26.5376 35.5058 26.485 35.4434C26.4324 35.3787 26.406 35.2834 26.406 35.1565V33.1923H26.9966V32.7738H26.406V32.0068H25.8645ZM2.06152 32.1418H2.92214C3.21886 32.1432 3.44527 32.2149 3.60136 32.3556C3.75942 32.4956 3.83845 32.6976 3.83845 32.9611C3.83845 33.203 3.75548 33.3962 3.58983 33.5405C3.42586 33.685 3.20452 33.7576 2.92495 33.7576H2.06152V32.1418ZM6.3562 32.715C6.1042 32.715 5.8702 32.7853 5.65364 32.9259C5.43877 33.0643 5.27114 33.2578 5.1502 33.5059C5.03067 33.7517 4.97133 34.0318 4.97133 34.3457V34.4453C4.97133 34.9175 5.10633 35.2949 5.37548 35.5778C5.64492 35.8591 5.99423 35.9997 6.4237 35.9997C6.95442 35.9997 7.35239 35.7955 7.61789 35.3877L7.28714 35.1301C7.19193 35.255 7.07352 35.3605 6.93839 35.4406C6.80564 35.5188 6.64392 35.5576 6.45267 35.5576C6.18352 35.5576 5.96105 35.462 5.78527 35.2707C5.61173 35.0775 5.52089 34.8252 5.51302 34.5127H7.65839V34.2869C7.65839 33.7815 7.54477 33.3931 7.31639 33.122C7.08802 32.8506 6.76795 32.715 6.3562 32.715ZM9.52083 32.715C9.30238 32.7128 9.08594 32.7569 8.88577 32.8444C8.69452 32.9299 8.5418 33.0469 8.42873 33.1951C8.31764 33.3413 8.26167 33.4941 8.26167 33.6521H8.80645C8.80645 33.5135 8.87198 33.3953 9.00277 33.2977C9.13355 33.2002 9.29527 33.1515 9.4882 33.1515C9.7087 33.1515 9.87633 33.208 9.98939 33.3214C10.1025 33.4325 10.159 33.5824 10.159 33.7717V34.0206H9.63164C9.17686 34.0206 8.82361 34.1123 8.57189 34.2959C8.32214 34.4773 8.19727 34.7335 8.19727 35.0632C8.19727 35.3346 8.29711 35.5584 8.49623 35.7362C8.69733 35.912 8.95355 35.9997 9.26573 35.9997C9.61505 35.9997 9.91598 35.8689 10.1677 35.6077C10.1874 35.768 10.2127 35.8785 10.2436 35.9409H10.8118V35.8943C10.7375 35.7227 10.7007 35.4915 10.7007 35.2004V33.7427C10.6928 33.4226 10.5854 33.172 10.3781 32.9906C10.1714 32.807 9.88589 32.715 9.52083 32.715ZM12.8165 32.715C12.528 32.715 12.2774 32.7814 12.0645 32.9147C11.8535 33.0469 11.6918 33.2333 11.5785 33.4735C11.4651 33.7134 11.4086 33.9874 11.4086 34.2959V34.3865C11.4086 34.8863 11.5357 35.2808 11.7894 35.5697C12.0453 35.8566 12.3885 36 12.8199 36C13.0348 36 13.2373 35.9508 13.4285 35.8532C13.6131 35.7631 13.7721 35.6282 13.8912 35.4608C14.0065 35.2969 14.0692 35.1245 14.079 34.9428H13.5663C13.5509 35.1186 13.4707 35.2648 13.3264 35.3818C13.1837 35.4983 13.0044 35.5606 12.8202 35.5576C12.5409 35.5576 12.326 35.4592 12.1755 35.2623C12.0254 35.0651 11.9505 34.7839 11.9505 34.4188V34.3167C11.9505 33.9421 12.0254 33.6558 12.1755 33.4589C12.3277 33.2595 12.5415 33.1608 12.8168 33.1608C13.0215 33.1608 13.1937 33.2266 13.3318 33.3593C13.4724 33.4898 13.5511 33.658 13.5663 33.8628H14.079C14.0633 33.5233 13.937 33.2471 13.701 33.0345C13.4668 32.8219 13.1717 32.715 12.8165 32.715ZM23.6424 32.715C23.424 32.7128 23.2077 32.7569 23.0076 32.8444C22.8164 32.9299 22.6636 33.0469 22.5506 33.1951C22.4392 33.3413 22.3841 33.4941 22.3841 33.6521H22.9283C22.9283 33.5135 22.9938 33.3953 23.1246 33.2977C23.2554 33.2002 23.4171 33.1515 23.61 33.1515C23.8305 33.1515 23.9982 33.208 24.1112 33.3214C24.2243 33.4325 24.2808 33.5824 24.2808 33.7717V34.0206H23.754C23.2993 34.0206 22.9455 34.1123 22.6937 34.2959C22.444 34.4773 22.3191 34.7335 22.3191 35.0632C22.3191 35.3346 22.419 35.5584 22.6181 35.7362C22.8189 35.912 23.0754 35.9997 23.3876 35.9997C23.7369 35.9997 24.0378 35.8689 24.2895 35.6077C24.3092 35.768 24.334 35.8785 24.3655 35.9409H24.9336V35.8943C24.8594 35.7227 24.8225 35.4915 24.8225 35.2004V33.7427C24.8146 33.4226 24.7069 33.172 24.4999 32.9906C24.2932 32.807 24.0077 32.715 23.6424 32.715ZM33.2007 32.715C32.9508 32.7144 32.7063 32.7878 32.4981 32.9259C32.2832 33.0643 32.1153 33.2578 31.9944 33.5059C31.8754 33.7517 31.8158 34.0318 31.8158 34.3457V34.4453C31.8158 34.9175 31.9508 35.2949 32.2202 35.5778C32.4894 35.8591 32.8384 35.9997 33.2676 35.9997C33.7986 35.9997 34.1969 35.7955 34.4624 35.3877L34.1316 35.1301C34.0364 35.255 33.918 35.3604 33.7829 35.4406C33.6501 35.5188 33.4887 35.5576 33.2974 35.5576C33.028 35.5576 32.8052 35.462 32.63 35.2707C32.4562 35.0775 32.3654 34.8252 32.3572 34.5127H34.5031V34.2869C34.5031 33.7815 34.389 33.3931 34.1609 33.122C33.9325 32.8506 33.6124 32.715 33.2007 32.715ZM27.6795 32.7741V35.9409H28.2211V32.7741H27.6795ZM28.7775 32.7741L29.9244 35.9409H30.3378L31.4735 32.7741H30.9195L30.1353 35.2066L29.331 32.7738L28.7775 32.7741ZM6.3562 33.1605C6.58233 33.1605 6.76205 33.2364 6.89508 33.3883C7.02755 33.5388 7.1018 33.7514 7.11727 34.0268V34.0678H5.53045C5.56561 33.7809 5.6573 33.5582 5.80608 33.3998C5.8752 33.3228 5.96012 33.2616 6.05506 33.2203C6.15 33.179 6.25271 33.1585 6.3562 33.1605ZM33.2007 33.1605C33.4271 33.1605 33.6062 33.2364 33.739 33.3883C33.8717 33.5388 33.946 33.7514 33.9612 34.0268V34.0678H32.3749C32.4101 33.7809 32.5015 33.5582 32.6503 33.3998C32.7194 33.3228 32.8044 33.2615 32.8994 33.2202C32.9944 33.179 33.0971 33.1584 33.2007 33.1605ZM9.7343 34.4045H10.159V35.0542C10.0906 35.1948 9.98039 35.3087 9.82823 35.3967C9.68178 35.4829 9.51496 35.5283 9.34505 35.5283C9.1673 35.5283 9.02189 35.4805 8.90911 35.3849C8.79577 35.2893 8.73895 35.1565 8.73895 34.9869C8.73895 34.5985 9.07083 34.4048 9.73458 34.4048L9.7343 34.4045ZM23.8559 34.4045H24.2805V35.0542C24.2125 35.1948 24.1022 35.3087 23.9501 35.3967C23.8035 35.483 23.6364 35.5284 23.4663 35.5283C23.2891 35.5283 23.1437 35.4805 23.0304 35.3849C22.9176 35.2893 22.8608 35.1565 22.8608 34.9869C22.8608 34.5985 23.1927 34.4048 23.8564 34.4048L23.8559 34.4045Z" fill="#61DAFB"/>
</svg>
