<svg width="36" height="36" viewBox="0 0 36 36" fill="none" xmlns="http://www.w3.org/2000/svg">
<path d="M34.2562 26.1843C32.3719 27.1687 22.6125 31.1624 20.5312 32.2593C18.45 33.3562 17.2969 33.3281 15.6656 32.5406C14.0344 31.7531 3.65623 27.5906 1.77185 26.6906C0.843726 26.2406 0.365601 25.8749 0.365601 25.5093V21.9374C0.365601 21.9374 13.8656 18.9843 16.0594 18.2249C18.2531 17.4374 18.9843 17.4093 20.8406 18.0843C22.6968 18.7593 33.8062 20.7562 35.6343 21.4312V24.9468C35.6343 25.3124 35.2125 25.7062 34.2562 26.1843Z" fill="#A41E11"/>
<path d="M34.2562 22.6407C32.3719 23.625 22.6125 27.6188 20.5312 28.7157C18.45 29.8125 17.2969 29.7844 15.6656 28.9969C14.0344 28.2094 3.65624 24.0188 1.77187 23.1188C-0.0843845 22.2188 -0.140635 21.6 1.68749 20.8969C3.51562 20.1657 13.8375 16.1157 16.0312 15.3563C18.225 14.5688 18.9562 14.5407 20.8125 15.2157C22.6687 15.8907 32.3719 19.7438 34.2 20.4188C36.0844 21.0938 36.1406 21.6563 34.2562 22.6407Z" fill="#D82C20"/>
<path d="M34.2562 20.3907C32.3719 21.375 22.6125 25.3688 20.5312 26.4657C18.45 27.5344 17.2969 27.5344 15.6656 26.7469C14.0344 25.9594 3.65623 21.7688 1.77185 20.8688C0.843726 20.4188 0.365601 20.0532 0.365601 19.6875V16.1157C0.365601 16.1157 13.8656 13.1625 16.0594 12.4032C18.2531 11.6157 18.9843 11.5875 20.8406 12.2625C22.6968 12.9375 33.8062 14.9344 35.6343 15.6094V19.125C35.6343 19.4907 35.2125 19.8844 34.2562 20.3907Z" fill="#A41E11"/>
<path d="M34.2562 16.8188C32.3719 17.8031 22.6125 21.7969 20.5312 22.8938C18.45 23.9625 17.2969 23.9625 15.6656 23.175C14.0344 22.3875 3.65623 18.1969 1.77185 17.2969C-0.112522 16.3969 -0.140647 15.7781 1.68748 15.075C3.5156 14.3438 13.8375 10.2938 16.0312 9.5344C18.225 8.7469 18.9562 8.71877 20.8125 9.39377C22.6687 10.0688 32.3719 13.9219 34.2 14.5969C36.0844 15.2719 36.1406 15.8344 34.2562 16.8188Z" fill="#D82C20"/>
<path d="M34.2562 14.3437C32.3718 15.3281 22.6125 19.3219 20.5312 20.4187C18.45 21.4875 17.2968 21.4875 15.6656 20.7C14.0343 19.9406 3.65621 15.75 1.77184 14.85C0.843713 14.4 0.337463 14.0344 0.337463 13.6687V10.0969C0.337463 10.0969 13.8375 7.14375 16.0312 6.38437C18.225 5.59687 18.9562 5.56875 20.8125 6.24375C22.6687 6.91875 33.7781 8.91562 35.6062 9.59062V13.1062C35.6343 13.4719 35.2125 13.8375 34.2562 14.3437Z" fill="#A41E11"/>
<path d="M34.2562 10.7718C32.3719 11.7562 22.6125 15.75 20.5312 16.8468C18.45 17.9156 17.2969 17.9156 15.6656 17.1281C14.0344 16.3406 3.65623 12.1781 1.77185 11.2781C-0.112522 10.3781 -0.140647 9.75935 1.68748 9.05622C3.5156 8.32497 13.8375 4.27497 16.0312 3.5156C18.225 2.7281 18.9562 2.69997 20.8125 3.37497C22.6687 4.04997 32.3719 7.9031 34.2 8.5781C36.0844 9.2531 36.1406 9.8156 34.2562 10.7718Z" fill="#D82C20"/>
<path d="M22.6125 7.34067L19.575 7.67817L18.8718 9.30942L17.775 7.4813L14.2593 7.17192L16.875 6.21567L16.0875 4.75317L18.5625 5.70942L20.8687 4.95005L20.25 6.4688L22.6125 7.34067ZM18.7031 15.3282L12.9937 12.9657L21.1781 11.7282L18.7031 15.3282Z" fill="white"/>
<path d="M10.8 11.6438C13.2076 11.6438 15.1594 10.8883 15.1594 9.9563C15.1594 9.02432 13.2076 8.2688 10.8 8.2688C8.39237 8.2688 6.44061 9.02432 6.44061 9.9563C6.44061 10.8883 8.39237 11.6438 10.8 11.6438Z" fill="white"/>
<path d="M26.2406 7.79065L31.0781 9.70315L26.2406 11.6156V7.79065Z" fill="#7A0C00"/>
<path d="M20.8969 9.92815L26.2406 7.79065V11.6156L25.7062 11.8406L20.8969 9.92815Z" fill="#AD2115"/>
</svg>
