<svg width="36" height="36" viewBox="0 0 36 36" fill="none" xmlns="http://www.w3.org/2000/svg">
<g clip-path="url(#clip0_436_344)">
<path d="M24.9443 24.7809C22.413 29.9559 17.9805 33.4378 12.1165 34.5825C11.2173 34.8027 10.2943 34.9104 9.36864 34.9031C5.99364 34.9031 2.89989 33.4968 1.39802 31.1934C-0.618547 28.125 -1.3048 21.6196 5.34395 16.8075C5.47895 17.5415 5.75458 18.5484 5.93739 19.1446C4.6322 20.1143 3.56386 21.3673 2.8127 22.8093C1.5752 25.2393 1.71302 27.6665 3.17833 29.9109C4.19083 31.424 5.79395 32.3437 7.85552 32.625C10.4305 32.9509 13.0427 32.4589 15.3227 31.2187C18.8974 29.34 21.2796 27.0956 22.8377 24.0271C22.3971 23.5718 22.1363 22.9724 22.1036 22.3396C22.0801 21.6607 22.3269 21.0001 22.7898 20.5029C23.2528 20.0056 23.8941 19.7124 24.573 19.6875H24.6686C25.329 19.6842 25.9654 19.9348 26.4461 20.3876C26.9268 20.8404 27.215 21.4607 27.2511 22.1201C27.2872 22.7794 27.0685 23.4275 26.6402 23.9301C26.2118 24.4327 25.6067 24.7514 24.9499 24.8203L24.9443 24.7809ZM33.0077 19.0996C36.4418 22.9921 36.5346 27.5737 35.2071 30.2315C33.9696 32.6587 30.7071 35.0887 26.3196 35.0887C24.2714 35.0469 22.2566 34.5624 20.4133 33.6684C21.0574 33.21 21.9715 32.4759 22.4749 32.0175C23.8963 32.6332 25.426 32.9602 26.9749 32.9793C29.8155 32.9793 31.9671 31.6518 33.2496 29.2246C34.0736 27.6215 34.1215 25.7428 33.3424 23.819C32.3864 21.3985 30.6854 19.3449 28.4852 17.955C25.5986 16.0091 22.1957 14.9718 18.7146 14.9765H17.8905C17.6984 15.4204 17.3857 15.8016 16.9881 16.077C16.5904 16.3524 16.1236 16.5109 15.6405 16.5346H15.5533C14.8851 16.5264 14.2464 16.2581 13.7729 15.7865C13.2994 15.315 13.0284 14.6774 13.0174 14.0092C13.0064 13.3411 13.2564 12.6949 13.7141 12.2081C14.1719 11.7212 14.8014 11.432 15.469 11.4018H15.5618C16.027 11.4022 16.4831 11.5307 16.88 11.7733C17.2769 12.016 17.5993 12.3633 17.8118 12.7771H18.5458C24.3958 12.7771 29.5315 15.0215 33.0077 19.0996ZM9.73427 25.5684C9.6861 25.1014 9.79925 24.6319 10.0549 24.2381C7.48989 19.7943 6.11739 14.1609 8.22395 8.29683C9.73427 3.88965 13.5368 0.911209 17.6599 0.911209C22.0586 0.911209 26.6402 4.76152 27.1886 12.1809C26.5024 11.9531 25.5011 11.6184 24.8993 11.4946C24.7502 9.06746 22.6999 3.02058 17.8427 3.11058C16.1018 3.1584 13.5368 3.98246 12.2177 5.67558C10.5861 7.6967 9.63688 10.1829 9.50645 12.7771C9.19728 16.3343 10.0319 19.8973 11.8886 22.9471C11.9911 22.9097 12.1004 22.8944 12.2093 22.9021H12.2993C12.9795 22.8898 13.6369 23.1483 14.1266 23.6206C14.6163 24.0929 14.8984 24.7405 14.9107 25.4207C14.923 26.101 14.6645 26.7583 14.1922 27.2481C13.7199 27.7378 13.0724 28.0198 12.3921 28.0321H12.2993C11.6356 28.0298 10.9984 27.7714 10.5206 27.3108C10.0427 26.8503 9.76107 26.2231 9.73427 25.56V25.5684Z" fill="#764ABC"/>
</g>
<defs>
<clipPath id="clip0_436_344">
<rect width="36" height="36" fill="white"/>
</clipPath>
</defs>
</svg>
