<svg width="36" height="36" viewBox="0 0 36 36" fill="none" xmlns="http://www.w3.org/2000/svg">
<path d="M27.3032 23.404L7.97064 34.8837L33.0027 33.185L34.9307 7.94421L27.3032 23.404Z" fill="url(#paint0_linear_436_279)"/>
<path d="M33.0435 33.1679L30.8922 18.3182L25.0318 26.0565L33.0435 33.1679Z" fill="url(#paint1_linear_436_279)"/>
<path d="M33.0727 33.1678L17.3103 31.9306L8.05438 34.8514L33.0727 33.1678Z" fill="url(#paint2_linear_436_279)"/>
<path d="M8.07659 34.8547L12.0144 21.9547L3.34906 23.8075L8.07659 34.8547Z" fill="url(#paint3_linear_436_279)"/>
<path d="M25.0301 26.0991L21.4071 11.9072L11.0385 21.6267L25.0301 26.0991Z" fill="url(#paint4_linear_436_279)"/>
<path d="M34.1085 12.107L24.3073 4.10205L21.578 12.9257L34.1085 12.107Z" fill="url(#paint5_linear_436_279)"/>
<path d="M29.5251 1.24783L23.7603 4.43355L20.1237 1.20508L29.5251 1.24783Z" fill="url(#paint6_linear_436_279)"/>
<path d="M1.06927 28.1345L3.48409 23.7304L1.53052 18.4837L1.06927 28.1345Z" fill="url(#paint7_linear_436_279)"/>
<path d="M1.40082 18.3181L3.36591 23.8928L11.9061 21.9769L21.6562 12.9156L24.4076 4.17577L20.0755 1.11633L12.7096 3.87315C10.3887 6.03174 5.88563 10.3025 5.72335 10.383C5.56219 10.4648 2.74913 15.7816 1.40082 18.3181Z" fill="white"/>
<path d="M8.30213 8.30278C13.3314 3.31622 19.8157 0.369566 22.3042 2.88028C24.7913 5.39072 22.154 11.4922 17.1241 16.4773C12.0942 21.4625 5.69045 24.5714 3.2042 22.0607C0.715414 19.5519 3.27226 13.2882 8.30213 8.30278Z" fill="url(#paint8_linear_436_279)"/>
<path d="M8.07666 34.8494L11.9832 21.9085L24.9587 26.0766C20.2674 30.4759 15.0494 34.1949 8.07666 34.8494Z" fill="url(#paint9_linear_436_279)"/>
<path d="M21.6737 12.89L25.0048 26.0837C28.9238 21.9634 32.4408 17.5334 34.1632 12.0541L21.6737 12.89Z" fill="url(#paint10_linear_436_279)"/>
<path d="M34.1291 12.121C35.4622 8.0977 35.7696 2.32645 29.4837 1.25488L24.3258 4.10395L34.1291 12.121Z" fill="url(#paint11_linear_436_279)"/>
<path d="M1.06927 28.0766C1.25377 34.7164 6.04431 34.8151 8.08506 34.8736L3.37159 23.8655L1.06927 28.0766Z" fill="#9E1209"/>
<path d="M21.6923 12.9106C24.7039 14.7615 30.7727 18.4787 30.8956 18.5471C31.0869 18.6548 33.5124 14.4571 34.0628 12.0851L21.6923 12.9106Z" fill="url(#paint12_radial_436_279)"/>
<path d="M11.9781 21.9085L17.201 31.9851C20.2891 30.3103 22.7076 28.2695 24.9224 26.0837L11.9781 21.9085Z" fill="url(#paint13_radial_436_279)"/>
<path d="M3.35075 23.8793L2.61078 32.6911C4.0069 34.5983 5.92784 34.7642 7.94328 34.6154C6.48528 30.9873 3.57322 23.7322 3.35075 23.8793Z" fill="url(#paint14_linear_436_279)"/>
<path d="M24.2955 4.12596L34.6711 5.58199C34.1173 3.23552 32.4168 1.72127 29.5186 1.24792L24.2955 4.12596Z" fill="url(#paint15_linear_436_279)"/>
<defs>
<linearGradient id="paint0_linear_436_279" x1="30.8194" y1="37.9547" x2="23.6762" y2="25.3429" gradientUnits="userSpaceOnUse">
<stop stop-color="#FB7655"/>
<stop offset="0.41" stop-color="#E42B1E"/>
<stop offset="0.99" stop-color="#990000"/>
<stop offset="1" stop-color="#990000"/>
</linearGradient>
<linearGradient id="paint1_linear_436_279" x1="34.3775" y1="27.3601" x2="25.1713" y2="21.1824" gradientUnits="userSpaceOnUse">
<stop stop-color="#871101"/>
<stop offset="0.99" stop-color="#911209"/>
<stop offset="1" stop-color="#911209"/>
</linearGradient>
<linearGradient id="paint2_linear_436_279" x1="27.0118" y1="38.3372" x2="17.8059" y2="32.1595" gradientUnits="userSpaceOnUse">
<stop stop-color="#871101"/>
<stop offset="0.99" stop-color="#911209"/>
<stop offset="1" stop-color="#911209"/>
</linearGradient>
<linearGradient id="paint3_linear_436_279" x1="7.68284" y1="22.8876" x2="9.1099" y2="32.1626" gradientUnits="userSpaceOnUse">
<stop stop-color="white"/>
<stop offset="0.23" stop-color="#E57252"/>
<stop offset="0.46" stop-color="#DE3B20"/>
<stop offset="0.99" stop-color="#A60003"/>
<stop offset="1" stop-color="#A60003"/>
</linearGradient>
<linearGradient id="paint4_linear_436_279" x1="17.4991" y1="14.2275" x2="18.025" y2="23.6933" gradientUnits="userSpaceOnUse">
<stop stop-color="white"/>
<stop offset="0.23" stop-color="#E4714E"/>
<stop offset="0.56" stop-color="#BE1A0D"/>
<stop offset="0.99" stop-color="#A80D00"/>
<stop offset="1" stop-color="#A80D00"/>
</linearGradient>
<linearGradient id="paint5_linear_436_279" x1="26.2099" y1="5.47793" x2="27.7843" y2="12.2622" gradientUnits="userSpaceOnUse">
<stop stop-color="white"/>
<stop offset="0.18" stop-color="#E46342"/>
<stop offset="0.4" stop-color="#C82410"/>
<stop offset="0.99" stop-color="#A80D00"/>
<stop offset="1" stop-color="#A80D00"/>
</linearGradient>
<linearGradient id="paint6_linear_436_279" x1="21.4031" y1="3.08861" x2="28.1866" y2="-0.302983" gradientUnits="userSpaceOnUse">
<stop stop-color="white"/>
<stop offset="0.54" stop-color="#C81F11"/>
<stop offset="0.99" stop-color="#BF0905"/>
<stop offset="1" stop-color="#BF0905"/>
</linearGradient>
<linearGradient id="paint7_linear_436_279" x1="1.7364" y1="20.5233" x2="2.29496" y2="26.1132" gradientUnits="userSpaceOnUse">
<stop stop-color="white"/>
<stop offset="0.31" stop-color="#DE4024"/>
<stop offset="0.99" stop-color="#BF190B"/>
<stop offset="1" stop-color="#BF190B"/>
</linearGradient>
<linearGradient id="paint8_linear_436_279" x1="-2.10215" y1="27.6241" x2="24.1438" y2="0.635907" gradientUnits="userSpaceOnUse">
<stop stop-color="#BD0012"/>
<stop offset="0.07" stop-color="white"/>
<stop offset="0.17" stop-color="white"/>
<stop offset="0.27" stop-color="#C82F1C"/>
<stop offset="0.33" stop-color="#820C01"/>
<stop offset="0.46" stop-color="#A31601"/>
<stop offset="0.72" stop-color="#B31301"/>
<stop offset="0.99" stop-color="#E82609"/>
<stop offset="1" stop-color="#E82609"/>
</linearGradient>
<linearGradient id="paint9_linear_436_279" x1="18.002" y1="30.3463" x2="10.0963" y2="28.3953" gradientUnits="userSpaceOnUse">
<stop stop-color="#8C0C01"/>
<stop offset="0.54" stop-color="#990C00"/>
<stop offset="0.99" stop-color="#A80D0E"/>
<stop offset="1" stop-color="#A80D0E"/>
</linearGradient>
<linearGradient id="paint10_linear_436_279" x1="31.5802" y1="20.8583" x2="24.5571" y2="14.564" gradientUnits="userSpaceOnUse">
<stop stop-color="#7E110B"/>
<stop offset="0.99" stop-color="#9E0C00"/>
<stop offset="1" stop-color="#9E0C00"/>
</linearGradient>
<linearGradient id="paint11_linear_436_279" x1="34.1603" y1="9.30904" x2="30.6621" y2="5.56898" gradientUnits="userSpaceOnUse">
<stop stop-color="#79130D"/>
<stop offset="0.99" stop-color="#9E120B"/>
<stop offset="1" stop-color="#9E120B"/>
</linearGradient>
<radialGradient id="paint12_radial_436_279" cx="0" cy="0" r="1" gradientUnits="userSpaceOnUse" gradientTransform="translate(25.6509 14.6844) scale(8.60653)">
<stop stop-color="#A80D00"/>
<stop offset="0.99" stop-color="#7E0E08"/>
<stop offset="1" stop-color="#7E0E08"/>
</radialGradient>
<radialGradient id="paint13_radial_436_279" cx="0" cy="0" r="1" gradientUnits="userSpaceOnUse" gradientTransform="translate(13.732 26.0254) scale(11.441)">
<stop stop-color="#A30C00"/>
<stop offset="0.99" stop-color="#800E08"/>
<stop offset="1" stop-color="#800E08"/>
</radialGradient>
<linearGradient id="paint14_linear_436_279" x1="5.62747" y1="34.8427" x2="2.77672" y2="25.1702" gradientUnits="userSpaceOnUse">
<stop stop-color="#8B2114"/>
<stop offset="0.43" stop-color="#9E100A"/>
<stop offset="0.99" stop-color="#B3100C"/>
<stop offset="1" stop-color="#B3100C"/>
</linearGradient>
<linearGradient id="paint15_linear_436_279" x1="27.4983" y1="2.79114" x2="33.8895" y2="5.61236" gradientUnits="userSpaceOnUse">
<stop stop-color="#B31000"/>
<stop offset="0.44" stop-color="#910F08"/>
<stop offset="0.99" stop-color="#791C12"/>
<stop offset="1" stop-color="#791C12"/>
</linearGradient>
</defs>
</svg>
