<svg width="36" height="36" viewBox="0 0 36 36" fill="none" xmlns="http://www.w3.org/2000/svg">
<path fill-rule="evenodd" clip-rule="evenodd" d="M0.342896 15.7939C0.342896 15.9916 0.401114 16.1221 0.433739 16.2489C0.646364 17.0738 1.1034 17.7817 1.64565 18.4275C2.41796 19.3477 3.3638 20.0886 4.33271 20.7852C5.17308 21.3893 6.03061 21.98 6.87436 22.5796C7.01921 22.6825 7.15618 22.8009 7.3134 22.9272C7.17812 23.0003 7.06561 23.0648 6.94861 23.1241C5.83515 23.6888 4.76386 24.3219 3.7764 25.0889C3.18127 25.5513 2.60583 26.0426 2.19943 26.6847C1.54552 27.7175 1.31405 28.8177 1.80146 29.9925C1.94377 30.3356 2.1609 30.6321 2.46718 30.8512C2.56646 30.922 2.67783 30.9923 2.79399 31.0199C3.09155 31.0899 3.39474 31.1358 3.69596 31.1912L4.54899 31.1906C5.4923 31.1065 6.35096 30.7834 7.12693 30.2479C8.33968 29.4109 9.15671 28.2887 9.50799 26.8484C9.76336 25.8016 9.77377 24.7537 9.47283 23.7116C9.44403 23.6151 9.41081 23.5199 9.37327 23.4264C9.33671 23.3328 9.29368 23.2417 9.24305 23.1249L11.1769 22.0129L11.2059 22.0376C11.1707 22.1527 11.1333 22.2674 11.1016 22.3836C10.8718 23.2228 10.7191 24.0767 10.7739 24.9477C10.8324 25.8758 11.0914 26.7446 11.6348 27.52C12.0741 28.1472 13.1209 28.1706 13.5878 27.5411C13.7535 27.3175 13.9141 27.0838 14.0347 26.8343C14.35 26.1833 14.6419 25.5206 14.9431 24.8625L14.9957 24.7421C14.9741 25.0538 14.9488 25.3274 14.9372 25.6013C14.9192 26.0291 14.9443 26.4544 15.0905 26.8613C15.2157 27.2095 15.4286 27.4697 15.8274 27.5155C16.1002 27.5468 16.3176 27.4219 16.5181 27.2635C16.8288 27.018 17.0863 26.7119 17.275 26.3638C17.8096 25.382 18.3586 24.406 18.8432 23.3994C19.3675 22.3107 19.8259 21.1902 20.3128 20.0829L20.3932 19.8866C20.5082 20.3386 20.5884 20.7813 20.7361 21.2003C20.9076 21.6866 21.12 22.1614 21.3511 22.6229C21.4606 22.8409 21.4479 22.9823 21.2963 23.1652C20.6618 23.9302 20.0383 24.7044 19.4142 25.4779C19.2761 25.6486 19.1386 25.8224 19.0235 26.0089C18.9537 26.1266 18.9079 26.257 18.8885 26.3925C18.8692 26.5173 18.8989 26.6447 18.9714 26.748C19.0439 26.8513 19.1536 26.9226 19.2775 26.9468C19.5275 27.0007 19.784 27.019 20.0391 27.0011C20.9101 26.937 21.701 26.6313 22.4002 26.1132C23.3061 25.4422 23.5969 24.5264 23.3776 23.4411C23.3182 23.1466 23.2133 22.8603 23.1112 22.5765C23.0654 22.4485 23.0623 22.3588 23.1458 22.2396C23.87 21.2054 24.4888 20.1082 25.0642 18.9858C25.087 18.9416 25.1103 18.8975 25.1503 18.8502C25.3367 19.8205 25.6174 20.7557 26.1203 21.6042C25.8638 21.8514 25.6098 22.0756 25.3801 22.3225C24.8741 22.8665 24.4353 23.4571 24.2064 24.1774C24.108 24.4879 24.0323 24.8034 24.0762 25.135C24.1442 25.65 24.5661 25.9847 25.0726 25.8674C26.1566 25.6165 27.0923 25.1058 27.776 24.201C28.2361 23.5918 28.2781 22.9123 28.0854 22.2005C28.0325 22.007 27.9698 21.8166 27.9023 21.5947C28.1698 21.5117 28.4305 21.4121 28.7002 21.3505C30.1006 21.031 31.4857 21.0867 32.8351 21.5924C33.6229 21.8877 34.2594 22.3819 34.6368 23.1593C35.0978 24.1096 34.843 25.0113 33.9472 25.612C33.8637 25.668 33.7681 25.7122 33.6989 25.7822C33.6767 25.8079 33.6601 25.8379 33.6502 25.8703C33.6403 25.9028 33.6372 25.9369 33.6412 25.9706C33.6471 26.0052 33.7385 26.0485 33.7911 26.048C34.0856 26.0457 34.3244 25.8913 34.5536 25.7327C35.1279 25.3353 35.547 24.8006 35.6372 24.0967L35.655 24.0438L35.6333 23.5853C35.6246 23.5589 35.6398 23.5327 35.6378 23.5128C35.5157 22.4876 34.9681 21.6925 34.1716 21.0693C33.2491 20.3479 32.1599 20.0509 31.0079 20.0039C30.0736 19.9637 29.1404 20.1073 28.2615 20.4266C28.0092 20.518 27.7591 20.6263 27.5055 20.7284C27.4714 20.6668 27.4349 20.6078 27.4048 20.5467C27.1443 20.0135 26.8288 19.5038 26.759 18.8924C26.7095 18.4582 26.6488 18.0245 26.752 17.595C26.8513 17.1818 26.9806 16.7757 27.1024 16.3682C27.1651 16.1584 27.121 16.0408 26.9207 15.9463C26.851 15.9115 26.7765 15.8871 26.6997 15.8737C26.2075 15.8023 25.7221 15.8431 25.2453 15.9818C25.0766 16.031 24.954 16.1255 24.9166 16.3122C24.8952 16.4194 24.8516 16.522 24.8212 16.6278C24.6966 17.0674 24.6083 17.5154 24.4069 17.9342C23.9024 18.9847 23.3264 19.9955 22.7369 20.999C22.673 21.1073 22.6058 21.2136 22.5254 21.3449C22.3184 20.9118 22.0976 20.5231 22.0306 20.0675C21.955 19.5522 21.8954 19.0378 22.0236 18.5265C22.119 18.1451 22.2436 17.7708 22.3583 17.3945C22.4126 17.2156 22.3876 17.1217 22.2256 17.0274C22.1437 16.9799 22.0512 16.9377 21.9589 16.9239C21.4542 16.8471 20.9386 16.8892 20.4531 17.0471C20.3004 17.0966 20.2202 17.1953 20.1736 17.3528C20.0363 17.8175 19.9193 18.2933 19.7266 18.7352C18.9465 20.5239 18.1438 22.3034 17.3419 24.0826C17.1746 24.4541 16.9786 24.8127 16.7898 25.1744C16.742 25.2661 16.6723 25.3468 16.6126 25.4329C16.5648 25.3763 16.5463 25.3375 16.5466 25.2987C16.548 25.0701 16.5207 24.8347 16.5643 24.6136C16.6981 23.945 16.8461 23.2793 17.0081 22.617C17.1403 22.0697 17.2941 21.5274 17.4406 20.9838C17.4899 20.8018 17.4907 20.6317 17.3599 20.4787C17.1403 20.2224 16.6813 20.1662 16.409 20.3636L16.2886 20.4317L16.312 20.2376C16.3694 19.8217 16.3809 19.4071 16.2667 18.9973C16.1244 18.4866 15.7599 18.1927 15.23 18.209C14.9831 18.2166 14.7238 18.2587 14.4951 18.3487C13.5335 18.7256 12.7941 19.393 12.1647 20.196C12.1063 20.2706 12.034 20.333 11.9518 20.3799C11.1381 20.8311 10.3219 21.2766 9.50602 21.7237L8.59787 22.2213C8.3543 21.989 8.13296 21.7479 7.8818 21.5435C7.11483 20.918 6.33549 20.3079 5.56318 19.6895C4.87861 19.1413 4.21543 18.5704 3.70805 17.8445C3.33061 17.3045 3.08733 16.7136 3.06399 16.0459C3.03446 15.1951 3.27577 14.4177 3.7089 13.6941C4.26296 12.7682 5.01868 12.0251 5.84949 11.3521C6.7284 10.6405 7.67902 10.0364 8.66424 9.48487C10.0426 8.71341 11.4604 8.03053 12.9806 7.57969C14.5393 7.11731 16.1207 6.85266 17.752 7.03716C18.3932 7.10972 19.0159 7.25653 19.5877 7.57013C20.0256 7.81003 20.3848 8.12419 20.5518 8.61525C20.7166 9.09844 20.7116 9.58809 20.5974 10.0789C20.3654 11.0728 19.8211 11.8921 19.1363 12.6242C18.013 13.8243 16.6427 14.6413 15.1001 15.181C14.2131 15.4918 13.2903 15.6886 12.3537 15.7669C11.5861 15.8313 10.8346 15.7632 10.1079 15.4963C9.62668 15.3194 9.20762 15.0488 8.87068 14.6562C8.81049 14.5859 8.73343 14.5097 8.62121 14.5755C8.51124 14.6402 8.49183 14.7448 8.52868 14.8508C8.59027 15.0269 8.64708 15.2103 8.74299 15.3678C8.98402 15.7629 9.33558 16.0495 9.72258 16.2953C10.4659 16.7681 11.2967 16.927 12.1582 16.9639C13.4655 17.0204 14.7409 16.8252 15.9984 16.4745C17.7936 15.9739 19.3546 15.0896 20.6064 13.6946C21.6487 12.5331 22.3932 11.2222 22.5526 9.63928C22.6306 8.86669 22.5476 8.10984 22.1859 7.40503C21.7936 6.64144 21.1697 6.07359 20.4239 5.68238C19.3377 5.11284 18.1654 4.78125 16.9555 4.78125H15.7433C14.278 4.78125 12.8613 5.20116 11.4843 5.70206C10.442 6.08147 9.41996 6.52922 8.42771 7.02478C6.26686 8.1045 4.25452 9.40641 2.60161 11.1966C1.77811 12.0884 1.0809 13.0725 0.679833 14.2312C0.558785 14.5772 0.454507 14.9288 0.367364 15.2848M8.19708 25.4135C8.10343 26.6676 7.53502 27.6843 6.60605 28.5078C6.08349 28.9707 5.48415 29.3003 4.78608 29.4162C4.53296 29.4581 4.27393 29.4682 4.0284 29.3633C3.67824 29.2137 3.59977 28.9029 3.59302 28.5719C3.58261 28.0443 3.7674 27.5673 4.0208 27.1133C4.35155 26.5216 4.83643 26.0705 5.35421 25.6492C6.16983 24.9851 7.05465 24.4232 7.96083 23.8928L8.02918 23.8646C8.16924 24.3821 8.2359 24.8932 8.19708 25.4135ZM15.2728 19.9631C15.2067 20.3636 15.124 20.7644 15.007 21.1525C14.6026 22.4961 14.0831 23.798 13.5214 25.0824C13.4176 25.3201 13.2666 25.5369 13.1353 25.7622C13.1129 25.7969 13.0862 25.8284 13.0557 25.8562C12.8931 26.0167 12.739 26.0083 12.6569 25.7982C12.5612 25.5541 12.5025 25.2928 12.4518 25.0343C12.4178 24.8608 12.426 24.6786 12.4153 24.5008C12.4262 23.2369 12.8118 22.0883 13.466 21.0189C13.7357 20.5779 14.0294 20.1578 14.478 19.8788C14.6175 19.792 14.7685 19.7252 14.9266 19.6802C15.1656 19.613 15.3124 19.7235 15.2728 19.9631ZM20.1001 26.1135L21.8352 24.0877C21.9075 24.84 20.6286 26.3419 20.1001 26.1135ZM25.6416 24.7503C25.519 24.8206 25.3854 24.8712 25.2597 24.9362C25.1446 24.9958 25.1067 24.9356 25.1033 24.8366C25.1016 24.7681 25.1104 24.6997 25.1295 24.6338C25.3637 23.8075 25.7949 23.1022 26.4364 22.5284L26.4814 22.5053C26.7866 23.3589 26.4339 24.2963 25.6416 24.7503Z" fill="#CB6699"/>
</svg>
