<svg width="36" height="36" viewBox="0 0 36 36" fill="none" xmlns="http://www.w3.org/2000/svg">
<g clip-path="url(#clip0_436_149)">
<path d="M32.7521 1.86833C32.2479 3.0779 31.6025 4.2236 30.8292 5.28158C27.4413 1.89558 22.8476 -0.00674242 18.0577 -0.00732422C8.15175 -0.00732422 1.67364e-08 8.15118 1.67364e-08 18.0681C-0.00010532 20.5169 0.497026 22.9403 1.46126 25.1913C2.4255 27.4424 3.83677 29.4742 5.60953 31.1636L6.27553 31.7542C9.53042 34.4985 13.6501 36.0048 17.9075 36.0073C27.3257 36.0073 35.2429 28.6273 35.9134 19.2215C36.4058 14.6171 35.0553 8.79355 32.7521 1.86833ZM8.17509 31.2666C8.0301 31.4452 7.84709 31.5892 7.63938 31.6882C7.43168 31.7872 7.20451 31.8386 6.97444 31.8386C6.12562 31.8386 5.43122 31.14 5.43122 30.2912C5.43122 29.4426 6.13012 28.744 6.97444 28.744C7.326 28.744 7.67334 28.8658 7.94531 29.0911C8.60653 29.6255 8.70975 30.6053 8.17509 31.2666ZM32.6773 25.8559C28.2215 31.7964 18.7048 29.7942 12.6028 30.0802C12.6028 30.0802 11.5194 30.1461 10.4313 30.3241C10.4313 30.3241 10.8391 30.1506 11.3692 29.9489C15.6516 28.458 17.6777 28.1672 20.2807 26.831C25.182 24.3366 30.0271 18.8789 31.0357 13.2007C29.169 18.6632 23.5122 23.3567 18.3577 25.265C14.8261 26.5686 8.44706 27.8345 8.44706 27.8345L8.18916 27.6983C3.84609 25.5839 3.71447 16.1736 11.6083 13.1352C15.0652 11.8035 18.3718 12.535 22.1054 11.644C26.0921 10.6971 30.7027 7.70539 32.5786 3.80446C34.6798 10.0454 37.2082 19.8166 32.6773 25.8559Z" fill="#77BC1F"/>
</g>
<defs>
<clipPath id="clip0_436_149">
<rect width="36" height="36" fill="white"/>
</clipPath>
</defs>
</svg>
