<svg width="36" height="36" viewBox="0 0 36 36" fill="none" xmlns="http://www.w3.org/2000/svg">
<path d="M30.191 0.56587L28.2465 0.687089L28.3981 4.73062C28.406 4.95421 28.148 5.08471 27.9723 4.94606L26.6701 3.91949L25.1274 5.09006C25.0877 5.12022 25.0402 5.13846 24.9905 5.14262C24.9408 5.14679 24.8909 5.13672 24.8467 5.11359C24.8026 5.09047 24.7659 5.05523 24.741 5.01202C24.716 4.9688 24.704 4.91939 24.7061 4.86956L24.8796 0.897464L5.58926 2.10374C5.13039 2.13234 4.70087 2.33918 4.39241 2.68011C4.08395 3.02105 3.921 3.46906 3.93833 3.92849L5.02395 32.8517C5.04052 33.2936 5.22269 33.7131 5.53426 34.0269C5.84584 34.3407 6.26404 34.5259 6.70583 34.5457L30.2217 35.6015C30.4594 35.612 30.6968 35.5743 30.9196 35.4907C31.1423 35.407 31.3459 35.2792 31.518 35.1149C31.6901 34.9506 31.8271 34.753 31.9207 34.5342C32.0143 34.3155 32.0625 34.0799 32.0625 33.842V2.32424C32.0626 2.08359 32.0134 1.84546 31.9178 1.62458C31.8223 1.4037 31.6825 1.20476 31.507 1.04006C31.3317 0.875259 31.1245 0.748154 30.8982 0.666594C30.6718 0.585035 30.4312 0.550754 30.191 0.56587ZM18.5304 6.52471C23.117 6.52471 25.6219 8.97806 25.6219 13.6457C25.002 14.1275 20.385 14.4557 20.385 13.7703C20.4823 11.1547 19.3115 11.0402 18.6609 11.0402C18.0427 11.0402 17.0018 11.2264 17.0018 12.6276C17.0018 16.0836 25.9146 15.8971 25.9146 22.8718C25.9146 26.7952 22.7267 28.9623 18.6609 28.9623C14.4647 28.9623 10.798 27.2647 11.212 21.3789C11.3746 20.6879 16.709 20.8522 16.709 21.3789C16.6444 23.8075 17.197 24.5219 18.5954 24.5219C19.6689 24.5219 20.1572 23.9304 20.1572 22.934C20.1572 19.3843 11.3746 19.26 11.3746 12.7524C11.3746 9.01603 13.9444 6.52471 18.5304 6.52471Z" fill="#FF4785"/>
</svg>
