<svg width="36" height="36" viewBox="0 0 36 36" fill="none" xmlns="http://www.w3.org/2000/svg">
<g clip-path="url(#clip0_436_346)">
<path d="M17.9995 35.1408C8.54752 35.1408 0.8573 27.4514 0.8573 17.9989C0.857581 8.54664 8.54752 0.857269 17.9998 0.857269C27.452 0.857269 35.142 8.54721 35.142 17.9995C35.142 27.4514 27.4517 35.1405 17.9998 35.1405L17.9995 35.1408Z" fill="#85EA2D"/>
<path d="M11.3344 12.1812C11.2787 12.7972 11.3546 13.4339 11.3138 14.0566C11.2652 14.6801 11.189 15.2961 11.0641 15.9117C10.8911 16.7909 10.3441 17.4555 9.59034 18.0093C11.0579 18.9644 11.2236 20.4455 11.3206 21.9476C11.369 22.7576 11.3482 23.5747 11.4314 24.3771C11.4936 25.0001 11.7357 25.1595 12.3798 25.1798C12.6427 25.1868 12.9125 25.1798 13.2173 25.1798V27.1041C11.3138 27.4292 9.74278 26.8898 9.35466 25.2771C9.2271 24.6845 9.14846 24.0825 9.11953 23.4771C9.07791 22.8339 9.14681 22.1898 9.09872 21.5466C8.96034 19.7812 8.73169 19.1861 7.04334 19.1028V16.9091C7.16737 16.8809 7.28522 16.8601 7.40953 16.8463C8.33709 16.798 8.73169 16.5139 8.93222 15.6004C9.02848 15.0864 9.08639 14.566 9.10547 14.0434C9.17494 13.0396 9.14709 12.0156 9.32006 11.0188C9.56194 9.58615 10.4479 8.89371 11.9227 8.81046C12.3379 8.78965 12.7603 8.81046 13.2379 8.81046V10.7764C13.0371 10.7905 12.8638 10.8177 12.6841 10.8177C11.4865 10.7761 11.4244 11.1845 11.3344 12.1812ZM13.6392 16.7355H13.6114C12.9189 16.7009 12.3238 17.2406 12.2889 17.9331C12.2546 18.632 12.7943 19.2277 13.4868 19.2617H13.5698C14.2549 19.3033 14.843 18.7768 14.8849 18.0917V18.0228C14.8989 17.3236 14.3384 16.7496 13.6392 16.7355ZM17.9789 16.7355C17.3078 16.7147 16.747 17.2406 16.7262 17.9052C16.7262 17.9471 16.7262 17.9815 16.733 18.0228C16.733 18.7777 17.2451 19.262 18.0205 19.262C18.7819 19.262 19.2597 18.7636 19.2597 17.9815C19.2527 17.2271 18.747 16.7285 17.9789 16.7355ZM22.4229 16.7355C22.083 16.7294 21.7544 16.8575 21.5083 17.092C21.2621 17.3264 21.1183 17.6484 21.1078 17.9882C21.1073 18.1556 21.1399 18.3214 21.2038 18.4761C21.2676 18.6309 21.3614 18.7714 21.4797 18.8898C21.5981 19.0081 21.7387 19.1019 21.8934 19.1658C22.0481 19.2296 22.2139 19.2622 22.3813 19.2617H22.3954C23.0321 19.3725 23.6759 18.7566 23.7175 18.0161C23.7518 17.3306 23.1294 16.7355 22.4229 16.7355ZM28.521 16.8393C27.718 16.8047 27.3161 16.5347 27.1159 15.7734C26.9915 15.2859 26.9151 14.7874 26.8878 14.285C26.8321 13.3574 26.8388 12.4231 26.7767 11.4956C26.6316 9.29449 25.0394 8.5264 22.7275 8.90665V10.8169C23.0943 10.8169 23.3781 10.8169 23.6618 10.8239C24.1535 10.8307 24.5272 11.018 24.5756 11.5647C24.624 12.0631 24.624 12.5682 24.6724 13.0736C24.7697 14.0777 24.8248 15.095 24.9978 16.0847C25.1502 16.9015 25.711 17.5106 26.4097 18.0087C25.1848 18.8325 24.8245 20.0093 24.7624 21.3314C24.7281 22.2379 24.7073 23.1517 24.6589 24.0655C24.6173 24.896 24.3267 25.166 23.4889 25.1868C23.254 25.1936 23.0254 25.2144 22.7624 25.2284V27.1871C23.254 27.1871 23.7037 27.2152 24.1535 27.1871C25.5516 27.1041 26.3962 26.426 26.6735 25.069C26.7907 24.3214 26.8597 23.5671 26.8807 22.8125C26.9288 22.1206 26.9224 21.4214 26.9916 20.7363C27.0953 19.6633 27.5867 19.2206 28.6594 19.1512C28.7609 19.1388 28.8608 19.1157 28.9575 19.0823V16.8882C28.7775 16.8674 28.6526 16.8463 28.521 16.8393ZM18 1.71565C26.9935 1.71565 34.2844 9.00565 34.2844 17.9995C34.2844 26.993 26.9935 34.2836 18 34.2836C9.00675 34.2836 1.71619 26.993 1.71619 17.9992C1.71619 9.00649 9.00675 1.71565 18 1.71565ZM18 0.000305183C8.07469 2.39331e-05 0 8.07471 0 18C0 27.9248 8.07469 35.9995 18 35.9995C27.925 35.9995 36 27.9248 36 17.9995C36 8.07415 27.925 0.000586433 18 0.000586433V0.000305183Z" fill="#173647"/>
</g>
<defs>
<clipPath id="clip0_436_346">
<rect width="36" height="36" fill="white"/>
</clipPath>
</defs>
</svg>
