<svg width="36" height="36" viewBox="0 0 36 36" fill="none" xmlns="http://www.w3.org/2000/svg">
<g clip-path="url(#clip0_436_243)">
<path d="M18.0011 7.20056C13.201 7.20056 10.202 9.59962 9.0011 14.3997C10.8005 12.0004 12.9012 11.1007 15.3005 11.7006C16.6705 12.042 17.6495 13.0354 18.7338 14.1362C20.4983 15.9269 22.5408 18 27.0011 18C31.8009 18 34.8002 15.6007 36.0011 10.7994C34.2014 13.2002 32.101 14.0999 29.7014 13.5C28.3317 13.1583 27.3538 12.1652 26.2682 11.0644C24.5047 9.27366 22.4628 7.20056 18.0011 7.20056ZM9.0011 18C4.20129 18 1.20204 20.3993 0.00109863 25.2006C1.80054 22.7998 3.90091 21.9001 6.30054 22.5C7.67051 22.8417 8.64954 23.8348 9.73375 24.9356C11.4983 26.7263 13.5408 28.7994 18.0011 28.7994C22.8009 28.7994 25.8002 26.4004 27.0011 21.6003C25.2014 23.9996 23.101 24.8993 20.7014 24.2994C19.3317 23.958 18.3538 22.9646 17.2682 21.8638C15.5047 20.0731 13.4628 18 9.0011 18Z" fill="#38BDF8"/>
</g>
<defs>
<clipPath id="clip0_436_243">
<rect width="36" height="36" fill="white"/>
</clipPath>
</defs>
</svg>
