<svg width="36" height="36" viewBox="0 0 36 36" fill="none" xmlns="http://www.w3.org/2000/svg">
<g clip-path="url(#clip0_436_151)">
<path d="M6.37592 13.2188H34.4081V33.9384H6.37592V13.2188Z" fill="white"/>
<path d="M0.421875 17.9747V35.5529H35.5781V0.396606H0.421875V17.9747ZM28.7522 16.5685C29.5942 16.7639 30.3595 17.2043 30.9516 17.8341C31.2775 18.1734 31.5608 18.5512 31.7953 18.9591C31.7953 19.0041 30.2766 20.0307 29.3513 20.6044C29.3175 20.6269 29.1825 20.4807 29.0334 20.2585C28.8645 19.967 28.6245 19.7231 28.3358 19.5495C28.0471 19.3759 27.7191 19.2782 27.3825 19.2657C26.3166 19.1925 25.6303 19.7522 25.6359 20.6719C25.6271 20.9009 25.6796 21.1281 25.7878 21.33C26.0213 21.8166 26.4572 22.1063 27.8241 22.6969C30.3413 23.7797 31.4184 24.4941 32.0878 25.5094C32.8359 26.6344 33.0019 28.4513 32.4956 29.7957C31.9331 31.2582 30.555 32.251 28.6059 32.58C27.7157 32.682 26.8163 32.6726 25.9284 32.5519C24.5677 32.3276 23.3142 31.6743 22.3509 30.6872C22.0275 30.33 21.3975 29.3991 21.4369 29.3316C21.5395 29.2554 21.6476 29.1868 21.7603 29.1263L23.0625 28.4063L24.0722 27.8213L24.2831 28.1335C24.6391 28.6427 25.0922 29.0766 25.6163 29.4104C26.7413 30.001 28.2769 29.9194 29.0362 29.236C29.2912 28.9855 29.4503 28.6536 29.4857 28.298C29.5212 27.9424 29.4308 27.5856 29.2303 27.2897C28.9491 26.8988 28.3866 26.5697 26.8144 25.8835C25.0003 25.1016 24.2184 24.6179 23.5041 23.8472C23.0581 23.3387 22.7288 22.7387 22.5394 22.0894C22.3981 21.3476 22.3772 20.5879 22.4775 19.8394C22.8516 18.0872 24.165 16.8638 26.0831 16.501C26.9714 16.3911 27.8712 16.4157 28.7522 16.5741V16.5685ZM20.5003 18.0422V19.4822H15.9356V32.4844H12.6984V19.4794H8.1225V18.0732C8.10825 17.5882 8.11951 17.1029 8.15625 16.6191C8.17875 16.5938 10.9688 16.5938 14.3438 16.5938H20.4834L20.5003 18.0422Z" fill="#007ACC"/>
</g>
<defs>
<clipPath id="clip0_436_151">
<rect width="36" height="36" fill="white"/>
</clipPath>
</defs>
</svg>
