<svg width="36" height="36" viewBox="0 0 36 36" fill="none" xmlns="http://www.w3.org/2000/svg">
<path d="M35.0903 5.48999L18.9347 34.3794C18.6009 34.976 17.7439 34.9793 17.4056 34.3862L0.929394 5.49337C0.560113 4.84593 1.11277 4.06265 1.84655 4.19343L18.0196 7.08384C18.1228 7.10268 18.2285 7.10268 18.3317 7.08384L34.1661 4.19793C34.8968 4.0649 35.4528 4.84171 35.0903 5.48999Z" fill="url(#paint0_linear_436_349)"/>
<path d="M25.7231 0.402215L13.7683 2.74447C13.6729 2.76311 13.5864 2.81292 13.5223 2.88607C13.4583 2.95922 13.4204 3.05157 13.4145 3.14862L12.6785 15.5709C12.6745 15.639 12.6865 15.7071 12.7134 15.7698C12.7403 15.8325 12.7815 15.8881 12.8336 15.9321C12.8857 15.9762 12.9474 16.0075 13.0137 16.0236C13.08 16.0396 13.1492 16.0401 13.2157 16.0248L16.5445 15.2556C16.6162 15.2391 16.6909 15.2409 16.7617 15.2608C16.8325 15.2807 16.8972 15.3181 16.9499 15.3694C17.0025 15.4208 17.0414 15.4846 17.0629 15.555C17.0845 15.6253 17.0881 15.6999 17.0733 15.772L16.0841 20.6148C16.069 20.6893 16.0735 20.7665 16.0972 20.8388C16.1208 20.9111 16.1629 20.976 16.2191 21.0272C16.2754 21.0783 16.344 21.114 16.4182 21.1307C16.4924 21.1474 16.5696 21.1446 16.6424 21.1225L18.6978 20.4972C19.0164 20.4005 19.323 20.6806 19.2561 21.0069L17.6839 28.6138C17.586 29.0897 18.2188 29.349 18.4826 28.9412L18.6584 28.669L28.4009 9.22615C28.5646 8.8999 28.2825 8.52865 27.9256 8.59784L24.4986 9.25934C24.4248 9.27367 24.3486 9.26879 24.2773 9.24519C24.206 9.22159 24.1419 9.18004 24.0913 9.12455C24.0407 9.06906 24.0052 9.00148 23.9882 8.9283C23.9712 8.85513 23.9733 8.77881 23.9943 8.70668L26.2302 0.954871C26.2512 0.88249 26.2533 0.805914 26.2361 0.732525C26.2189 0.659136 26.1831 0.591409 26.1322 0.535873C26.0812 0.480336 26.0168 0.438864 25.9452 0.415453C25.8735 0.392043 25.797 0.387484 25.7231 0.402215Z" fill="url(#paint1_linear_436_349)"/>
<defs>
<linearGradient id="paint0_linear_436_349" x1="0.5267" y1="3.16113" x2="20.6343" y2="30.4689" gradientUnits="userSpaceOnUse">
<stop stop-color="#41D1FF"/>
<stop offset="1" stop-color="#BD34FE"/>
</linearGradient>
<linearGradient id="paint1_linear_436_349" x1="17.0916" y1="1.03783" x2="20.729" y2="25.9898" gradientUnits="userSpaceOnUse">
<stop stop-color="#FFEA83"/>
<stop offset="0.083" stop-color="#FFDD35"/>
<stop offset="1" stop-color="#FFA800"/>
</linearGradient>
</defs>
</svg>
