<svg width="38" height="38" viewBox="0 0 38 38" fill="none" xmlns="http://www.w3.org/2000/svg">
<path d="M14.2502 23.75C13.937 23.75 13.6309 23.8429 13.3705 24.0168C13.1101 24.1908 12.9072 24.4381 12.7874 24.7274C12.6675 25.0167 12.6362 25.3351 12.6973 25.6422C12.7583 25.9494 12.9091 26.2315 13.1306 26.4529C13.352 26.6743 13.6341 26.8251 13.9413 26.8862C14.2484 26.9473 14.5668 26.916 14.8561 26.7961C15.1454 26.6763 15.3927 26.4734 15.5667 26.213C15.7406 25.9526 15.8335 25.6465 15.8335 25.3333C15.8335 24.9134 15.6667 24.5107 15.3697 24.2137C15.0728 23.9168 14.6701 23.75 14.2502 23.75ZM3.16683 22.1667C2.7469 22.1667 2.34418 22.3335 2.04724 22.6304C1.75031 22.9273 1.5835 23.3301 1.5835 23.75V26.9167C1.5835 27.3366 1.75031 27.7393 2.04724 28.0362C2.34418 28.3332 2.7469 28.5 3.16683 28.5C3.58676 28.5 3.98948 28.3332 4.28642 28.0362C4.58335 27.7393 4.75016 27.3366 4.75016 26.9167V23.75C4.75016 23.3301 4.58335 22.9273 4.28642 22.6304C3.98948 22.3335 3.58676 22.1667 3.16683 22.1667ZM34.8335 22.1667C34.4136 22.1667 34.0108 22.3335 33.7139 22.6304C33.417 22.9273 33.2502 23.3301 33.2502 23.75V26.9167C33.2502 27.3366 33.417 27.7393 33.7139 28.0362C34.0108 28.3332 34.4136 28.5 34.8335 28.5C35.2534 28.5 35.6561 28.3332 35.9531 28.0362C36.25 27.7393 36.4168 27.3366 36.4168 26.9167V23.75C36.4168 23.3301 36.25 22.9273 35.9531 22.6304C35.6561 22.3335 35.2534 22.1667 34.8335 22.1667ZM26.9168 11.0833H20.5835V9.05666C21.0621 8.78035 21.4601 8.3836 21.7378 7.90584C22.0156 7.42809 22.1635 6.88595 22.1668 6.33333C22.1668 5.49347 21.8332 4.68802 21.2393 4.09416C20.6455 3.50029 19.84 3.16666 19.0002 3.16666C18.1603 3.16666 17.3549 3.50029 16.761 4.09416C16.1671 4.68802 15.8335 5.49347 15.8335 6.33333C15.8368 6.88595 15.9847 7.42809 16.2625 7.90584C16.5403 8.3836 16.9382 8.78035 17.4168 9.05666V11.0833H11.0835C9.82372 11.0833 8.61554 11.5838 7.72474 12.4746C6.83394 13.3654 6.3335 14.5735 6.3335 15.8333V30.0833C6.3335 31.3431 6.83394 32.5513 7.72474 33.4421C8.61554 34.3329 9.82372 34.8333 11.0835 34.8333H26.9168C28.1766 34.8333 29.3848 34.3329 30.2756 33.4421C31.1664 32.5513 31.6668 31.3431 31.6668 30.0833V15.8333C31.6668 14.5735 31.1664 13.3654 30.2756 12.4746C29.3848 11.5838 28.1766 11.0833 26.9168 11.0833ZM21.7235 14.25L20.9318 17.4167H17.0685L16.2768 14.25H21.7235ZM28.5002 30.0833C28.5002 30.5033 28.3333 30.906 28.0364 31.2029C27.7395 31.4998 27.3368 31.6667 26.9168 31.6667H11.0835C10.6636 31.6667 10.2608 31.4998 9.96391 31.2029C9.66698 30.906 9.50016 30.5033 9.50016 30.0833V15.8333C9.50016 15.4134 9.66698 15.0107 9.96391 14.7137C10.2608 14.4168 10.6636 14.25 11.0835 14.25H13.0152L14.2502 19.38C14.3369 19.7313 14.5413 20.0423 14.8293 20.2613C15.1174 20.4802 15.4718 20.5939 15.8335 20.5833H22.1668C22.5285 20.5939 22.8829 20.4802 23.171 20.2613C23.4591 20.0423 23.6635 19.7313 23.7502 19.38L24.9852 14.25H26.9168C27.3368 14.25 27.7395 14.4168 28.0364 14.7137C28.3333 15.0107 28.5002 15.4134 28.5002 15.8333V30.0833ZM23.7502 23.75C23.437 23.75 23.1309 23.8429 22.8705 24.0168C22.6101 24.1908 22.4072 24.4381 22.2874 24.7274C22.1675 25.0167 22.1362 25.3351 22.1973 25.6422C22.2583 25.9494 22.4091 26.2315 22.6306 26.4529C22.852 26.6743 23.1341 26.8251 23.4413 26.8862C23.7484 26.9473 24.0668 26.916 24.3561 26.7961C24.6454 26.6763 24.8927 26.4734 25.0667 26.213C25.2406 25.9526 25.3335 25.6465 25.3335 25.3333C25.3335 24.9134 25.1667 24.5107 24.8697 24.2137C24.5728 23.9168 24.1701 23.75 23.7502 23.75Z" fill="#D1C7EB"/>
</svg>
