<svg width="38" height="38" viewBox="0 0 38 38" fill="none" xmlns="http://www.w3.org/2000/svg">
<path d="M34.4373 13.9602H32.6252C32.4957 13.6099 32.3532 13.2667 32.1965 12.9271L33.4873 11.6494C34.011 11.1874 34.3387 10.5141 34.3387 9.76481C34.3387 9.11762 34.0941 8.52744 33.6915 8.08213L33.6939 8.0845L29.92 4.31063C29.4771 3.90925 28.8869 3.66462 28.2397 3.66462C27.4892 3.66462 26.8159 3.99475 26.3552 4.51725L26.3528 4.51962L25.0691 5.80212C24.7307 5.64656 24.3887 5.50406 24.0384 5.37463L24.0479 3.5625C24.0514 3.51262 24.0538 3.45444 24.0538 3.39506C24.0538 2.05556 23.004 0.961875 21.6824 0.890625H21.6764H16.3374C15.0086 0.960688 13.9577 2.05556 13.9577 3.39625C13.9577 3.45444 13.96 3.51262 13.9636 3.57081V3.5625V5.37225C13.6133 5.50169 13.2701 5.64419 12.9305 5.80094L11.6551 4.51369C11.1932 3.98763 10.5187 3.65631 9.76816 3.65631C9.12098 3.65631 8.53079 3.90094 8.08666 4.3035L8.08904 4.30113L4.31398 8.07619C3.9126 8.51912 3.66798 9.10931 3.66798 9.7565C3.66798 10.5082 3.9981 11.1815 4.52179 11.6411L4.52416 11.6434L5.80429 12.9247C5.64754 13.2656 5.50504 13.6087 5.37441 13.9602L3.56348 13.9519C3.5136 13.9484 3.45541 13.946 3.39723 13.946C2.05773 13.946 0.962852 14.9969 0.891602 16.3186V16.3246V21.6624C0.961664 22.9912 2.05773 24.0433 3.39841 24.0433C3.4566 24.0433 3.51479 24.0409 3.57179 24.0374H3.56348H5.37441C5.50385 24.3877 5.64635 24.7309 5.8031 25.0705L4.51585 26.3423C3.98979 26.8054 3.65966 27.4799 3.65966 28.2328C3.65966 28.88 3.90429 29.4714 4.30685 29.9167L4.30448 29.9143L8.07954 33.6882C8.4821 34.0884 9.03666 34.3354 9.64942 34.3354C9.65773 34.3354 9.66604 34.3354 9.67435 34.3354H9.67316C10.4486 34.3199 11.1457 33.9946 11.6468 33.478L11.648 33.4768L12.9293 32.1955C13.2701 32.3522 13.6145 32.4948 13.966 32.6254L13.9577 34.4351C13.9541 34.485 13.9517 34.5432 13.9517 34.6014C13.9517 35.9409 15.0027 37.0357 16.3244 37.107H16.3303H21.6693C22.9969 37.0357 24.0479 35.9421 24.0479 34.6026C24.0479 34.5432 24.0455 34.485 24.0419 34.428V34.4363V32.6242C24.3934 32.4936 24.7366 32.3511 25.0774 32.1943L26.3469 33.4756C26.8492 33.9922 27.545 34.3176 28.3181 34.3342H28.3205H28.3229C28.33 34.3342 28.3395 34.3342 28.3478 34.3342C28.9594 34.3342 29.5139 34.0884 29.9189 33.6917L33.6915 29.9191C34.0894 29.5165 34.334 28.9631 34.334 28.3516C34.334 28.3409 34.334 28.3302 34.334 28.3183C34.3185 27.5452 33.9955 26.8518 33.4814 26.3506L32.1977 25.0669C32.3532 24.7285 32.4957 24.3865 32.6252 24.0362L34.4361 24.0445C34.486 24.0481 34.543 24.0504 34.6012 24.0504C35.9419 24.0504 37.0367 22.9995 37.1068 21.6766V21.6707V16.3329C37.0355 15.0041 35.9419 13.9531 34.6012 13.9531C34.543 13.9531 34.4848 13.9555 34.4266 13.9591H34.4349L34.4373 13.9602ZM34.1404 21.0769L31.573 21.0639C31.5422 21.0639 31.516 21.0793 31.4852 21.0817C31.3747 21.0924 31.2726 21.1126 31.1752 21.1446L31.1847 21.1423C30.8166 21.223 30.5138 21.4546 30.3404 21.7681L30.3369 21.774C30.2799 21.8583 30.2288 21.9545 30.1896 22.0566L30.186 22.0661C30.1765 22.0946 30.154 22.1148 30.1457 22.1445C29.8725 23.0993 29.5199 23.9293 29.0793 24.7036L29.109 24.6466C29.0924 24.6762 29.0935 24.7107 29.0781 24.7416C29.0437 24.8164 29.0152 24.9054 28.9938 24.9969L28.9926 25.0064C28.9653 25.0919 28.9451 25.1916 28.9356 25.2937V25.2997C28.9332 25.3318 28.9309 25.3686 28.9309 25.4054C28.9309 25.6536 29.0033 25.8851 29.128 26.0799L29.1244 26.0751C29.1779 26.1796 29.2384 26.2687 29.3073 26.3506L29.3061 26.3482C29.3263 26.3708 29.3322 26.3993 29.3536 26.4207L31.1693 28.2388L28.2374 31.1683L26.4371 29.3526C26.4134 29.3277 26.3801 29.3206 26.3552 29.298C26.2839 29.2386 26.2032 29.184 26.1177 29.1377L26.1105 29.1341C25.879 29.0047 25.6011 28.9287 25.3066 28.9287C25.3042 28.9287 25.3019 28.9287 25.2995 28.9287C25.2092 28.9382 25.1273 28.9548 25.0489 28.9762L25.0596 28.9738C24.9385 28.9976 24.8316 29.0332 24.7319 29.0795L24.7402 29.0759C24.714 29.089 24.6844 29.0878 24.6582 29.1021C23.9386 29.5129 23.1062 29.8668 22.2322 30.1221L22.149 30.1423C22.117 30.1518 22.0956 30.1744 22.0647 30.1863C21.965 30.2254 21.8783 30.2706 21.7987 30.324L21.8035 30.3204C21.7144 30.3691 21.6384 30.4214 21.5672 30.4807L21.5695 30.4784C21.5066 30.5401 21.4484 30.609 21.3974 30.6814L21.3938 30.6862C21.2715 30.8204 21.1848 30.9878 21.1492 31.1743L21.148 31.1802C21.1195 31.2681 21.0969 31.3702 21.0874 31.4759V31.4818C21.085 31.5127 21.0696 31.5388 21.0696 31.5709L21.0684 34.1382H16.9229L16.9359 31.578C16.9359 31.5447 16.9193 31.5163 16.9169 31.4842C16.9074 31.3749 16.886 31.274 16.8552 31.1778L16.8575 31.1873C16.7768 30.8156 16.5429 30.5104 16.227 30.3359L16.2199 30.3323C16.1367 30.2765 16.0417 30.2266 15.9408 30.1874L15.9313 30.1839C15.9028 30.1744 15.8814 30.1518 15.8517 30.1435C14.8946 29.8704 14.0622 29.5165 13.2855 29.0747L13.3425 29.1044C13.3152 29.089 13.2832 29.0902 13.2559 29.0771C13.1704 29.0379 13.0706 29.0047 12.9661 28.9833L12.9566 28.9821C12.8474 28.9477 12.7215 28.9287 12.5909 28.9287C12.3284 28.9287 12.085 29.0071 11.8819 29.1424L11.8867 29.1401C11.7964 29.1876 11.7192 29.2398 11.648 29.2992L11.6504 29.2968C11.6254 29.3194 11.5934 29.3265 11.5696 29.3503L9.75391 31.1659L6.82079 28.234L8.64004 26.4338C8.66379 26.41 8.6721 26.3779 8.69348 26.3542C8.75641 26.2794 8.81341 26.1951 8.8621 26.106L8.86566 26.0989C8.9096 26.03 8.94998 25.9516 8.98323 25.8685L8.98679 25.859C9.03191 25.6927 9.06041 25.5016 9.06516 25.3044V25.3009C9.05566 25.2023 9.03785 25.1133 9.01291 25.0266L9.01529 25.0373C8.99154 24.9256 8.95948 24.8271 8.91673 24.7344L8.92029 24.7428C8.90604 24.7131 8.90723 24.681 8.8906 24.6525C8.47854 23.9341 8.12466 23.1028 7.87173 22.2288L7.85154 22.1481C7.84323 22.1172 7.81948 22.0946 7.80879 22.0649C7.76841 21.9628 7.72329 21.8749 7.66866 21.7942L7.67223 21.8001C7.62473 21.7122 7.57248 21.6362 7.51429 21.5662L7.51666 21.5686C7.45491 21.5056 7.38723 21.4486 7.31598 21.3976L7.31123 21.394C7.23998 21.3334 7.15923 21.2788 7.07373 21.2325L7.0666 21.2289C6.99891 21.1981 6.91698 21.1708 6.83385 21.1506L6.82435 21.1482C6.73291 21.1173 6.62604 21.0948 6.51679 21.0853H6.51085C6.47998 21.0829 6.45504 21.0674 6.42416 21.0674L3.85679 21.0662V16.9195L6.42416 16.9326C6.61416 16.9302 6.79348 16.891 6.95854 16.8233L6.94904 16.8269C7.01316 16.7984 7.0666 16.7699 7.11766 16.7378L7.11173 16.7414C7.2186 16.6856 7.31123 16.6226 7.39554 16.5514L7.39316 16.5526C7.44423 16.5063 7.49054 16.4588 7.53329 16.4077L7.53566 16.4053C7.60216 16.3281 7.66154 16.2414 7.71023 16.15L7.71379 16.1417C7.74585 16.0859 7.77791 16.0206 7.80404 15.9529L7.8076 15.9434C7.81948 15.9101 7.84204 15.884 7.85154 15.8507C8.12466 14.8948 8.47735 14.0624 8.9191 13.2869L8.88941 13.3439C8.90604 13.3154 8.90485 13.2822 8.9191 13.2537C8.95591 13.1741 8.98679 13.0791 9.00816 12.9818L9.00935 12.9722C9.0331 12.8701 9.04735 12.7526 9.04735 12.6314C9.04735 12.255 8.91316 11.9106 8.6911 11.6411L8.69348 11.6434C8.67329 11.6197 8.66616 11.59 8.6436 11.5686L6.83029 9.75294L9.76223 6.821L11.5649 8.63906C11.6302 8.6925 11.7026 8.74237 11.7786 8.78394L11.7857 8.7875C11.8356 8.82669 11.8914 8.86469 11.9496 8.89913L11.9567 8.90269C12.1467 9.00719 12.3724 9.07131 12.611 9.07844H12.6134L12.6194 9.07963C12.6336 9.07963 12.6467 9.06894 12.6597 9.06894C12.8806 9.05944 13.086 9.00244 13.2689 8.90862L13.2606 8.91219C13.2867 8.89913 13.3164 8.90506 13.3437 8.89081C14.0622 8.47994 14.8934 8.12488 15.7674 7.87194L15.8494 7.85175C15.879 7.84344 15.8992 7.82088 15.9277 7.81138C16.0358 7.76981 16.1296 7.72113 16.2163 7.66294L16.2115 7.6665C16.2935 7.62137 16.3635 7.57269 16.4289 7.51925L16.4265 7.52163C16.4954 7.45513 16.5571 7.38269 16.6117 7.30431L16.6153 7.29956C16.6699 7.23306 16.721 7.15825 16.7649 7.07987L16.7685 7.07275C16.8017 6.99913 16.8314 6.91244 16.8516 6.82337L16.854 6.81387C16.8825 6.72719 16.9039 6.62625 16.9134 6.52056V6.51463C16.9157 6.48256 16.9312 6.45644 16.9312 6.42437L16.9324 3.857H21.0779L21.0649 6.41725C21.0649 6.4505 21.0815 6.47781 21.0827 6.51106C21.0922 6.6215 21.1135 6.72244 21.1444 6.81981L21.142 6.81031C21.1646 6.91006 21.1943 6.99675 21.2311 7.07987L21.2275 7.07037C21.275 7.15706 21.3249 7.23187 21.3819 7.30075L21.3795 7.29838C21.4365 7.3815 21.4995 7.45394 21.5672 7.52044C21.6301 7.57269 21.7002 7.62019 21.7738 7.66294L21.7809 7.6665C21.8617 7.72112 21.9555 7.76981 22.054 7.80781L22.0635 7.81138C22.0932 7.82206 22.1146 7.84462 22.1455 7.85294C23.1002 8.12488 23.9303 8.47875 24.7045 8.9205L24.6487 8.89081C24.6749 8.90506 24.7034 8.89913 24.7295 8.91219C24.904 9.00244 25.1095 9.05944 25.3268 9.06894H25.3304C25.3446 9.06894 25.3589 9.07963 25.3731 9.07963L25.4064 9.07012C25.6355 9.06063 25.8481 9.00006 26.0369 8.90031L26.0286 8.90388C26.0987 8.86469 26.158 8.8255 26.2139 8.78038L26.2103 8.78275C26.291 8.73881 26.3611 8.6925 26.4252 8.64025L26.4229 8.64262L28.2409 6.82812L31.1729 9.76125L29.3548 11.5615C29.331 11.5852 29.3227 11.6173 29.3002 11.6423C29.2372 11.7171 29.1802 11.8014 29.1315 11.8904L29.128 11.8976C29.0282 12.0436 28.9641 12.2206 28.9522 12.4129V12.4153C28.9368 12.4818 28.9285 12.559 28.9285 12.6374C28.9285 12.7526 28.9475 12.863 28.9819 12.9663L28.9795 12.9592C29.0033 13.0708 29.0354 13.1682 29.0781 13.2608L29.0745 13.2525C29.0888 13.2822 29.0876 13.3154 29.1042 13.3451C29.5163 14.0624 29.8702 14.8924 30.1231 15.7653L30.1433 15.846C30.1528 15.8816 30.1765 15.9078 30.1884 15.941C30.2169 16.0146 30.2466 16.0752 30.2799 16.1346L30.2763 16.1274C30.5269 16.5989 31.0114 16.9171 31.5707 16.9278L34.1392 16.929L34.1404 21.0769ZM18.9998 12.7656C15.5572 12.7656 12.7654 15.5574 12.7654 19C12.7654 22.4426 15.5572 25.2344 18.9998 25.2344C22.4424 25.2344 25.2342 22.4426 25.2342 19C25.2294 15.5586 22.4412 12.7704 18.9998 12.7656ZM18.9998 22.2656C17.196 22.2656 15.7342 20.8038 15.7342 19C15.7342 17.1962 17.196 15.7344 18.9998 15.7344C20.8036 15.7344 22.2654 17.1962 22.2654 19C22.263 20.8026 20.8024 22.2633 18.9998 22.2656Z" fill="#D1C7EB"/>
</svg>
