<svg width="38" height="38" viewBox="0 0 38 38" fill="none" xmlns="http://www.w3.org/2000/svg">
<path fill-rule="evenodd" clip-rule="evenodd" d="M5.146 9.50033C5.146 7.05932 7.09396 5.16907 9.51242 3.95985C12.0019 2.71511 15.358 1.97949 19.0002 1.97949C22.6423 1.97949 25.9985 2.71511 28.488 3.95985C30.9064 5.16907 32.8543 7.05932 32.8543 9.50033V28.5003C32.8543 30.9413 30.9064 32.8315 28.488 34.0407C25.9985 35.2855 22.6423 36.0212 19.0002 36.0212C15.358 36.0212 12.0019 35.2855 9.51242 34.0407C7.09396 32.8315 5.146 30.9413 5.146 28.5003V9.50033ZM7.521 9.50033C7.521 8.44353 8.40856 7.16711 10.5745 6.08411C12.6695 5.03664 15.6467 4.35449 19.0002 4.35449C22.3537 4.35449 25.3308 5.03664 27.4257 6.08411C29.5917 7.16711 30.4793 8.44353 30.4793 9.50033C30.4793 10.5571 29.5917 11.8335 27.4257 12.9165C25.3308 13.964 22.3537 14.6462 19.0002 14.6462C15.6467 14.6462 12.6695 13.964 10.5745 12.9165C8.40856 11.8335 7.521 10.5571 7.521 9.50033ZM7.521 28.5003C7.521 29.557 8.40856 30.8335 10.5745 31.9165C12.6695 32.9641 15.6467 33.6462 19.0002 33.6462C22.3537 33.6462 25.3308 32.9641 27.4257 31.9165C29.5917 30.8335 30.4793 29.557 30.4793 28.5003V23.2867C29.8829 23.7625 29.2062 24.1816 28.488 24.5407C25.9985 25.7855 22.6423 26.5212 19.0002 26.5212C15.358 26.5212 12.0019 25.7855 9.51242 24.5407C8.79422 24.1816 8.11752 23.7625 7.521 23.2867V28.5003ZM30.4793 13.7868V19.0003C30.4793 20.057 29.5917 21.3335 27.4257 22.4165C25.3308 23.4641 22.3537 24.1462 19.0002 24.1462C15.6467 24.1462 12.6695 23.4641 10.5745 22.4165C8.40856 21.3335 7.521 20.057 7.521 19.0003V13.7868C8.11752 14.2625 8.79422 14.6817 9.51242 15.0408C12.0019 16.2855 15.358 17.0212 19.0002 17.0212C22.6423 17.0212 25.9985 16.2855 28.488 15.0408C29.2062 14.6817 29.8829 14.2625 30.4793 13.7868Z" fill="#D1C7EB"/>
</svg>
