<svg width="38" height="38" viewBox="0 0 38 38" fill="none" xmlns="http://www.w3.org/2000/svg">
<path d="M8.82675 3.28388C9.23818 3.48163 9.49984 3.89769 9.49984 4.35418C9.49984 5.6681 9.99401 6.42458 10.6131 7.34585L10.6581 7.41277C11.1847 8.195 11.8748 9.22039 11.8748 10.6875C11.8748 12.1846 11.1193 13.5052 9.96874 14.2888C10.2714 14.5426 10.5396 14.8556 10.7701 15.2285C11.5234 16.4477 11.8748 18.3105 11.8748 20.9869C11.8748 23.6978 11.5107 26.9531 10.9176 29.552C10.6226 30.8443 10.2574 32.0364 9.82081 32.9324C9.60431 33.3767 9.34068 33.8107 9.01244 34.1501C8.68781 34.4856 8.18622 34.8411 7.52067 34.8411C6.85512 34.8411 6.35353 34.4856 6.0289 34.1501C5.70066 33.8107 5.43704 33.3767 5.22053 32.9324C4.78399 32.0364 4.4187 30.8443 4.12377 29.552C3.53062 26.9531 3.1665 23.6978 3.1665 20.9869C3.1665 18.3105 3.51799 16.4477 4.27127 15.2285C4.5017 14.8556 4.7699 14.5426 5.0726 14.2888C3.92204 13.5052 3.1665 12.1846 3.1665 10.6875C3.1665 10.1045 3.16704 9.10241 3.77357 7.8085C4.36713 6.54221 5.49505 5.08727 7.57051 3.42691C7.92697 3.14173 8.41532 3.08614 8.82675 3.28388ZM5.5415 10.6855V10.6875C5.5415 11.7806 6.4276 12.6667 7.52067 12.6667C8.61374 12.6667 9.49984 11.7806 9.49984 10.6875C9.49984 9.99237 9.20721 9.51177 8.64189 8.67057L8.62254 8.64177C8.26017 8.10266 7.83216 7.46592 7.5267 6.64614C6.66651 7.52082 6.19146 8.246 5.92402 8.81652C5.5415 9.63259 5.5415 10.2133 5.5415 10.6855ZM6.29173 16.477C5.89889 17.1127 5.5415 18.4165 5.5415 20.9869C5.5415 23.5228 5.88626 26.6008 6.43922 29.0235C6.71735 30.2421 7.03441 31.2328 7.35559 31.8921C7.41471 32.0134 7.4701 32.1154 7.52067 32.2001C7.57124 32.1154 7.62663 32.0134 7.68575 31.8921C8.00693 31.2328 8.32399 30.2421 8.60212 29.0235C9.15508 26.6008 9.49984 23.5228 9.49984 20.9869C9.49984 18.4165 9.14245 17.1127 8.74961 16.477C8.57085 16.1875 8.39339 16.0506 8.23483 15.9736C8.0641 15.8908 7.83841 15.8411 7.52067 15.8411C7.20293 15.8411 6.97724 15.8908 6.80651 15.9736C6.64795 16.0506 6.47049 16.1875 6.29173 16.477Z" fill="#D1C7EB"/>
<path d="M15.8334 23.6186C14.981 23.4756 14.1672 23.2191 13.4079 22.8652C13.4411 22.2219 13.4584 21.5919 13.4584 20.9869C13.4584 20.7086 13.4548 20.4355 13.4473 20.1679C14.1616 20.6478 14.9675 21.002 15.8334 21.1985V16.625C15.8334 15.3133 16.8967 14.25 18.2083 14.25H24.5416C24.5416 10.315 21.3517 7.125 17.4166 7.125C15.7884 7.125 14.2876 7.67122 13.0877 8.59041C12.7718 7.71574 12.3203 7.04575 12.0061 6.5796L11.9424 6.48489C13.4897 5.39203 15.3782 4.75 17.4166 4.75C22.6633 4.75 26.9166 9.00329 26.9166 14.25H32.4583C33.7701 14.25 34.8333 15.3133 34.8333 16.625V30.875C34.8333 32.1866 33.7701 33.25 32.4583 33.25H18.2083C16.8967 33.25 15.8334 32.1866 15.8334 30.875V23.6186ZM18.2083 23.7175V30.875H32.4583V16.625H26.6174C25.6264 20.4757 22.2817 23.3814 18.2083 23.7175ZM24.1363 16.625H18.2083V21.3315C20.9619 21.0271 23.2425 19.1536 24.1363 16.625Z" fill="#D1C7EB"/>
</svg>
