<svg width="38" height="38" viewBox="0 0 38 38" fill="none" xmlns="http://www.w3.org/2000/svg">
<g clip-path="url(#clip0_479_2274)">
<path d="M12.9822 4.75765C12.9822 3.44176 14.049 2.375 15.3648 2.375H22.5128C23.8286 2.375 24.8955 3.44173 24.8955 4.75765V11.9056C24.8955 12.1113 24.8693 12.3109 24.8204 12.5012C24.8693 12.6916 24.8955 12.8912 24.8955 13.0969V19.0535H27.8737V14.2882C27.8737 13.3013 28.6738 12.5012 29.6607 12.5012C30.6477 12.5012 31.4476 13.3013 31.4476 14.2882V19.0535H36.2131C37.1999 19.0535 38 19.8536 38 20.8405C38 21.8274 37.1999 22.6275 36.2131 22.6275H31.3768C31.0256 26.9605 29.3852 30.4185 26.785 32.8641C23.8569 35.6184 19.8876 36.9234 15.6627 36.9234C11.8051 36.9234 8.16226 35.8366 5.32532 33.5481C2.46753 31.2429 0.561552 27.8243 0.029769 23.4348C-0.275303 20.9166 1.81342 19.0535 4.04729 19.0535H4.64294V13.0969C4.64294 11.781 5.70969 10.7143 7.02558 10.7143H12.9822V4.75765ZM12.9822 14.2882H8.21691V19.0535H12.9822V14.2882ZM4.04729 22.6275C3.87591 22.6275 3.73937 22.6975 3.65902 22.7808C3.58782 22.8546 3.56808 22.9247 3.5778 23.0049C4.00845 26.5599 5.50278 29.0994 7.56924 30.7665C9.65658 32.4501 12.4619 33.3495 15.6627 33.3495C19.1686 33.3495 22.1983 32.272 24.3364 30.2608C26.1523 28.5527 27.4545 26.0504 27.7892 22.6275H4.04729ZM16.5562 19.0535H21.3215V14.2882H16.5562V19.0535ZM16.5562 10.7143H21.3215V5.94897H16.5562V10.7143Z" fill="#D1C7EB"/>
</g>
<defs>
<clipPath id="clip0_479_2274">
<rect width="38" height="38" fill="white"/>
</clipPath>
</defs>
</svg>
