<svg width="38" height="38" viewBox="0 0 38 38" fill="none" xmlns="http://www.w3.org/2000/svg">
<path d="M3.63042 29.6197C3.33359 29.3228 3.16684 28.9202 3.16684 28.5003C3.16684 28.0805 3.33359 27.6778 3.63042 27.3809L8.38042 22.6309C8.63925 22.372 8.9798 22.2108 9.34412 22.1747C9.70843 22.1386 10.074 22.2299 10.3786 22.433L14.0488 24.8792L17.8804 21.0476C18.179 20.7592 18.579 20.5996 18.9941 20.6032C19.4093 20.6068 19.8064 20.7733 20.1 21.0669C20.3935 21.3604 20.56 21.7575 20.5637 22.1727C20.5673 22.5878 20.4077 22.9878 20.1193 23.2864L15.3693 28.0364C15.1104 28.2953 14.7699 28.4565 14.4056 28.4926C14.0412 28.5287 13.6757 28.4374 13.3711 28.2343L9.70092 25.7881L5.86925 29.6197C5.57234 29.9166 5.16968 30.0833 4.74984 30.0833C4.32999 30.0833 3.92734 29.9166 3.63042 29.6197ZM34.8332 4.75033V33.2503C34.8332 33.6702 34.6664 34.073 34.3694 34.3699C34.0725 34.6668 33.6698 34.8337 33.2498 34.8337H4.74984C4.32991 34.8337 3.92718 34.6668 3.63025 34.3699C3.33332 34.073 3.1665 33.6702 3.1665 33.2503C3.1665 32.8304 3.33332 32.4277 3.63025 32.1307C3.92718 31.8338 4.32991 31.667 4.74984 31.667H31.6665V12.667H6.33317V19.0003C6.33317 19.4202 6.16636 19.823 5.86942 20.1199C5.57249 20.4168 5.16976 20.5837 4.74984 20.5837C4.32991 20.5837 3.92718 20.4168 3.63025 20.1199C3.33332 19.823 3.1665 19.4202 3.1665 19.0003V4.75033C3.1665 4.3304 3.33332 3.92767 3.63025 3.63074C3.92718 3.33381 4.32991 3.16699 4.74984 3.16699H33.2498C33.6698 3.16699 34.0725 3.33381 34.3694 3.63074C34.6664 3.92767 34.8332 4.3304 34.8332 4.75033ZM6.33317 9.50033H31.6665V6.33366H6.33317V9.50033ZM23.2859 20.1197L24.8693 18.5364C25.1577 18.2378 25.3173 17.8378 25.3137 17.4227C25.31 17.0075 25.1435 16.6104 24.85 16.3169C24.5564 16.0233 24.1593 15.8568 23.7441 15.8532C23.329 15.8496 22.929 16.0092 22.6304 16.2976L21.0471 17.8809C20.8959 18.027 20.7752 18.2017 20.6923 18.3949C20.6093 18.588 20.5656 18.7958 20.5638 19.006C20.5619 19.2163 20.602 19.4247 20.6816 19.6193C20.7612 19.8139 20.8788 19.9907 21.0275 20.1394C21.1761 20.288 21.3529 20.4056 21.5475 20.4852C21.7421 20.5648 21.9506 20.6049 22.1608 20.6031C22.371 20.6012 22.5788 20.5576 22.772 20.4746C22.9651 20.3916 23.1399 20.271 23.2859 20.1197Z" fill="#D1C7EB"/>
</svg>
