<svg width="38" height="38" viewBox="0 0 38 38" fill="none" xmlns="http://www.w3.org/2000/svg">
<path d="M32.0626 15.2C33.2609 15.89 34.2326 16.9139 34.859 18.1466C35.4855 19.3794 35.7397 20.7678 35.5906 22.1425C35.4416 23.5172 34.8957 24.8189 34.0196 25.8887C33.1435 26.9586 31.975 27.7503 30.6566 28.1675C30.1907 30.282 29.0166 32.174 27.3287 33.5301C25.6408 34.8863 23.5403 35.6254 21.3751 35.625H17.8126C17.4977 35.625 17.1956 35.4999 16.9729 35.2772C16.7502 35.0545 16.6251 34.7524 16.6251 34.4375C16.6251 34.1226 16.7502 33.8205 16.9729 33.5978C17.1956 33.3751 17.4977 33.25 17.8126 33.25H21.3751C22.8491 33.2504 24.2869 32.7939 25.4906 31.9432C26.6944 31.0925 27.6047 29.8896 28.0964 28.5H27.3126C26.9977 28.5 26.6956 28.3749 26.4729 28.1522C26.2502 27.9295 26.1251 27.6274 26.1251 27.3125V15.4375C26.1251 15.1226 26.2502 14.8205 26.4729 14.5978C26.6956 14.3751 26.9977 14.25 27.3126 14.25H28.5001C28.8849 14.25 29.2625 14.2809 29.633 14.3403C29.3657 11.7061 28.1301 9.265 26.1656 7.48985C24.2012 5.71471 21.6478 4.73193 19.0001 4.73193C16.3525 4.73193 13.799 5.71471 11.8346 7.48985C9.87019 9.265 8.6346 11.7061 8.36725 14.3403C8.74189 14.2802 9.12071 14.2501 9.50012 14.25H10.6876C11.0026 14.25 11.3046 14.3751 11.5273 14.5978C11.75 14.8205 11.8751 15.1226 11.8751 15.4375V27.3125C11.8751 27.6274 11.75 27.9295 11.5273 28.1522C11.3046 28.3749 11.0026 28.5 10.6876 28.5H9.50012C7.9302 28.5017 6.40366 27.9849 5.15767 27.0299C3.91168 26.0748 3.016 24.735 2.60981 23.2185C2.20362 21.702 2.30964 20.0939 2.91142 18.6439C3.5132 17.1939 4.57703 15.9832 5.93762 15.2C5.93762 11.7356 7.31385 8.41311 9.76354 5.96342C12.2132 3.51372 15.5357 2.1375 19.0001 2.1375C22.4645 2.1375 25.787 3.51372 28.2367 5.96342C30.6864 8.41311 32.0626 11.7356 32.0626 15.2ZM9.50012 16.625C8.24035 16.625 7.03216 17.1254 6.14137 18.0162C5.25057 18.907 4.75012 20.1152 4.75012 21.375C4.75012 22.6348 5.25057 23.843 6.14137 24.7338C7.03216 25.6246 8.24035 26.125 9.50012 26.125V16.625ZM33.2501 21.375C33.2501 20.1152 32.7497 18.907 31.8589 18.0162C30.9681 17.1254 29.7599 16.625 28.5001 16.625V26.125C29.7599 26.125 30.9681 25.6246 31.8589 24.7338C32.7497 23.843 33.2501 22.6348 33.2501 21.375Z" fill="#D1C7EB"/>
</svg>
