<svg width="38" height="38" viewBox="0 0 38 38" fill="none" xmlns="http://www.w3.org/2000/svg">
<path d="M19 34.4375C13.775 34.4375 9.5 30.1625 9.5 24.9375V19C9.5 17.6937 10.5687 16.625 11.875 16.625H26.125C27.4313 16.625 28.5 17.6937 28.5 19V24.9375C28.5 30.1625 24.225 34.4375 19 34.4375Z" stroke="#D1C7EB" stroke-width="2.375" stroke-miterlimit="10" stroke-linecap="round" stroke-linejoin="round"/>
<path d="M11.875 16.625V10.5687C11.875 6.65 15.0813 3.5625 19 3.5625C22.9187 3.5625 26.125 6.65 26.125 10.5687V16.625" stroke="#D1C7EB" stroke-width="2.375" stroke-miterlimit="10" stroke-linecap="round" stroke-linejoin="round"/>
<path d="M19 26.125C20.3117 26.125 21.375 25.0617 21.375 23.75C21.375 22.4383 20.3117 21.375 19 21.375C17.6883 21.375 16.625 22.4383 16.625 23.75C16.625 25.0617 17.6883 26.125 19 26.125Z" stroke="#D1C7EB" stroke-width="2.375" stroke-miterlimit="10" stroke-linecap="round" stroke-linejoin="round"/>
<path d="M19 29.6875V26.125" stroke="#D1C7EB" stroke-width="2.375" stroke-miterlimit="10" stroke-linecap="round" stroke-linejoin="round"/>
</svg>
