<svg width="38" height="38" viewBox="0 0 38 38" fill="none" xmlns="http://www.w3.org/2000/svg">
<path fill-rule="evenodd" clip-rule="evenodd" d="M14.7164 2.14461C14.1518 1.81087 13.4236 1.99798 13.0898 2.56255C12.7561 3.12712 12.9432 3.85534 13.5078 4.18909L13.818 4.37247L3.16989 22.7519C0.717794 26.9844 2.17464 32.3945 6.41744 34.8357C10.6579 37.2755 16.0819 35.8292 18.5326 31.5992L29.1864 13.2099L29.491 13.3853C30.0594 13.7125 30.7854 13.5169 31.1127 12.9485C31.4398 12.3801 31.2442 11.6541 30.6758 11.3269L29.345 10.5608L16.0333 2.92309L14.7164 2.14461ZM5.22492 23.9425L15.8702 5.56776L27.1272 12.0265L24.7443 16.1396L21.7203 14.3997C21.1519 14.0726 20.4259 14.2683 20.0988 14.8368C19.7717 15.4052 19.9674 16.1312 20.5358 16.4583L23.5538 18.1946L22.0314 20.8223L16.403 17.5839C15.8344 17.2568 15.1085 17.4524 14.7815 18.021C14.4544 18.5894 14.6501 19.3154 15.2186 19.6425L20.8408 22.8773L19.4386 25.2975L16.3281 23.5079C15.7596 23.1809 15.0337 23.3765 14.7066 23.9451C14.3795 24.5135 14.5752 25.2394 15.1437 25.5666L18.2481 27.3527L16.4776 30.4085C14.685 33.5029 10.7111 34.5661 7.60186 32.7772C4.49503 30.9896 3.43371 27.0343 5.22492 23.9425Z" fill="#D1C7EB"/>
<path fill-rule="evenodd" clip-rule="evenodd" d="M33.5279 19.1609C32.5101 18.0869 30.824 18.0869 29.8063 19.1609C29.3194 19.6747 28.7252 20.3566 28.2453 21.0835C27.795 21.7656 27.313 22.6801 27.313 23.6181C27.313 26.0496 29.2171 28.1042 31.6672 28.1042C34.117 28.1042 36.0213 26.0496 36.0213 23.6181C36.0213 22.6801 35.5394 21.7656 35.0889 21.0835C34.6091 20.3566 34.0149 19.6747 33.5279 19.1609ZM31.53 20.7945C31.5764 20.7456 31.625 20.7304 31.6672 20.7304C31.7091 20.7304 31.7577 20.7456 31.8041 20.7945C32.2452 21.2599 32.7348 21.8283 33.1069 22.3918C33.5084 23.0001 33.6463 23.4162 33.6463 23.6181C33.6463 24.8302 32.715 25.7292 31.6672 25.7292C30.6193 25.7292 29.688 24.8302 29.688 23.6181C29.688 23.4162 29.8259 23.0001 30.2273 22.3918C30.5994 21.8283 31.0891 21.2599 31.53 20.7945Z" fill="#D1C7EB"/>
</svg>
