<svg width="38" height="38" viewBox="0 0 38 38" fill="none" xmlns="http://www.w3.org/2000/svg">
<path d="M32.6008 2.375H5.39917C3.72897 2.375 2.375 3.72897 2.375 5.39917V25.0483C2.375 26.7185 3.72897 28.0725 5.39917 28.0725H32.6008C34.271 28.0725 35.625 26.7185 35.625 25.0483V5.39917C35.625 3.72897 34.271 2.375 32.6008 2.375Z" stroke="#D1C7EB" stroke-width="3.02417" stroke-miterlimit="10"/>
<path d="M25.0483 35.6248H12.9517L14.4717 28.0723H23.5283L25.0483 35.6248Z" stroke="#D1C7EB" stroke-width="3.02417" stroke-miterlimit="10"/>
<path d="M8.42334 35.625H29.5767" stroke="#D1C7EB" stroke-width="3.02417" stroke-miterlimit="10"/>
<path d="M18.9998 25.0327C19.8305 25.0327 20.5039 24.3593 20.5039 23.5286C20.5039 22.6979 19.8305 22.0244 18.9998 22.0244C18.169 22.0244 17.4956 22.6979 17.4956 23.5286C17.4956 24.3593 18.169 25.0327 18.9998 25.0327Z" fill="#D1C7EB"/>
</svg>
